<?xml version="1.0" encoding="UTF-8"?>
<svg id="Calque_1" data-name="Calque 1" xmlns="http://www.w3.org/2000/svg" viewBox="0 0 612 612">
  <defs>
    <style>
      .cls-1 {
        letter-spacing: -.01em;
      }

      .cls-2 {
        font-family: ArialRoundedMTBold, 'Arial Rounded MT Bold';
        font-size: 41.51px;
      }

      .cls-2, .cls-3 {
        fill: #fff;
      }

      .cls-3, .cls-4 {
        stroke-width: 0px;
      }

      .cls-4 {
        fill: #4063ac;
      }
    </style>
  </defs>
  <rect class="cls-4" width="612" height="612"/>
  <g>
    <g>
      <path class="cls-3" d="m239.82,375.63c-21.52-1.98-87.85-8.54-89.01-13.99-1.11-5.23,44.42-10.03,62.41-11.72.78-.07.48-.38-.35-.34-21.3.94-80.4,4.26-77.81,12.12,3.14,9.54,80.52,13.33,104.44,14.28.82.03,1.1-.27.32-.35Z"/>
      <path class="cls-3" d="m386.4,368.38c-24.16,1.28-85.34,3.88-140.12.93-56.87-3.06-52.11-10.19-48.27-12.77.24-.16-.57-.28-1-.15-18.26,5.76-11.22,12.81,47.96,15.84,50.25,2.57,116.15-1.43,141.72-3.55.7-.06.43-.33-.29-.29Z"/>
      <path class="cls-3" d="m447.84,352.43c3.87-3.46,7.46-7.8,10.77-13.21,3.9-6.36,8.53-13.95,12.36-23.51.49-1.22-.45-2.54-1.77-2.49-7.22.27-27.63,2.14-51.28,2.83-.05-5.28.47-8.56,1.46-11.33.8-2.24,1.61-4.49,2.12-6.81.76-3.44,1-6.5.45-10.33-1.55-11.42-6.55-15.62-8.03-16.59l-1.61-4s0-.01,0-.02c1.2-1.54,1.83-3.91,1.83-3.91,8.3,1.87,11.2-.88,9.43-4.06-1.89-3.42-10.14-4.11-10.14-4.11.07-3.48-.41-7.27-.74-9.46-.2-1.32-.81-2.56-1.84-3.42-5.04-4.19-12.96-3.13-16.66-2.15-1.61.43-3.07,1.36-4.01,2.74-2.53,3.73-2.79,9.15-2.79,9.15,0,0-9.47-.21-10.22,3.3-.62,2.52,5.05,2.64,10.32,2.54,0,0-.6,8.72,4.95,17.71,0,0-2.5,1.99-4.09,3.65-.78.81-1.83.9-2.83.39-2.3-1.17-2.25-5.52-2.25-5.52,0,0,.3-3.8-1.7-5.19-2.1-1.46-3.95-1.39-4.52-1.33-2.56-3.98-7.6-11.79-14.11-21.91-2.41-3.72-5.01-7.75-7.77-12.02-2.78-4.27-5.83-8.7-9.09-13.22-3.31-4.49-6.78-9.09-10.61-13.54-1.86-2.27-3.9-4.42-5.88-6.63-2.1-2.11-4.1-4.32-6.33-6.32-4.29-4.17-9.01-7.89-13.81-11.32-2.47-1.62-4.87-3.3-7.45-4.66-1.28-.69-2.49-1.48-3.79-2.07-1.3-.61-2.58-1.22-3.86-1.82-1.25-.64-2.61-1.08-3.91-1.59-1.31-.48-2.61-1.01-3.89-1.42-1.28-.36-2.56-.72-3.81-1.08-.63-.18-1.25-.35-1.87-.53-.74-.19-1.32-.28-1.97-.43-5.11-1.07-10.08-1.24-14.6-.92-4.53.33-8.64,1.23-12.14,2.43-3.5,1.2-6.38,2.72-8.63,4.12-2.21,1.42-3.92,2.81-4.93,3.74-1.01.95-1.55,1.45-1.55,1.45-.39.37-.42.99-.05,1.38.37.4,1,.43,1.4.06,0,0,.55-.5,1.57-1.43.7-.62,1.62-1.36,2.78-2.18l.26,1.2c-.2.29-.08.8.28,1.3l-68.88,94.1c-.93-.44-1.77-.23-1.77-.23,0,0-3.95-.17-5.23-.2-1.28-.03-3.13,1.62-3.13,1.62,0,0-1.77.67-2.66,2.24,0,0-3.69,1.32-3.76,3.87l-5.45,5.72s-.71.34-1.97-.06c-1.25-.4-2.07-.69-2.08-.16,0,0-4.17-.77-7.17.3-2.99,1.07-5.95,2.39-5.95,2.39l.54.05s-1.93.95-2.44,1.55-.02,1.58,1.8,2.67c1.82,1.1,2.38,2.51,3.12,5.67.74,3.16,2.04,6.98,3.33,8.21,1.29,1.23,2.05,1.1,2.05,1.1,0,0,2.19-2.91,3.05-5.03,0,0,.32,3.71-1.23,5.34-1.55,1.63-3.71,2.9-3.96,3.97,0,0-2.04,1.97-2.25,3.99,0,0-3.84,8.48-3.52,13.48.33,5.01,1.72,10.17,1.23,12.52l.73.8s-.38-3.79.02-3.67.73,1.35,1,1.56c.27.21,1.42,1.39,1.06-1.32-.36-2.71-.13-7.15,1.1-9.32,1.23-2.16,2.24-3.78,2.24-3.78,0,0-1.85,3.51-2.19,5.43-.34,1.92-.56,6.09.62,6.58,1.18.48,2.42-1.38,2.97-3.78.55-2.4.88-3.22,3-6.67,2.12-3.45,2.52-7.27,2.52-7.27l.3.82s.7.53,1.18.85c0,0,6.55,2.3,7.83,4.01.54.71,1.06,1.23,1.48,1.59.49.42,1.3.17,1.59-.48,3.08-7.01-2.84-14.69-6.08-18.18-.05-.27-.17-.5-.45-.61,0,0,2.58-.57,3.13-.45.55.12,1.52.1,1.52.1l.34-.15,1.9-.66-.36,2.42c-.46,1.59-.07,3.21,1.03,4.27l1.99,1.92c.49.47,1.37.14,1.53-.57.09-.41.17-.82.23-1.23l.38-.2s.33.58.67.76c.34.18,1.64,1.4,1.64,1.4l.18.7s2.66,1.46,3.32.62c.66-.84.04-5.78-.16-6.81l-.2-1.03s-3.34-7.11-2.72-8.26c.62-1.15,2.83-4.73,2.95-5.3.12-.57.37-1.6.37-1.6l1.2,2.37.39-.03.54.29.21-.09.53.12.49-.18.4.21.37-.48.88-.21.48-.42.61-.32.07-.24.64-.62-.32-1.09.2-.57-.23-.8.13-.65s-2.65-1.78-2.84-1.84c-.19-.06-3.36-1.12-3.36-1.12,0,0,.68-.19.78-.98,0,0,1.33.23,1.49-4.2.17-4.43-.57-6.83-.57-6.83,0,0,.92-1.59-.29-3-.29-.34-.6-.57-.9-.73l69.28-93.62c.36.27.73.35.96.17l.05-.05c.22-.23.16-.63-.03-1.02.79-.48,1.56-.98,2.4-1.38,1.03-.56,2.09-1.04,3.17-1.49.53-.25,1.08-.44,1.63-.64.55-.19,1.09-.43,1.65-.59,1.12-.36,2.23-.71,3.37-.99,4.36-1.12,8.88-1.76,13.37-1.84.26.6.69.95,1.04.82l.06-.03c.17-.1.26-.29.29-.53l25.18,7.77c.04.73.36,1.27.77,1.26h.07c.21-.05.37-.22.47-.46l21.97,17.43s-.02.05-.02.07c-.2.84,0,1.56.46,1.67h.08c.27.03.52-.15.71-.43l19.71,24.59s-.01.02-.02.04c-.42.92-.36,1.79.14,2.02l.09.03c.32.09.66-.09.96-.39l12.27,20.56c.73,1.22,1.46,2.45,2.18,3.68-.03.04-.06.09-.1.13-.65,1-.72,2.02-.17,2.38l.1.05c.42.19.95-.06,1.41-.48,3.11,5.28,6.17,10.59,9.27,15.87l.32-.18c-3.01,6.49,2.06,10.08,2.06,10.08,0,0-6.27,18.41,1.85,29.56,0,0,2.08,2.85,7.8-1.31l-1.68,8.82s-.06,0-.1,0c-76.94-5.37-144.32-25.5-154.19-25.82-9.2-.3-4.8,11.43-4.8,11.43,0,0,2.56,6.63,2.58,23.25.01,10.87,8.86,20.41,24.5,26.9-12.37.55-26.99,1.82-28.84,4.72-3.28,5.15,13.59,7.7,22.94,8.75,13.76,1.54,24.18,2.36,55.06,2.75,8.8.11,18.93-.27,25.1-.56.57-.03.5-.25-.08-.25-7.58-.01-22.43-.28-43.37-1.77-31.46-2.23-46.54-5.32-45.88-8.75.34-1.76,8.96-3.12,17.28-4.02,8.47,3.23,18.76,5.62,30.59,6.91,0,0,35.13,5,77.78,6.32-6.47.45-13.3.9-18.02,1.21-.94.06-.77.42.2.42,9.83,0,30.23-.13,48.37-1.42,11.45-.22,22.98-.82,34.11-1.94,9.38-.94,17.68-3.83,25-9.66,12.22,2.62,17.66,5.55,10.16,8.36-13.15,4.92-71.21,11.72-130.1,13.21-.87.02-.86.36.01.37,25.39.49,103.66-.2,141.89-9.81,25.28-6.35,2.27-11.08-19.99-13.8Zm-204.11-173.14h0s-.04.02-.04.02l-.04.04-.14.19c-.1-.15-.17-.3-.2-.42-.05-.17-.04-.29,0-.33.04-.04.15-.03.3.04.12.06.25.17.37.29-.09.05-.17.11-.26.16Zm.77.98h0s-.17.02-.32-.06c-.05-.03-.1-.07-.15-.11l.17-.22c.08-.05.16-.09.24-.14.03.07.07.15.08.21.05.17.04.29,0,.33Zm25.92-9.18c-.18.14-.26.42-.23.77-2.15.04-4.27.21-6.38.49-2.35.32-4.69.77-6.99,1.37-1.15.29-2.29.64-3.42,1-.57.17-1.12.4-1.68.6-.56.21-1.12.4-1.66.66-1.1.46-2.18.96-3.23,1.52-.86.41-1.66.92-2.47,1.42-.17-.19-.36-.34-.55-.43-.16-.08-.31-.11-.44-.1l-.27-1.25c.47-.32.98-.66,1.53-1.01,2.15-1.29,4.89-2.69,8.23-3.79,3.33-1.1,7.26-1.9,11.59-2.16,1.95-.11,3.98-.12,6.07,0l-.1.92Zm.14.59c0-.16.05-.27.1-.3.05-.02.14.02.26.13.1.1.19.24.26.4l-.15-.05-.05-.02h-.05c-.12,0-.24,0-.36,0,0-.06-.01-.13-.01-.18Zm.73,1.37s0,0,0,0h0c-.05.02-.16-.03-.27-.15-.07-.08-.15-.19-.21-.32.02,0,.05,0,.07,0l.52.16s0,.01,0,.02c0,.16-.05.27-.1.29Zm25.72,6.83l-25.36-7.83s-.01-.05-.02-.08c-.11-.3-.27-.56-.45-.74-.12-.12-.25-.19-.37-.23l.09-.82c2.43.15,4.93.48,7.46,1.05.58.13,1.27.27,1.77.41.62.18,1.24.37,1.86.56,1.25.37,2.52.75,3.8,1.13,1.25.42,2.44.94,3.69,1.42,1.23.5,2.49.92,3.71,1.57,1.23.6,2.46,1.2,3.7,1.81.31.14.6.32.89.48l-.29.65c-.22.08-.39.31-.48.64Zm.89,1.34c-.06.16-.14.25-.2.26,0,0,0,0,0,0,0,0,0,0,0,0-.06,0-.14-.09-.22-.24-.06-.12-.1-.29-.12-.49l.08.02.49.38s0,.05-.02.06Zm-.07-1.06l-.05-.04-.07-.02-.32-.1s.02-.09.03-.12c.06-.16.14-.25.2-.26.06,0,.14.06.21.21.06.12.1.28.13.44l-.13-.1Zm23.23,19.76c-.12.16-.23.23-.29.23h0s0,0,0,0c-.06-.02-.13-.14-.17-.33-.03-.17-.02-.39.02-.65l.1.08.43.54s-.05.1-.08.14Zm.35-.98l-.15-.19-.03-.03-.03-.03-.33-.26s.05-.1.07-.13c.12-.16.23-.24.29-.23.06.01.13.11.17.29.03.16.03.36,0,.57Zm-.21-1.31c-.25.02-.49.21-.69.52l-22.11-17.54s0-.06,0-.08c-.01-.33-.08-.65-.2-.88-.08-.16-.18-.27-.3-.35l.23-.51c.8.45,1.59.93,2.4,1.38,2.47,1.34,4.78,3.01,7.15,4.61,4.61,3.4,9.15,7.08,13.29,11.21.3.28.59.57.89.86l-.65.79Zm.59,1.78s.02-.07.03-.11c.09-.37.1-.73.04-1.03-.04-.2-.12-.35-.22-.47l.54-.66c1.68,1.65,3.26,3.41,4.89,5.09,1.91,2.2,3.88,4.33,5.68,6.58,3.69,4.42,7.05,9,10.25,13.47.14.19.26.38.4.58l-.81.66c-.33-.04-.7.17-1.02.56l-19.78-24.68Zm20.11,26.72c-.17.15-.32.22-.39.2h-.01s0,0,0,0c-.07-.04-.12-.19-.11-.42,0-.19.05-.42.15-.69l.22.28.29.49c-.05.06-.1.11-.14.15Zm.57-.87l-.1-.16v-.02s-.03-.02-.03-.02l-.44-.54c.08-.11.16-.2.24-.27.17-.16.32-.22.39-.2.07.03.13.16.13.38,0,.24-.07.54-.19.83Zm12.76,21.38l-12.43-20.83c.04-.07.08-.14.11-.22.19-.4.29-.82.28-1.17,0-.24-.06-.43-.15-.59l.65-.53c2.88,4.15,5.61,8.23,8.1,12.18,2.69,4.29,5.24,8.35,7.59,12.09.24.38.47.75.7,1.12l-1.51.91c-.38-.1-.85.09-1.3.5-.68-1.16-1.37-2.31-2.06-3.46Zm2.13,5.88c-.22.15-.41.2-.49.16h-.01c-.08-.06-.11-.24-.06-.52.04-.24.15-.55.35-.88.19.31.37.63.56.94-.12.12-.23.22-.34.29Zm.82-.93c-.18-.31-.37-.63-.56-.94.12-.12.23-.22.34-.29.22-.15.41-.2.49-.16.07.05.12.2.09.46-.04.28-.17.61-.36.93Zm11.06,14.17c-.59.8-1.06,1.57-1.43,2.3-3.1-5.28-6.16-10.59-9.27-15.87.03-.04.06-.09.09-.13.28-.44.47-.9.53-1.32.04-.28,0-.51-.07-.71l1.35-.81c3.95,6.32,7.29,11.66,9.78,15.65-.63.41-.97.89-.97.89Z"/>
    </g>
    <text class="cls-2" transform="translate(170.75 434.37) scale(1.06 1)"><tspan x="0" y="0">Aqua</tspan><tspan class="cls-1" x="105.53" y="0">F</tspan><tspan x="130.05" y="0">ishery</tspan></text>
  </g>
</svg>