<?xml version="1.0" encoding="UTF-8"?>
<svg id="Calque_1" data-name="Calque 1" xmlns="http://www.w3.org/2000/svg" viewBox="0 0 612 612">
  <defs>
    <style>
      .cls-1 {
        fill: none;
        stroke: #1d1d1b;
        stroke-miterlimit: 10;
        stroke-width: 6px;
      }

      .cls-2 {
        fill: #fff;
      }

      .cls-2, .cls-3 {
        stroke-width: 0px;
      }

      .cls-3 {
        fill: #1d1d1b;
      }
    </style>
  </defs>
  <rect class="cls-2" width="612" height="612"/>
  <path class="cls-3" d="m136.16,344.17l-11.18-11.01c-1.62-1.58-2.43-3.49-2.43-5.72v-61.65c0-1.8.66-3.35,1.99-4.64,1.33-1.3,2.91-1.94,4.76-1.94h58.64c1.92,0,3.58.68,4.98,2.05l6.2,6.05c1.33,1.3,1.99,2.84,1.99,4.64v20.3c0,1.87-.7,3.42-2.1,4.64-1.26,1.37-2.84,2.05-4.76,2.05h-13.5c-1.48,0-2.73-.36-3.76-1.08-1.03-.72-1.81-1.69-2.32-2.92l-2.43-2.48v25.7c.89-.36,1.73-.54,2.54-.54h13.17c1.77,0,3.39.65,4.87,1.94l6.2,6.15c1.4,1.22,2.1,2.81,2.1,4.75v15.65c0,1.87-.7,3.42-2.1,4.64-1.26,1.37-2.84,2.05-4.76,2.05h-45.81c-2.36,0-4.39-.83-6.09-2.48l-6.2-6.05v-.11Zm51.78-55.71c.66,0,1.23-.23,1.72-.7s.72-1.03.72-1.67v-20.3c0-.65-.24-1.19-.72-1.62-.48-.43-1.05-.65-1.72-.65h-58.64c-.59,0-1.13.22-1.6.65-.48.43-.72.97-.72,1.62v61.65c0,1.08.37,1.98,1.11,2.7l11.18,11.01c.81.79,1.77,1.19,2.88,1.19h45.81c.66,0,1.23-.23,1.72-.7.48-.47.72-1.03.72-1.67v-15.65c0-.65-.24-1.2-.72-1.67-.48-.47-1.05-.7-1.72-.7h-13.17c-.66,0-1.24.23-1.72.7s-.72,1.03-.72,1.67v9.5c0,.72-.37,1.08-1.11,1.08h-17.59c-.96,0-1.44-.47-1.44-1.4v-3.13c0-.86.48-1.3,1.44-1.3h5.53c.59,0,1.12-.22,1.6-.65.48-.43.72-.97.72-1.62v-43.83c0-1.22.63-1.84,1.88-1.84h7.08c.52,0,.96.16,1.33.49.37.32.55.77.55,1.35v3.45c0,.58.2,1.06.61,1.46.4.4.9.59,1.49.59h13.5Z"/>
  <path class="cls-3" d="m224.29,344.17l-11.18-11.01c-1.62-1.58-2.43-3.49-2.43-5.72v-61.65c0-1.8.66-3.35,1.99-4.64,1.33-1.3,2.91-1.94,4.76-1.94h29.76c1.92,0,3.58.68,4.98,2.05l3.87,3.78c.22-1.65.96-3.04,2.21-4.16,1.25-1.12,2.77-1.67,4.54-1.67h13.28c1.92,0,3.58.68,4.98,2.05l6.2,6.05c1.33,1.3,1.99,2.84,1.99,4.64v74.17c0,1.87-.7,3.42-2.1,4.64-1.26,1.37-2.84,2.05-4.76,2.05h-13.39c-1.84,0-3.43-.65-4.76-1.94l-3.98-3.89c-.22,1.58-.89,2.84-1.99,3.78-1.26,1.37-2.8,2.05-4.65,2.05h-17.04c-2.36,0-4.39-.83-6.09-2.48l-6.2-6.05v-.11Zm38.5-80.65c-.66,0-1.22.22-1.66.65s-.66.94-.66,1.51v44.05c0,1.15-.59,1.73-1.77,1.73h-16.93c-.37,0-.7-.12-1-.38-.3-.25-.44-.56-.44-.92v-3.24c0-.86.48-1.3,1.44-1.3h5.53c.59,0,1.12-.22,1.6-.65.48-.43.72-.97.72-1.62v-37.57c0-.65-.24-1.19-.72-1.62-.48-.43-1.05-.65-1.72-.65h-29.76c-.59,0-1.13.22-1.6.65-.48.43-.72.97-.72,1.62v61.65c0,1.08.37,1.98,1.11,2.7l11.18,11.01c.81.79,1.77,1.19,2.88,1.19h17.04c.59,0,1.12-.23,1.6-.7.48-.47.72-.99.72-1.57v-9.18c0-1.22.63-1.84,1.88-1.84h7.08c.52,0,.96.16,1.33.49.37.32.55.77.55,1.35v9.28c0,.58.22,1.08.66,1.51s.96.65,1.55.65h13.39c.66,0,1.23-.23,1.72-.7.48-.47.72-1.03.72-1.67v-74.17c0-.65-.24-1.19-.72-1.62-.48-.43-1.05-.65-1.72-.65h-13.28Z"/>
  <path class="cls-3" d="m438.88,344.17l-11.18-11.01c-1.62-1.58-2.43-3.49-2.43-5.72v-35.74c-1.26-.14-2.38-.36-3.37-.65-1-.29-1.94-.86-2.82-1.73l-6.31-6.05c-1.33-1.3-1.99-2.99-1.99-5.07v-11.88c0-2.01.72-3.71,2.16-5.07,1.44-1.37,3.19-2.05,5.26-2.05h57.54c2.06,0,3.83.72,5.31,2.16l6.31,6.15c.59.58,1.09,1.3,1.49,2.16.4.86.61,1.8.61,2.81v11.88c0,1.94-.74,3.64-2.21,5.07-1.48,1.44-3.21,2.16-5.2,2.16h-8.3c.81,1.01,1.22,2.3,1.22,3.89v50.74c0,1.8-.7,3.31-2.1,4.53-1.26,1.37-2.8,2.05-4.65,2.05h-17.04c-2.36,0-4.39-.83-6.09-2.48l-6.2-6.05v-.11Zm-23.68-65.97c0,.79.29,1.48.89,2.05.59.58,1.29.86,2.1.86h9.52c.59,0,1.07.18,1.44.54.37.36.55.83.55,1.4v44.37c0,1.08.37,1.98,1.11,2.7l11.18,11.01c.81.79,1.77,1.19,2.88,1.19h17.04c.59,0,1.12-.23,1.6-.7.48-.47.72-.99.72-1.57v-50.74c0-.65-.24-1.22-.72-1.73-.48-.5-1.09-.76-1.83-.76h-5.31c-.96,0-1.44-.43-1.44-1.3v-3.13c0-.86.48-1.3,1.44-1.3h19.36c.81,0,1.51-.29,2.1-.86.59-.58.89-1.26.89-2.05v-12.2c0-.34-.08-.69-.28-.98-.7-1.01-1.6-1.51-2.71-1.51h-57.8c-.34,0-.68.06-.98.22-1.17.61-1.75,1.48-1.75,2.59v11.88Z"/>
  <g>
    <g>
      <path class="cls-1" d="m393.36,244.18v69.63c0,.57-.47,1.03-1.04,1.02l-14.14-.08v-35.94c0-.56-.47-1.02-1.04-1.02h-57.91v-33.62c0-.56.47-1.01,1.04-1.01h72.04c.58,0,1.04.45,1.04,1.01Z"/>
      <path class="cls-1" d="m378.18,278.82v69.63c0,.56-.47,1.02-1.05,1.02l-27.35-.16c-.24,0-.47.08-.66.22l-24.7,19.07c-.84.65-2.02-.22-1.61-1.18,2.4-5.72,4.8-11.44,7.2-17.16.27-.65-.19-1.36-.91-1.4-8.02-.38-16.04-.76-24.06-1.14-.56-.03-.99-.48-.99-1.01v-67.89c0-.56.46-1.02,1.04-1.02h72.05c.58,0,1.04.46,1.04,1.02Z"/>
    </g>
    <rect class="cls-1" x="341.12" y="295.5" width="18.49" height="18.04" rx="3.39" ry="3.39"/>
  </g>
</svg>