<?xml version="1.0" encoding="UTF-8"?>
<svg id="Calque_1" data-name="Calque 1" xmlns="http://www.w3.org/2000/svg" viewBox="0 0 612 612">
  <defs>
    <style>
      .cls-1 {
        fill: #e94e1b;
      }

      .cls-1, .cls-2 {
        stroke-width: 0px;
      }

      .cls-2 {
        fill: #fff;
      }
    </style>
  </defs>
  <rect class="cls-1" width="612" height="612"/>
  <g>
    <path class="cls-2" d="m370.72,218.75c4.45-1.14,8.52-.11,12.58,1,5.89,1.6,11.77,3.2,17.66,4.8,3.51.96,4.08,1.85,3.31,5.47-31.06,2.47-62.19,4.95-93.72,7.47.62,8.25,1.37,16.37,2.28,24.59,21.88-1.73,43.48-3.45,65.46-5.19,1.24,10.69,2,21.25,3.08,32.06-20.56,1.64-40.77,3.25-61.37,4.9.75,8.18,1.49,16.15,2.25,24.37,1.64,0,3.17.1,4.68-.02,9.99-.77,19.98-1.57,29.97-2.38,7.06-.57,14.11-1.19,21.16-1.76,1.72-.14,3.46-.16,5.59-.25,1.78,19.11,3.54,38.03,5.33,57.27,8.08-.09,15.9-1.41,23.78-1.56.04.2.07.4.11.6-.75.18-1.49.44-2.25.51-10.51,1.04-21.03,2.03-31.54,3.08-10.51,1.05-21.01,2.18-31.52,3.24-8.96.9-17.93,1.72-26.88,2.61-8.96.89-17.91,1.84-26.87,2.73-7.31.73-14.63,1.4-21.95,2.13-7.31.73-14.61,1.57-21.93,2.22-4.75.42-9.48,1.39-14.29.72-1.9-.26-3.8-.6-5.64-1.09-11.16-3.02-22.3-6.1-33.44-9.17-.44-.12-.88-.24-1.31-.37-2.58-.8-3.07-1.33-3.03-3.72.1-5.45.29-10.9.4-16.34.28-13.75.53-27.49.79-41.24.37-18.95.74-37.9,1.1-56.85.12-6.43.24-12.85.37-19.28.05-2.47.29-2.81,3.08-3.12,5.84-.66,11.69-1.22,17.54-1.82,3.29-.34,6.57-.74,9.87-.97,1.53-.11,2.05-.66,2.16-1.95.28-3.16.5-6.34,1.08-9.46,2.17-11.78,7.04-22.52,15.98-31.65,7.6-7.77,17.23-12.46,28.6-14.03,12.36-1.71,24.2.23,35.17,5.6,2.73,1.34,5.37,1.85,8.4,1.63,14.78-1.06,27.23,3.61,37.92,12.34,5.42,4.42,9.34,9.82,12.4,15.72,1.22,2.35,2.4,4.72,3.66,7.18Zm-119.86,11.98c4.39-.43,8.39-.84,12.4-1.2,4.05-.36,4.16-.43,4.9-3.95.03-.16.06-.32.09-.48,2.56-12.16,8.92-22.46,19.34-30.77.73-.58,1.44-1.17,2.37-1.93-4.67-1.76-9.13-2.08-13.72-1.05-6.25,1.39-10.69,5-14.27,9.47-7.06,8.82-10.08,18.86-11.13,29.91Zm30.33,28.51c3.52-.12,6.87-.8,9.72-2.83,4.52-3.22,4.48-8.02-.08-11.19-5.16-3.59-14.24-3.51-19.31.17-4.31,3.13-4.36,7.7-.09,10.85,2.8,2.07,6.15,2.81,9.76,2.99Zm9.26-23.35c19.72-1.89,39.38-3.85,59.32-5.89-.46-1.81-.82-3.26-1.2-4.73-1.04,0-1.78-.06-2.5,0-5.3.52-10.59,1.07-15.89,1.61-8.95.91-17.9,1.83-26.84,2.75-3.29.34-6.58.64-9.85,1.06-3.09.4-3.65,1.12-3.37,3.94.03.31.16.61.33,1.26Zm14.8-32.02c-7.41,6.24-11.86,13.68-13.81,22.83,6.87-.71,13.37-1.38,19.79-2.04.58-6.18-2.49-17.13-5.98-20.78Zm-38.32,29.46c-18.92,1.77-37.49,3.65-56.04,5.65,3,.58,5.99,1.01,8.96,1.48,5.28.84,10.59,1.07,15.92.61,6.49-.56,12.96-1.24,19.43-1.87,3.72-.36,7.44-.73,11.33-1.12.13-1.55.25-2.96.39-4.75Zm62.88-32.58c-.2.09-.39.18-.59.27,2.06,7.02,4.13,14.04,6.23,21.21,4.05-.41,7.78-.79,11.81-1.2-3.48-8.5-8.4-15.77-17.45-20.27Zm61.01,25.53c-6.27-1.84-12.22-5.19-19.5-3.67.54,1.82,1.04,3.5,1.58,5.29,6.12-.55,12.02-1.09,17.93-1.62Z"/>
    <path class="cls-2" d="m268.21,432.86c-.23,1.03-.38,1.74-.6,2.71-2.42.21-4.85.15-7.25.02-.57-1.87-.73-35.79-.18-39.23,2.71-.4,5.47-.32,8.58-.02v15.08c2.07-.84,3.73-1.75,5.54-2.21,8.35-2.15,16.66,2.59,17.96,10.27.57,3.33.39,6.64-1.35,9.78-4.38,7.92-14.74,8.56-20.65,4.88-.59-.37-1.18-.73-2.05-1.27Zm15.11-10.32c.03-3.88-3.07-6.74-7.28-6.73-4.06.01-7.23,2.83-7.32,6.52-.1,3.79,3.07,6.77,7.24,6.82,4.27.05,7.34-2.71,7.36-6.61Z"/>
    <path class="cls-2" d="m203.61,419.56v15.99h-9.04c-.56-1.82-.73-35.75-.21-38.94,1.96-.6,24.02-.76,27.58-.17.59,2.17.2,4.42.26,6.94-6.06.33-12.01-.03-18.24.22-.54,2.75-.3,5.44-.14,8.47h17.03v7.38c-2.8.23-5.63.08-8.44.11-2.75.03-5.5,0-8.8,0Z"/>
    <path class="cls-2" d="m327.71,436.22c-10.29.29-17.98-7.58-15.77-16.85,1.59-6.65,8.84-11.25,17.09-10.68,10.42.72,16.95,8.99,14.11,17.87-1.8,5.65-7.98,9.92-15.44,9.66Zm6.89-13.76c0-3.7-2.99-6.61-6.82-6.65-3.95-.04-7.11,2.96-7.05,6.72.06,3.75,2.97,6.57,6.84,6.62,4,.05,7.03-2.84,7.02-6.68Z"/>
    <path class="cls-2" d="m226.87,411.58c6.32-2.73,12.51-4.13,19.04-1.69,4.9,1.83,7.3,5.45,7.54,9.99.26,4.95.06,9.91.04,14.87,0,.22-.18.44-.33.79h-7.23c-.24-.62-.5-1.28-.81-2.08-.38.16-.71.25-.97.43-3.83,2.59-8.12,3.01-12.54,1.7-3.79-1.12-6.14-3.51-6.41-7.18-.26-3.54,1.72-6.43,5.49-8.02,3.48-1.47,7.12-1.39,10.8-.73.89.16,1.76.4,2.65.6.28-2.14-.92-3.7-3.48-4.49-3.03-.94-5.98-.56-8.85.57-.75.3-1.46.65-2.48,1.1-.81-1.92-1.56-3.72-2.46-5.86Zm17.53,13.84c-2.45-1.78-5.33-1.85-8.25-1.31-1.6.3-2.66,1.55-2.72,2.74-.07,1.3.97,2.46,2.71,3.01,3.54,1.12,7.41-.91,8.26-4.44Z"/>
    <path class="cls-2" d="m382.52,420.39c-.13-2.57-1.32-3.92-3.86-4.67-2.96-.87-5.81-.47-8.59.6-.75.29-1.46.65-2.55,1.14-.81-1.97-1.57-3.81-2.31-5.59,4.37-3.03,14.37-4.53,20.08-1.48,4.05,2.17,6.16,5.4,6.35,9.44.23,5.03.03,10.07,0,15.11,0,.14-.15.28-.32.59h-7.18c-.23-.55-.5-1.2-.81-1.94-.23.04-.53.02-.69.13-2.71,1.93-5.8,2.66-9.26,2.51-5.52-.24-9.69-3.44-9.98-7.76-.31-4.63,3.44-8.42,9.09-9.08,3.32-.39,6.6-.13,10.03,1Zm.19,5.12c-2.31-1.74-4.93-1.84-7.6-1.55-2.03.22-3.43,1.49-3.49,2.92-.06,1.5,1.47,2.87,3.54,3.18,3.38.51,6.34-1.21,7.55-4.56Z"/>
    <path class="cls-2" d="m395.91,433.35c.67-2.23,1.28-4.24,1.81-6,2.8.88,5.34,1.76,7.94,2.43.91.23,1.99.02,2.98-.12.98-.13,1.68-.64,1.82-1.58.14-.93-.38-1.58-1.24-2-.88-.43-1.81-.78-2.74-1.14-1.77-.69-3.59-1.26-5.3-2.05-2.91-1.34-4.65-3.42-4.51-6.45.14-3.05,1.85-5.23,4.93-6.53,3.94-1.67,8.04-1.53,12.13-.57,1.83.43,3.58,1.13,5.63,1.8-.85,2.15-1.6,4.03-2.45,6.17-.93-.37-1.64-.66-2.36-.94-2.03-.8-4.1-1.43-6.39-1.27-.99.07-1.83.32-2.12,1.25-.29.93.26,1.6,1.12,2.02,1.12.54,2.31.99,3.48,1.46,1.75.72,3.58,1.31,5.24,2.16,5.69,2.91,4.67,9.58.41,12.09-1.2.71-2.58,1.31-3.97,1.61-5.69,1.23-11.09.51-16.41-2.33Z"/>
    <path class="cls-2" d="m348.68,435.63v-40.47c1.58-.05,3.02-.12,4.45-.14,1.46-.02,2.92,0,4.3,0,.78,1.85,1.07,35.48.4,40.55-2.92.24-5.89.11-9.15.06Z"/>
    <path class="cls-2" d="m366.62,251.06c-2.9-.1-6.32-.87-9.25-2.91-4.95-3.44-4.85-8.57.2-11.88,5.07-3.33,13.78-3.48,18.98-.33,5.41,3.27,5.57,8.89.37,12.42-2.44,1.65-6.08,2.68-10.3,2.7Z"/>
    <path class="cls-2" d="m297.92,409.31h8.02c.68,2.02.77,23.66.12,26.23h-8.09c-.57-1.96-.64-23.68-.05-26.23Z"/>
    <path class="cls-2" d="m306.18,399.62c-.02,2.04-1.89,3.71-4.19,3.75-2.38.03-4.38-1.78-4.3-3.91.08-2.04,1.97-3.6,4.35-3.56,2.39.04,4.16,1.63,4.14,3.72Z"/>
  </g>
</svg>