<?xml version="1.0" encoding="UTF-8"?>
<svg id="Calque_1" data-name="Calque 1" xmlns="http://www.w3.org/2000/svg" xmlns:xlink="http://www.w3.org/1999/xlink" viewBox="0 0 612 612">
  <defs>
    <style>
      .cls-1 {
        fill: #7b6a58;
      }

      .cls-1, .cls-2, .cls-3, .cls-4, .cls-5, .cls-6, .cls-7 {
        stroke-width: 0px;
      }

      .cls-2 {
        fill: #2fac66;
      }

      .cls-3 {
        fill: url(#Dégradé_sans_nom_22-2);
      }

      .cls-3, .cls-5 {
        fill-rule: evenodd;
      }

      .cls-4 {
        fill: #fff;
      }

      .cls-5 {
        fill: url(#Dégradé_sans_nom_22);
      }

      .cls-6 {
        fill: url(#Dégradé_sans_nom_14);
      }

      .cls-7 {
        fill: #36a9e1;
      }
    </style>
    <radialGradient id="Dégradé_sans_nom_22" data-name="Dégradé sans nom 22" cx="878.99" cy="2911.22" fx="878.99" fy="2911.22" r="8.2" gradientTransform="translate(-481.82 -1864) scale(.87 .75)" gradientUnits="userSpaceOnUse">
      <stop offset="0" stop-color="#fff"/>
      <stop offset=".43" stop-color="#98bede"/>
      <stop offset=".82" stop-color="#3f86c2"/>
      <stop offset="1" stop-color="#1d71b8"/>
    </radialGradient>
    <radialGradient id="Dégradé_sans_nom_22-2" data-name="Dégradé sans nom 22" cx="912.1" cy="2838.44" fx="912.1" fy="2838.44" r="113.14" xlink:href="#Dégradé_sans_nom_22"/>
    <linearGradient id="Dégradé_sans_nom_14" data-name="Dégradé sans nom 14" x1="221.26" y1="338.74" x2="344.33" y2="338.74" gradientUnits="userSpaceOnUse">
      <stop offset="0" stop-color="#063" stop-opacity=".1"/>
      <stop offset="0" stop-color="#006733" stop-opacity=".11"/>
      <stop offset=".26" stop-color="#117f45" stop-opacity=".43"/>
      <stop offset=".5" stop-color="#1d9253" stop-opacity=".67"/>
      <stop offset=".71" stop-color="#27a05d" stop-opacity=".85"/>
      <stop offset=".88" stop-color="#2ca863" stop-opacity=".96"/>
      <stop offset="1" stop-color="#2fac66"/>
    </linearGradient>
  </defs>
  <rect class="cls-4" width="612" height="612"/>
  <g>
    <g>
      <path class="cls-5" d="m276.88,324.81c4.32-5.04,8.11-9,10.35-11.26-2.23,2.26-6.03,6.22-10.34,11.26-.68.79-1.37,1.6-2.07,2.43.7-.83,1.39-1.65,2.06-2.43Z"/>
      <path class="cls-3" d="m322.97,359.98c1.98-3.3,3.02-6.87,3.51-10.58.79-5.79.27-11.95,0-18.1-.67-14.13-.15-28.19,20.12-37.62,0,0-53.09-11.19-91.92.66-.14-1.01-.24-2.02-.27-3-1.27-32.13,30.01-53.76,42.14-78.86-23.11,28.95-59.32,55.37-56.53,87.94-1.27.68-2.51,1.42-3.71,2.2-4.39,2.85-8.2,6.31-11.28,10.2-1.31-5.45-1.72-11.36-1.08-17.75,5.8-56.99,53.31-61.17,85.82-123.45,32.5,62.28,80.02,66.47,85.8,123.45,4.01,39.42-32.33,61.06-72.61,64.91Z"/>
    </g>
    <path class="cls-6" d="m325.32,329.85c.27,5.65.75,11.31,0,16.62-.47,3.41-1.45,6.68-3.32,9.72-1.73,2.82-4.22,5.45-7.77,7.8-26.76,17.7-60.3,5.78-60.3,5.78,0-7.13,3.07-15.02,7.43-22.65,1.94-3.4,4.16-6.77,6.47-9.97,1.32-1.83,2.66-3.61,4.01-5.32.9-1.14,1.8-2.26,2.69-3.33.67-.81,1.33-1.6,1.99-2.36.66-.77,1.31-1.51,1.94-2.24,4.08-4.63,7.66-8.26,9.78-10.34.32-.32.6-.59.85-.83.74-.72,1.16-1.1,1.16-1.1-3.64,1.21-9.15,4.67-15.35,10.06-.24.21-.48.42-.73.64-.73.64-1.46,1.31-2.2,2.01-2.98,2.78-6.07,5.98-9.17,9.54-2.64,3.05-5.3,6.39-7.89,9.98-4.82,6.68-9.4,14.27-13.26,22.63-2.9,7.5-3.1,14.11-2.9,17.7.08,1.59-2.07,2.64-4.84,2.36-1.36-.14-2.61-.55-3.57-1.14-.95-.58-1.61-1.33-1.76-2.11-.83-4.26-1.46-13.06,3.55-24.27-14.77-14.72-13.36-33.03-2.65-46.13,2.91-3.57,6.51-6.75,10.66-9.36,1.13-.72,2.3-1.4,3.5-2.02,4.28-2.3,8.93-4.13,13.85-5.59,36.68-10.88,86.83-.6,86.83-.6-19.15,8.66-19.64,21.57-19.01,34.55Z"/>
    <g>
      <path class="cls-2" d="m242.4,440.39l-8.61-24.69h4.79l6.22,19.2,6.53-19.2h4.75l6.49,19.18,6.22-19.18h4.65l-8.57,24.69h-4.83l-6.38-18.74-6.44,18.74h-4.81Z"/>
      <path class="cls-2" d="m274.83,440.39l11.1-24.69h4.96l11.38,24.69h-5.16l-2.63-5.89h-12.09l-2.53,5.89h-5.02Zm8.73-9.29h9.69l-4.94-10.74-4.75,10.74Z"/>
      <path class="cls-2" d="m311.82,440.39v-21.05h-8.04v-3.63h20.64v3.63h-8.04v21.05h-4.57Z"/>
      <path class="cls-2" d="m329.24,440.39v-24.69h18.46v3.49h-13.89v6.67h11.99v3.3h-11.99v7.71h14.01v3.53h-18.58Z"/>
      <path class="cls-2" d="m354.23,440.39v-24.69h10.79c1.98,0,3.7.3,5.15.89,1.45.59,2.57,1.44,3.36,2.53.8,1.09,1.19,2.39,1.19,3.9,0,1.22-.3,2.3-.91,3.24-.61.94-1.45,1.71-2.54,2.32-1.09.61-2.35,1.02-3.77,1.24l8.61,10.56h-5.53l-7.89-9.94h-3.9v9.94h-4.57Zm4.57-13.24h5.47c1.85,0,3.29-.34,4.31-1.02,1.03-.68,1.54-1.66,1.54-2.93s-.46-2.32-1.39-3.04c-.92-.72-2.3-1.08-4.14-1.08h-5.79v8.08Z"/>
    </g>
    <g>
      <path class="cls-7" d="m268.3,405.55c-1.59,0-3.07-.21-4.42-.63-1.36-.42-2.54-1.03-3.56-1.81-1.02-.79-1.81-1.74-2.37-2.84-.56-1.11-.84-2.35-.84-3.73s.27-2.61.82-3.72c.54-1.11,1.31-2.06,2.28-2.86.98-.8,2.13-1.41,3.45-1.84,1.32-.43,2.77-.64,4.33-.64.73,0,1.46.05,2.21.15.74.1,1.48.26,2.2.5.72.23,1.41.54,2.05.93l-1.4,2.18c-.73-.4-1.51-.71-2.36-.9-.84-.2-1.72-.3-2.61-.3-1.16,0-2.22.15-3.16.45-.95.3-1.75.73-2.42,1.3-.67.57-1.18,1.25-1.54,2.05-.36.8-.54,1.7-.54,2.71,0,1.39.34,2.58,1.03,3.57.69.98,1.63,1.73,2.84,2.23,1.21.51,2.6.76,4.17.76.77,0,1.47-.06,2.09-.19.62-.13,1.12-.27,1.5-.44v-4.18h-4.55v-2.3h7.43v8.1c-.53.31-1.18.57-1.97.79-.79.22-1.6.39-2.43.51s-1.58.17-2.23.17Z"/>
      <path class="cls-7" d="m279.85,405.18v-17.33h7.58c1.39,0,2.6.21,3.62.63,1.02.42,1.8,1.01,2.36,1.78.56.77.84,1.68.84,2.74,0,.86-.21,1.62-.64,2.28-.43.66-1.02,1.2-1.78,1.63s-1.65.72-2.65.87l6.04,7.42h-3.88l-5.54-6.98h-2.73v6.98h-3.21Zm3.21-9.3h3.84c1.3,0,2.31-.24,3.03-.72.72-.48,1.08-1.16,1.08-2.06s-.32-1.63-.97-2.14-1.62-.76-2.91-.76h-4.07v5.67Z"/>
      <path class="cls-7" d="m298.88,405.18v-17.33h12.96v2.45h-9.75v4.68h8.42v2.31h-8.42v5.41h9.84v2.48h-13.05Z"/>
      <path class="cls-7" d="m316.42,405.18v-17.33h12.96v2.45h-9.75v4.68h8.42v2.31h-8.42v5.41h9.84v2.48h-13.05Z"/>
      <path class="cls-7" d="m333.96,405.18v-17.33h3.06l10.12,12.59v-12.59h3.12v17.33h-3.06l-10.11-12.74v12.74h-3.14Z"/>
    </g>
  </g>
  <path class="cls-1" d="m306.4,223.11s-.03,0-.05-.01c.12-.03.23-.06.35-.09.03,0,.05.01.07.02-.11.03-.22.06-.33.09h-.03Z"/>
  <path class="cls-1" d="m306.4,223.11s-.03,0-.05-.01c.12-.03.23-.06.35-.09.03,0,.05.01.07.02-.11.03-.22.06-.33.09h-.03Z"/>
  <path class="cls-1" d="m306.76,223.02c-.11.03-.22.06-.33.09h-.03s-.03-.01-.05-.02c.12-.03.23-.06.35-.09.03,0,.05.01.07.02Z"/>
</svg>