<?xml version="1.0" encoding="UTF-8"?>
<svg id="Calque_1" data-name="Calque 1" xmlns="http://www.w3.org/2000/svg" xmlns:xlink="http://www.w3.org/1999/xlink" viewBox="0 0 612 612">
  <defs>
    <style>
      .cls-1 {
        fill: url(#linear-gradient);
      }

      .cls-1, .cls-2, .cls-3, .cls-4, .cls-5, .cls-6, .cls-7, .cls-8, .cls-9, .cls-10 {
        stroke-width: 0px;
      }

      .cls-2 {
        fill: url(#Dégradé_sans_nom_26-2);
      }

      .cls-3 {
        fill: url(#Dégradé_sans_nom_26-3);
      }

      .cls-4 {
        fill: url(#Dégradé_sans_nom_26);
      }

      .cls-5 {
        fill: url(#Dégradé_sans_nom_26-4);
      }

      .cls-6 {
        fill: url(#Dégradé_sans_nom_26-7);
      }

      .cls-7 {
        fill: #fff;
      }

      .cls-8 {
        fill: url(#Dégradé_sans_nom_26-5);
      }

      .cls-9 {
        fill: url(#Dégradé_sans_nom_26-8);
      }

      .cls-10 {
        fill: url(#Dégradé_sans_nom_26-6);
      }
    </style>
    <linearGradient id="Dégradé_sans_nom_26" data-name="Dégradé sans nom 26" x1="158.86" y1="443.48" x2="187.9" y2="443.48" gradientUnits="userSpaceOnUse">
      <stop offset="0" stop-color="#203b8f"/>
      <stop offset=".94" stop-color="#263c90"/>
      <stop offset=".96" stop-color="#263c90"/>
    </linearGradient>
    <linearGradient id="Dégradé_sans_nom_26-2" data-name="Dégradé sans nom 26" x1="198.82" y1="450.14" x2="230.54" y2="450.14" xlink:href="#Dégradé_sans_nom_26"/>
    <linearGradient id="Dégradé_sans_nom_26-3" data-name="Dégradé sans nom 26" x1="243.59" y1="450.17" x2="264.11" y2="450.17" xlink:href="#Dégradé_sans_nom_26"/>
    <linearGradient id="Dégradé_sans_nom_26-4" data-name="Dégradé sans nom 26" x1="268.97" x2="301.35" xlink:href="#Dégradé_sans_nom_26"/>
    <linearGradient id="Dégradé_sans_nom_26-5" data-name="Dégradé sans nom 26" x1="315.14" y1="456.4" x2="347.52" y2="456.4" xlink:href="#Dégradé_sans_nom_26"/>
    <linearGradient id="Dégradé_sans_nom_26-6" data-name="Dégradé sans nom 26" x1="357.57" y1="450.24" x2="389.42" y2="450.24" xlink:href="#Dégradé_sans_nom_26"/>
    <linearGradient id="Dégradé_sans_nom_26-7" data-name="Dégradé sans nom 26" x1="399.41" y1="450.17" x2="419.93" y2="450.17" xlink:href="#Dégradé_sans_nom_26"/>
    <linearGradient id="Dégradé_sans_nom_26-8" data-name="Dégradé sans nom 26" x1="425.26" x2="443.65" xlink:href="#Dégradé_sans_nom_26"/>
    <linearGradient id="linear-gradient" x1="217.74" y1="264.77" x2="419.03" y2="264.77" gradientUnits="userSpaceOnUse">
      <stop offset="0" stop-color="#203b8f"/>
      <stop offset="1" stop-color="#715fa6"/>
    </linearGradient>
  </defs>
  <rect class="cls-7" width="612" height="612"/>
  <g>
    <g>
      <path class="cls-4" d="m166.25,463.13c0,2.07-1.67,3.66-3.73,3.66-1.67,0-3.06-1.2-3.53-2.73-.07-.27-.13-.6-.13-.93v-39.31c0-2.07,1.67-3.66,3.66-3.66s3.73,1.6,3.73,3.66v11.59c2.13-1.13,4.53-1.93,7.13-1.93,8.06,0,14.52,6.59,14.52,14.59v15.06c0,2.07-1.6,3.66-3.66,3.66s-3.66-1.6-3.66-3.66v-15.06c0-3.93-3.2-7.13-7.19-7.2-3.93.07-7.06,3.26-7.13,7.2v15.06Z"/>
      <path class="cls-2" d="m230.54,450.21v13.06c0,1.93-1.6,3.53-3.53,3.53-1.73,0-3.06-1.27-3.46-2.86-2.53,1.8-5.53,2.86-8.86,2.86-4.53,0-8.46-1.87-11.33-4.86-2.86-3.06-4.53-7.2-4.53-11.72s1.67-8.73,4.53-11.73c2.86-3.06,6.8-5,11.33-5,3.33,0,6.33,1.13,8.86,2.93.4-1.67,1.73-2.93,3.46-2.93,1.93,0,3.53,1.6,3.53,3.6v13.12Zm-7.06,0c0-2.8-1-5.2-2.6-6.86-1.6-1.8-3.86-2.73-6.2-2.73s-4.66.93-6.2,2.73c-1.6,1.67-2.53,4.06-2.53,6.86s.93,5.13,2.53,6.86c1.53,1.67,3.8,2.6,6.2,2.6s4.6-.93,6.2-2.6c1.6-1.73,2.6-4.13,2.6-6.86Z"/>
      <path class="cls-3" d="m264.11,437.01c0,1.87-1.53,3.53-3.53,3.53-1.53,0-2.86.4-4,1.27-1.27.8-2.27,1.93-3.06,3.2-1.6,2.13-2.4,4.66-2.73,5.6v12.66c0,1.93-1.67,3.53-3.66,3.53s-3.53-1.6-3.53-3.53v-26.25c0-1.93,1.6-3.46,3.53-3.46s3.66,1.53,3.66,3.46v.47c.4-.47.93-1,1.4-1.33,2.2-1.46,5.06-2.66,8.39-2.6,2,0,3.53,1.53,3.53,3.46Z"/>
      <path class="cls-5" d="m301.35,463.2c0,1.93-1.6,3.6-3.6,3.6-1.8,0-3.2-1.27-3.53-2.86-2.53,1.73-5.73,2.86-9.06,2.86-8.99,0-16.19-7.59-16.19-16.59s7.2-16.72,16.19-16.72c3.26,0,6.46,1.07,8.93,2.8v-12.52c0-1.93,1.6-3.6,3.66-3.6s3.6,1.67,3.6,3.6v39.44Zm-16.19-22.45c-2.4,0-4.6,1-6.26,2.73-1.67,1.67-2.67,4.06-2.67,6.73s1,4.93,2.67,6.59c1.67,1.73,3.86,2.73,6.26,2.73s4.6-1,6.26-2.73c1.67-1.67,2.67-4.06,2.67-6.59,0-2.67-1-5.06-2.67-6.73-1.67-1.73-3.8-2.73-6.26-2.73Z"/>
      <path class="cls-8" d="m315.14,475.72v-38.71c0-1.93,1.6-3.53,3.53-3.53s3.4,1.27,3.66,2.73c2.46-1.6,5.66-2.73,9.06-2.73,8.86,0,16.12,7.59,16.12,16.72s-7.26,16.52-16.12,16.52c-3.33,0-6.53-1-8.93-2.73v11.72c0,1.87-1.67,3.6-3.8,3.6-1.93,0-3.53-1.73-3.53-3.6Zm7.33-25.51c0,2.6.87,5.13,2.6,6.66,1.67,1.87,3.86,2.8,6.33,2.8,2.26,0,4.53-.93,6.26-2.8,1.53-1.53,2.6-4.06,2.6-6.66s-1.07-5-2.6-6.73c-1.73-1.8-4-2.73-6.26-2.73-2.46,0-4.66.93-6.33,2.73-1.73,1.73-2.6,4.13-2.6,6.73Z"/>
      <path class="cls-10" d="m362.17,461.93c-2.86-2.93-4.6-7.06-4.6-11.72s1.73-8.46,4.6-11.66c3-3.13,6.86-5.06,11.46-5.06s8.39,1.93,11.13,5.06c3,3.2,4.66,7.13,4.66,11.66s-1.67,8.79-4.66,11.72c-2.73,3.13-6.73,5.06-11.13,5.06s-8.46-1.93-11.46-5.06Zm2.67-11.72c0,2.86.87,5.2,2.4,7.06,1.67,1.6,3.86,2.46,6.4,2.46,2.33,0,4.46-.87,6.13-2.46,1.67-1.87,2.6-4.2,2.6-7.06s-.93-5.13-2.6-6.93c-1.67-1.47-3.8-2.53-6.13-2.53-2.53,0-4.73,1.07-6.4,2.53-1.53,1.8-2.4,4.2-2.4,6.93Z"/>
      <path class="cls-6" d="m419.93,437.01c0,1.87-1.53,3.53-3.53,3.53-1.53,0-2.86.4-4,1.27-1.27.8-2.26,1.93-3.06,3.2-1.6,2.13-2.4,4.66-2.73,5.6v12.66c0,1.93-1.67,3.53-3.66,3.53s-3.53-1.6-3.53-3.53v-26.25c0-1.93,1.6-3.46,3.53-3.46s3.66,1.53,3.66,3.46v.47c.4-.47.93-1,1.4-1.33,2.2-1.46,5.06-2.66,8.39-2.6,2,0,3.53,1.53,3.53,3.46Z"/>
      <path class="cls-9" d="m443.65,437.15c0,2-1.73,3.66-3.73,3.66h-1.67v18.59c2.07,0,3.66,1.67,3.66,3.73s-1.6,3.66-3.66,3.66c-4.06,0-7.39-3.33-7.39-7.39v-18.59h-1.93c-2.07,0-3.66-1.67-3.66-3.66s1.6-3.66,3.66-3.66h1.93v-9.66c0-2.07,1.67-3.66,3.73-3.66s3.66,1.6,3.66,3.66v9.66h1.67c2,0,3.73,1.6,3.73,3.66Z"/>
    </g>
    <path class="cls-1" d="m385.73,138.41c-.82-.4-1.66-.78-2.51-1.13-7-2.96-14.71-4.59-22.79-4.59s-15.99,1.68-23.06,4.72c-.24.1-.48.2-.71.31-.24.11-.49.21-.73.33-.12.06-.23.11-.36.17-.23.11-.48.22-.71.34-.24.11-.48.23-.71.35-16.96,8.52-29.2,25.04-31.79,44.61v110.94c-.82-.4-1.66-.78-2.51-1.14-7.12-3.05-14.96-4.74-23.2-4.74s-16.11,1.7-23.24,4.76c-.85.36-1.69.74-2.51,1.14-19.63,9.56-33.17,29.7-33.17,53.01,0,7.66,1.46,14.98,4.12,21.68-2.44,2.92-3.9,6.69-3.9,10.8,0,9.33,7.56,16.9,16.89,16.9,2.6,0,5.07-.59,7.28-1.64,4.15-1.98,7.36-5.6,8.79-10.02v-11.54c-2.29-4.17-3.59-8.97-3.59-14.06s1.3-9.88,3.59-14.06c.73-1.34,1.57-2.63,2.51-3.83,5.35-6.96,13.77-11.43,23.22-11.43s17.86,4.47,23.22,11.43c.94,1.2,1.78,2.49,2.51,3.83,2.29,4.17,3.59,8.97,3.59,14.06s-1.3,9.88-3.59,14.06v10.56c1.24,4.81,4.55,8.78,8.92,10.93,2.24,1.1,4.76,1.71,7.43,1.71,7.6,0,14.02-5.02,16.14-11.93v-9.93c-.69-2.25-1.83-4.3-3.34-6.04,1.54-3.93,2.67-8.05,3.34-12.34v-112.63c.23.12.48.23.71.34.12.06.23.11.36.17.24.11.49.22.73.33.23.11.47.21.71.31,7.08,3.04,14.88,4.72,23.06,4.72s15.78-1.64,22.79-4.59c.85-.36,1.69-.73,2.51-1.13.49-.23.97-.48,1.46-.73,4.95-2.55,9.49-5.78,13.5-9.57,3.97-3.75,7.41-8.06,10.2-12.79.58-.97,1.12-1.95,1.64-2.95.43-.82.83-1.66,1.22-2.51,1.05-2.29,1.95-4.67,2.7-7.1,1.67-5.44,2.57-11.22,2.57-17.21,0-23.3-13.6-43.42-33.3-52.86Zm-2.18,53.01c0,1.13-.09,2.24-.26,3.33-1.68,11.51-11.59,20.35-23.57,20.35-12.81,0-23.26-10.12-23.79-22.81-.01-.33-.02-.68-.02-1.02s0-.68.02-1.02c.53-12.69,10.98-22.8,23.79-22.8s23.82,10.66,23.82,23.82v.15Z"/>
  </g>
</svg>