<?xml version="1.0" encoding="UTF-8"?>
<svg id="Calque_1" data-name="Calque 1" xmlns="http://www.w3.org/2000/svg" xmlns:xlink="http://www.w3.org/1999/xlink" viewBox="0 0 612 612">
  <defs>
    <style>
      .cls-1 {
        fill: url(#linear-gradient);
      }

      .cls-1, .cls-2 {
        stroke-width: 0px;
      }

      .cls-2, .cls-3 {
        fill: #fff;
      }

      .cls-4 {
        letter-spacing: -.02em;
      }

      .cls-5 {
        letter-spacing: -.02em;
      }

      .cls-3 {
        font-family: QuicksandBold-Regular, Quicksand;
        font-size: 66.62px;
      }

      .cls-6 {
        letter-spacing: .04em;
      }
    </style>
    <linearGradient id="linear-gradient" x1="0" y1="306" x2="612" y2="306" gradientUnits="userSpaceOnUse">
      <stop offset="0" stop-color="#203b8f"/>
      <stop offset="1" stop-color="#715fa6"/>
    </linearGradient>
  </defs>
  <rect class="cls-1" x="0" width="612" height="612"/>
  <g>
    <text class="cls-3" transform="translate(158.27 471.82)"><tspan class="cls-6" x="0" y="0">h</tspan><tspan x="43.5" y="0">a</tspan><tspan class="cls-5" x="84.74" y="0">r</tspan><tspan x="112.32" y="0">dp</tspan><tspan class="cls-4" x="200.25" y="0">o</tspan><tspan x="240.56" y="0">rt</tspan></text>
    <path class="cls-2" d="m382.35,138.43c-.82-.4-1.66-.78-2.51-1.13-7-2.96-14.71-4.59-22.79-4.59s-15.99,1.68-23.06,4.72c-.24.1-.48.2-.71.31-.24.11-.49.21-.73.33-.12.06-.23.11-.36.17-.23.11-.48.22-.71.34-.24.11-.48.23-.71.35-16.96,8.52-29.2,25.04-31.79,44.61v110.94c-.82-.4-1.66-.78-2.51-1.14-7.12-3.05-14.96-4.74-23.2-4.74s-16.11,1.7-23.24,4.76c-.85.36-1.69.74-2.51,1.14-19.63,9.56-33.17,29.7-33.17,53.01,0,7.66,1.46,14.98,4.12,21.68-2.44,2.92-3.9,6.69-3.9,10.8,0,9.33,7.56,16.9,16.89,16.9,2.6,0,5.07-.59,7.28-1.64,4.15-1.98,7.36-5.6,8.79-10.02v-11.54c-2.29-4.17-3.59-8.97-3.59-14.06s1.3-9.88,3.59-14.06c.73-1.34,1.57-2.63,2.51-3.83,5.35-6.96,13.77-11.43,23.22-11.43s17.86,4.47,23.22,11.43c.94,1.2,1.78,2.49,2.51,3.83,2.29,4.17,3.59,8.97,3.59,14.06s-1.3,9.88-3.59,14.06v10.56c1.24,4.81,4.55,8.78,8.92,10.93,2.24,1.1,4.76,1.71,7.43,1.71,7.6,0,14.02-5.02,16.14-11.93v-9.93c-.69-2.25-1.83-4.3-3.34-6.04,1.54-3.93,2.67-8.05,3.34-12.34v-112.63c.23.12.48.23.71.34.12.06.23.11.36.17.24.11.49.22.73.33.23.11.47.21.71.31,7.08,3.04,14.88,4.72,23.06,4.72s15.78-1.64,22.79-4.59c.85-.36,1.69-.73,2.51-1.13.49-.23.97-.48,1.46-.73,4.95-2.55,9.49-5.78,13.5-9.57,3.97-3.75,7.41-8.06,10.2-12.79.58-.97,1.12-1.95,1.64-2.95.43-.82.83-1.66,1.22-2.51,1.05-2.29,1.95-4.67,2.7-7.1,1.67-5.44,2.57-11.22,2.57-17.21,0-23.3-13.6-43.42-33.3-52.86Zm-2.18,53.01c0,1.13-.09,2.24-.26,3.33-1.68,11.51-11.59,20.35-23.57,20.35-12.81,0-23.26-10.12-23.79-22.81-.01-.33-.02-.68-.02-1.02s0-.68.02-1.02c.53-12.69,10.98-22.8,23.79-22.8s23.82,10.66,23.82,23.82v.15Z"/>
  </g>
</svg>