<?xml version="1.0" encoding="UTF-8"?>
<svg id="Calque_1" data-name="Calque 1" xmlns="http://www.w3.org/2000/svg" xmlns:xlink="http://www.w3.org/1999/xlink" viewBox="0 0 612 612">
  <defs>
    <style>
      .cls-1 {
        fill: #fff;
      }

      .cls-1, .cls-2 {
        stroke-width: 0px;
      }

      .cls-2 {
        fill: url(#Degradado_sin_nombre_6);
      }
    </style>
    <linearGradient id="Degradado_sin_nombre_6" data-name="Degradado sin nombre 6" x1="0" y1="306" x2="612" y2="306" gradientUnits="userSpaceOnUse">
      <stop offset="0" stop-color="#2453a1"/>
      <stop offset="1" stop-color="#00a7ae"/>
    </linearGradient>
  </defs>
  <rect class="cls-2" width="612" height="612"/>
  <g>
    <path class="cls-1" d="m397.51,203.71c-1.18-6.54-3.44-12.71-6.8-18.5-3.35-5.78-7.75-10.71-13.19-14.75v-.17c-1.41-1.1-2.83-2.03-4.24-2.79-3.8-2.41-7.85-4.25-12.15-5.52-4.3-1.27-8.66-2.02-13.07-2.25-4.41-.24-8.8.1-13.16,1.01-4.36.91-8.57,2.34-12.6,4.29-4.15,2.05-7.92,4.6-11.31,7.64-3.39,3.03-6.34,6.43-8.86,10.18-2.52,3.76-4.56,7.81-6.09,12.15-.22.6-.42,1.21-.61,1.82-1.25-4.02-2.95-7.89-5.1-11.59-3.35-5.79-7.75-10.71-13.19-14.76v-.17c-1.41-1.09-2.83-2.03-4.24-2.79-3.8-2.42-7.85-4.25-12.15-5.52-4.3-1.27-8.66-2.02-13.07-2.25-4.41-.24-8.8.1-13.16,1.02-4.36.9-8.57,2.34-12.6,4.28-4.15,2.05-7.92,4.6-11.31,7.64-3.39,3.03-6.34,6.43-8.86,10.18-2.52,3.75-4.56,7.8-6.09,12.15-1.55,4.35-2.48,8.82-2.83,13.39-.58,8.82,1,17.33,4.72,25.51,3.73,8.18,9.18,14.96,16.36,20.32,4.45,3.29,9.32,5.84,14.6,7.65,5.28,1.82,10.7,2.74,16.25,2.75,6.97.14,13.7-1.12,20.19-3.76,4.2-1.71,8.08-3.9,11.63-6.56-3.44,5.89-8.01,10.83-13.7,14.82-6.16,4.43-13.25,7.36-21.29,8.78-4.24.58-8.62.61-13.14.1-1.87-.09-3.62-.31-5.24-.68-1.63-.38-3.34-.42-5.11-.14-3.76.69-6.88,2.51-9.34,5.46-2.47,2.95-3.71,6.31-3.72,10.08.03,3.61,1.23,6.84,3.58,9.69,2.35,2.85,5.24,4.67,8.66,5.44,7.82,1.79,15.68,2.28,23.57,1.51,7.89-.78,15.51-2.6,22.84-5.48,7.34-2.87,14.15-6.77,20.41-11.68,6.26-4.92,11.67-10.62,16.25-17.13l35.56,33.56c.83.87,1.71,1.67,2.67,2.41.94.73,1.84,1.53,2.67,2.4,2.4,2.26,5.2,3.68,8.42,4.24,3.22.56,6.27.14,9.16-1.26,3.85-1.87,6.49-4.78,7.9-8.74,1.42-3.96,1.35-7.84-.18-11.62-.68-1.53-1.6-2.94-2.76-4.23-1.16-1.3-2.39-2.51-3.67-3.66-5.5-5.2-11.05-10.41-16.63-15.62-3.34-3.12-6.67-6.24-9.98-9.35,3.8.92,7.68,1.39,11.62,1.4,6.97.13,13.7-1.12,20.19-3.77,6.49-2.64,12.2-6.41,17.12-11.3,6.13-5.96,10.5-13.01,13.15-21.11,2.65-8.1,3.27-16.36,1.89-24.75Zm-69.31-18.95c-1.02.54-2.03,1.1-3.02,1.7.98-.66,1.99-1.23,3.02-1.7Zm-100.37,0c-1.02.54-2.03,1.11-3.01,1.7.98-.65,1.98-1.21,3.01-1.7Zm48.67,35.71c-1.11,4.36-3.08,8.27-5.92,11.75-2.85,3.47-6.24,6.29-10.17,8.46-3.06,1.73-6.6,2.91-10.63,3.55-4.04.53-8.01.32-11.93-.62-3.92-.94-7.56-2.56-10.93-4.86-2.93-2.08-5.48-4.6-7.65-7.54-2.17-2.95-3.8-6.17-4.87-9.66-1.18-3.6-1.69-7.3-1.51-11.11.18-3.81,1.03-7.46,2.58-10.94,1.53-3.38,3.53-6.42,6-9.14,2.3-2.54,4.9-4.64,7.81-6.31-.47.24-.94.47-1.43.7.67-.36,1.36-.71,2.05-1.06-.21.11-.42.23-.62.36.54-.27,1.08-.56,1.6-.85,3.93-2.05,8.18-3.18,12.76-3.38,5.88-.31,11.43.9,16.65,3.65,5.22,2.74,9.4,6.57,12.55,11.48,2.38,3.83,3.89,7.97,4.53,12.44.63,4.47.34,8.82-.86,13.07Zm100.36,0c-1.1,4.35-3.08,8.26-5.93,11.75-2.85,3.47-6.24,6.29-10.17,8.46-3.05,1.73-6.6,2.91-10.63,3.55-4.04.53-8.01.32-11.93-.62-3.92-.94-7.56-2.56-10.93-4.86-2.93-2.08-5.48-4.6-7.65-7.54-2.17-2.95-3.79-6.17-4.87-9.66-1.19-3.6-1.69-7.3-1.51-11.11.18-3.82,1.03-7.46,2.58-10.95,1.54-3.37,3.53-6.41,6-9.13,2.3-2.54,4.9-4.64,7.81-6.31-.46.24-.94.47-1.43.7.67-.36,1.36-.71,2.05-1.06-.21.11-.42.23-.62.36.54-.27,1.08-.56,1.61-.85,3.92-2.06,8.18-3.19,12.75-3.39,5.88-.3,11.43.91,16.65,3.66,5.22,2.74,9.4,6.57,12.55,11.48,2.38,3.82,3.89,7.97,4.53,12.43.63,4.47.34,8.83-.86,13.08Z"/>
    <g>
      <g>
        <path class="cls-1" d="m116.85,371.11c0,.85-.27,1.63-.82,2.34-.55.71-1.25,1.17-2.1,1.37-.89.2-1.76.09-2.59-.33-.83-.43-1.43-1.07-1.8-1.92-.16-.41-.24-.81-.24-1.22s-.04-.83-.12-1.28c-.12-1.1-.37-2.13-.73-3.1-.77-1.83-1.85-3.35-3.23-4.56-1.7-1.54-3.71-2.5-6.02-2.86-.57-.12-1.13-.18-1.67-.18h-5.08c-.16,0-.24.04-.24.12v10.83c0,.41-.01.8-.03,1.19-.02.39-.13.76-.33,1.13-.37.81-.95,1.43-1.76,1.86-.81.43-1.66.54-2.56.33-.85-.2-1.55-.65-2.1-1.34-.55-.69-.82-1.48-.82-2.37v-27.14c0-.77-.01-1.53-.03-2.28-.02-.75-.01-1.51.03-2.28,0-.89.3-1.68.91-2.37.61-.69,1.34-1.12,2.19-1.28,1.05-.16,2.03.09,2.92.76.89.67,1.4,1.53,1.52,2.59.08.41.11.81.09,1.22-.02.41-.03.81-.03,1.22v10.19s.1.03.3.03h3.47s.15.01.33.03c.18.02.29.01.33-.03l.55-.91c.28-.49.57-.97.85-1.46.28-.49.57-.97.85-1.46.93-1.58,1.87-3.17,2.8-4.78.93-1.6,1.87-3.19,2.8-4.78.2-.37.43-.72.67-1.07.24-.34.53-.64.85-.88.81-.57,1.72-.79,2.74-.67,1.01.12,1.85.59,2.5,1.4.49.61.75,1.31.79,2.1.04.79-.14,1.53-.55,2.22-.16.24-.3.5-.43.76-.12.26-.26.52-.43.76l-6.02,10.22c1.78.73,3.43,1.7,4.93,2.92,1.5,1.22,2.79,2.62,3.86,4.2,1.07,1.58,1.92,3.29,2.53,5.11s.91,3.71.91,5.66Z"/>
        <path class="cls-1" d="m141.8,335.7c2.72,0,5.26.52,7.64,1.55,2.37,1.03,4.44,2.43,6.21,4.2,1.77,1.76,3.16,3.84,4.2,6.24,1.03,2.39,1.55,4.93,1.55,7.61v15.82c0,1.06-.37,1.95-1.1,2.68s-1.62,1.1-2.68,1.1-1.96-.37-2.71-1.1c-.75-.73-1.13-1.62-1.13-2.68v-7.3h-11.99v-.06c-.12.04-.35.06-.67.06-1.34,0-2.62.2-3.83.61-1.22.41-2.32.97-3.32,1.7-.99.73-1.86,1.6-2.59,2.62-.73,1.01-1.28,2.13-1.64,3.35-.04.04-.06.08-.06.12s-.02.08-.06.12c-.24.77-.69,1.39-1.34,1.86-.65.47-1.4.7-2.25.7-1.06,0-1.95-.37-2.68-1.1s-1.1-1.62-1.1-2.68v-15.82c0-2.39.41-4.64,1.22-6.76.97-2.6,2.43-4.91,4.38-6.94,1.83-1.83,3.93-3.27,6.3-4.32,2.37-1.05,4.92-1.58,7.64-1.58Zm11.99,20.51v-.91c0-2.11-.51-4.06-1.52-5.84,0-.04-.01-.07-.03-.09-.02-.02-.03-.05-.03-.09-.16-.24-.33-.49-.49-.73-.16-.24-.33-.47-.49-.67-1.1-1.42-2.46-2.54-4.08-3.35-1.62-.81-3.41-1.22-5.36-1.22s-3.74.44-5.39,1.31c-1.64.87-3.01,2.02-4.11,3.44-.77,1.01-1.37,2.13-1.8,3.35s-.64,2.52-.64,3.89v4.5c1.58-1.14,3.33-2.02,5.23-2.65,1.91-.63,3.91-.94,6.02-.94h12.66Z"/>
        <path class="cls-1" d="m202.71,335.76c1.05,0,1.95.37,2.68,1.1.73.73,1.1,1.62,1.1,2.68v3.89c-.04,1.3-.18,2.56-.43,3.77-.24,1.22-.63,2.41-1.16,3.59-.97,2.27-2.35,4.34-4.14,6.21-.93.89-1.91,1.69-2.92,2.4-1.01.71-2.11,1.31-3.29,1.8-.65.24-1.29.47-1.92.67-.63.2-1.29.36-1.98.49v8.82c0,1.06-.37,1.94-1.1,2.65-.73.71-1.62,1.07-2.68,1.07s-1.89-.35-2.62-1.07c-.73-.71-1.1-1.59-1.1-2.65v-8.82c-.69-.12-1.35-.28-1.98-.49-.63-.2-1.27-.43-1.92-.67-1.18-.49-2.27-1.08-3.29-1.8-1.01-.71-1.99-1.51-2.92-2.4-1.79-1.83-3.19-3.9-4.2-6.21-.93-2.31-1.44-4.77-1.52-7.36v-3.89c0-1.05.37-1.95,1.1-2.68s1.62-1.1,2.68-1.1,1.94.37,2.65,1.1,1.07,1.62,1.07,2.68v3.65c0,1.66.31,3.23.94,4.69.63,1.46,1.49,2.74,2.59,3.83,1.1,1.1,2.37,1.96,3.83,2.59,1.46.63,3.02.94,4.69.94s3.23-.31,4.72-.94c1.48-.63,2.77-1.49,3.86-2.59s1.96-2.37,2.59-3.83c.63-1.46.94-3.02.94-4.69v-3.65c0-1.05.35-1.95,1.06-2.68s1.59-1.1,2.65-1.1Z"/>
        <path class="cls-1" d="m239.9,363.23c0,1.58-.3,3.08-.91,4.49-.6,1.42-1.42,2.65-2.44,3.7-1.03,1.05-2.25,1.89-3.66,2.52-1.41.63-2.91.94-4.49.94h-16.8c-1.06,0-1.96-.37-2.71-1.12-.75-.74-1.13-1.64-1.13-2.69s.38-1.94,1.13-2.69c.75-.74,1.65-1.12,2.71-1.12h16.67c1.1,0,2.04-.4,2.83-1.2.79-.8,1.19-1.75,1.19-2.85s-.4-2.11-1.19-2.91c-.79-.8-1.73-1.2-2.83-1.2h-7.91c-1.62,0-3.14-.3-4.56-.91-1.42-.61-2.66-1.44-3.71-2.5-1.06-1.05-1.89-2.29-2.5-3.71-.61-1.42-.91-2.94-.91-4.56s.3-3.14.91-4.56c.61-1.42,1.44-2.66,2.5-3.71,1.05-1.05,2.28-1.9,3.68-2.53,1.4-.63,2.91-.94,4.53-.94h7.73c1.05,0,1.96.37,2.71,1.12.75.74,1.13,1.64,1.13,2.69s-.38,1.94-1.13,2.69c-.75.74-1.66,1.12-2.72,1.12h-7.76c-1.1.04-2.04.45-2.81,1.24-.77.78-1.16,1.75-1.16,2.9s.38,2.07,1.16,2.87c.77.8,1.72,1.2,2.86,1.2h7.91c1.62,0,3.14.31,4.56.94,1.42.63,2.66,1.47,3.71,2.52,1.05,1.05,1.89,2.29,2.49,3.7.61,1.42.91,2.93.91,4.55Z"/>
      </g>
      <g>
        <path class="cls-1" d="m276.6,335.93c3.12-.53,6.2-.3,9.22.67,3.02.97,5.65,2.6,7.88,4.87,1.83,1.83,3.23,3.95,4.23,6.36.99,2.41,1.47,4.92,1.43,7.52,0,2.07-.33,4.09-1,6.06-.67,1.97-1.61,3.78-2.83,5.45-1.99,2.68-4.5,4.72-7.55,6.12-3.04,1.4-6.21,2-9.49,1.8-1.7-.12-3.37-.47-4.99-1.03-1.62-.57-3.13-1.32-4.53-2.25-1.4-.93-2.67-2.03-3.8-3.29-1.14-1.26-2.09-2.66-2.86-4.2-.73-1.5-1.27-3.06-1.61-4.69-.35-1.62-.48-3.26-.4-4.9.08-1.64.35-3.27.82-4.87.47-1.6,1.15-3.11,2.04-4.53.28-.53.63-1.05,1.03-1.58h.06c1.5-2.03,3.33-3.67,5.48-4.93,2.15-1.26,4.44-2.11,6.88-2.56Zm13.14,26.11c.85-1.26,1.45-2.62,1.8-4.08.34-1.46.42-2.94.21-4.44-.24-1.5-.69-2.82-1.34-3.96-.81-1.46-1.87-2.72-3.16-3.77-1.3-1.05-2.76-1.78-4.38-2.19-1.58-.45-3.21-.55-4.87-.3-1.66.24-3.21.81-4.62,1.7-1.83,1.18-3.25,2.74-4.26,4.69-1.01,1.95-1.46,4.02-1.34,6.21.08,1.7.51,3.29,1.28,4.75.2.37.4.74.58,1.13s.4.76.64,1.13c-.37-.61-.71-1.24-1.03-1.89.65,1.18,1.48,2.22,2.5,3.13,1.01.91,2.15,1.65,3.41,2.22,1.3.57,2.66.88,4.08.94,1.42.06,2.8-.13,4.14-.58,1.3-.41,2.5-1.01,3.59-1.83,1.1-.81,2.03-1.77,2.8-2.86Z"/>
        <path class="cls-1" d="m333.12,339.03c1.38.93,2.61,2.02,3.69,3.26,1.08,1.24,1.98,2.58,2.71,4.02.73,1.44,1.29,2.96,1.68,4.56.39,1.6.56,3.22.52,4.84-.08,2.07-.47,4.09-1.16,6.06-.69,1.97-1.66,3.78-2.92,5.45-1.58,2.07-3.51,3.74-5.78,5.02-2.27,1.28-4.69,2.08-7.24,2.4-2.6.32-5.14.13-7.64-.58-2.5-.71-4.78-1.84-6.85-3.38v-.06,10.04c0,1.05-.37,1.95-1.1,2.68s-1.64,1.1-2.7,1.1-1.96-.37-2.7-1.1-1.1-1.62-1.1-2.68v-25.74c0-.32,0-.64.03-.94.02-.3.05-.62.09-.94.16-1.66.56-3.28,1.19-4.84.63-1.56,1.42-3.01,2.38-4.35.95-1.34,2.07-2.54,3.35-3.62,1.28-1.07,2.67-1.98,4.18-2.71,3.13-1.46,6.42-2.06,9.87-1.8,3.45.26,6.62,1.37,9.51,3.32Zm.99,16.98c.2-2.84-.51-5.39-2.13-7.67-.81-1.18-1.79-2.17-2.95-2.98-1.15-.81-2.4-1.4-3.74-1.76-2.76-.77-5.41-.59-7.96.55.33-.16.65-.31.97-.46.33-.14.65-.27.98-.4-.41.16-.8.33-1.19.49-.39.16-.76.35-1.13.55-1.5.65-2.8,1.62-3.89,2.92-1.42,1.66-2.34,3.57-2.77,5.72-.43,2.15-.27,4.26.46,6.33.57,1.54,1.42,2.92,2.56,4.14,1.14,1.22,2.47,2.17,4.02,2.86,1.54.65,3.14.97,4.8.97s3.26-.34,4.8-1.03c.65-.32,1.26-.67,1.85-1.03.59-.37,1.15-.79,1.67-1.28,1.05-1.05,1.9-2.26,2.55-3.62.65-1.36,1.01-2.79,1.09-4.29Z"/>
        <path class="cls-1" d="m378.35,336.69c.73.75,1.1,1.65,1.1,2.71s-.37,1.95-1.1,2.68-1.62,1.1-2.68,1.1h-9.74v27.81c0,1.06-.38,1.95-1.13,2.68-.75.73-1.65,1.1-2.71,1.1s-1.95-.37-2.68-1.1c-.73-.73-1.1-1.62-1.1-2.68v-27.81h-9.74c-1.06,0-1.95-.37-2.68-1.1-.73-.73-1.1-1.62-1.1-2.68s.37-1.96,1.1-2.71c.73-.75,1.62-1.13,2.68-1.13h27.08c1.05,0,1.95.38,2.68,1.13Z"/>
        <path class="cls-1" d="m387.78,333.61c-1.06,0-1.95-.37-2.68-1.12-.73-.74-1.1-1.64-1.1-2.69s.37-1.94,1.1-2.69c.73-.74,1.62-1.12,2.68-1.12s1.96.37,2.71,1.12c.75.74,1.13,1.64,1.13,2.69s-.38,1.94-1.13,2.69c-.75.74-1.65,1.12-2.71,1.12Zm0,4.56c1.05,0,1.96.38,2.71,1.13.75.75,1.13,1.65,1.13,2.71v28.78c0,1.06-.38,1.96-1.13,2.71s-1.65,1.13-2.71,1.13-1.95-.37-2.68-1.13c-.73-.75-1.1-1.65-1.1-2.71v-28.78c0-1.05.37-1.96,1.1-2.71.73-.75,1.62-1.13,2.68-1.13Z"/>
        <path class="cls-1" d="m418.03,336.05c3.12-.53,6.2-.3,9.22.67,3.02.97,5.65,2.6,7.88,4.87,1.83,1.83,3.23,3.95,4.23,6.36.99,2.41,1.47,4.92,1.43,7.52-.04,2.07-.39,4.09-1.03,6.06-.65,1.97-1.58,3.78-2.8,5.45-1.5,2.03-3.31,3.69-5.42,4.99-2.11,1.3-4.38,2.17-6.82,2.62v6.27c0,1.05-.38,1.95-1.13,2.68-.75.73-1.65,1.1-2.71,1.1s-1.95-.37-2.68-1.1c-.73-.73-1.1-1.62-1.1-2.68v-6.39c-2.88-.65-5.5-1.87-7.85-3.65-2.35-1.78-4.2-4.02-5.54-6.69-.73-1.5-1.27-3.06-1.61-4.69-.34-1.62-.49-3.26-.43-4.9.06-1.64.33-3.27.82-4.87.49-1.6,1.16-3.11,2.01-4.53.2-.28.38-.56.55-.82.16-.26.34-.52.55-.76,1.54-2.03,3.38-3.67,5.51-4.93,2.13-1.26,4.43-2.11,6.91-2.56Zm13.15,26.11c.85-1.26,1.44-2.62,1.76-4.08.32-1.46.38-2.94.18-4.44-.08-.69-.23-1.37-.46-2.04-.22-.67-.5-1.31-.82-1.92-.81-1.46-1.87-2.72-3.16-3.77-1.3-1.05-2.76-1.78-4.38-2.19-1.62-.45-3.26-.55-4.9-.3-1.64.24-3.17.81-4.59,1.7-1.87,1.18-3.3,2.74-4.29,4.69-.99,1.95-1.43,4.02-1.31,6.21.08,1.66.49,3.25,1.22,4.75.2.37.41.74.61,1.13.2.39.43.76.67,1.13-.2-.32-.39-.64-.55-.94-.16-.3-.35-.62-.55-.94,1.38,2.47,3.37,4.26,5.96,5.36,1.3.57,2.66.88,4.08.94,1.42.06,2.8-.13,4.14-.58,1.3-.4,2.49-1.01,3.59-1.83,1.1-.81,2.03-1.76,2.8-2.86Z"/>
        <path class="cls-1" d="m480.77,335.56c1.05,0,1.95.38,2.68,1.13.73.75,1.1,1.65,1.1,2.71v15.82c0,2.68-.52,5.2-1.55,7.58-1.03,2.37-2.43,4.44-4.2,6.21-1.77,1.76-3.83,3.16-6.21,4.2-2.37,1.03-4.9,1.55-7.58,1.55s-5.26-.52-7.64-1.55c-2.37-1.03-4.44-2.43-6.21-4.2-1.76-1.77-3.16-3.83-4.2-6.21-1.03-2.37-1.55-4.9-1.55-7.58v-15.82c0-1.05.38-1.96,1.13-2.71s1.65-1.13,2.71-1.13,1.95.37,2.68,1.12c.73.75,1.1,1.65,1.1,2.7v15.79c0,1.66.31,3.21.94,4.65.63,1.44,1.48,2.7,2.56,3.8,1.07,1.09,2.34,1.95,3.8,2.58,1.46.63,3.02.94,4.69.94s3.16-.31,4.62-.94c1.46-.63,2.74-1.49,3.83-2.58,1.1-1.09,1.96-2.36,2.59-3.8.63-1.44.94-2.99.94-4.65h-.06v-15.79c0-1.05.38-1.95,1.13-2.7.75-.75,1.65-1.12,2.71-1.12Z"/>
        <path class="cls-1" d="m527.45,355.22c-.04,1.06-.44,1.95-1.19,2.68-.75.73-1.65,1.12-2.71,1.16h-27.08c.16.49.38,1,.67,1.52.2.41.4.79.61,1.16.2.36.41.73.61,1.09-.2-.32-.39-.64-.55-.94-.16-.3-.33-.62-.49-.94.65,1.18,1.48,2.23,2.5,3.16,1.01.93,2.15,1.66,3.41,2.19,1.34.57,2.82.89,4.44.97h.24c1.05,0,1.94.36,2.65,1.07.71.71,1.07,1.59,1.07,2.65s-.36,1.95-1.07,2.68c-.71.73-1.59,1.1-2.65,1.1h-.7c-.22,0-.44-.02-.64-.06-1.7-.12-3.37-.47-4.99-1.03-1.62-.57-3.13-1.31-4.53-2.22-1.4-.91-2.67-2-3.8-3.26-1.14-1.26-2.09-2.66-2.86-4.2-1.5-3.04-2.18-6.26-2.04-9.65.14-3.39,1.1-6.52,2.89-9.4.16-.24.33-.5.52-.76.18-.26.37-.52.58-.76,1.5-2.03,3.33-3.68,5.48-4.96,2.15-1.28,4.44-2.14,6.88-2.59,3.12-.49,6.21-.24,9.25.73,3.04.97,5.66,2.6,7.85,4.87,1.78,1.83,3.17,3.89,4.17,6.21.99,2.31,1.49,4.75,1.49,7.3v.24Zm-25.99-10.22c-1.18.77-2.19,1.71-3.04,2.83-.85,1.12-1.5,2.32-1.95,3.62h22.88c-.2-.61-.49-1.26-.85-1.95-.77-1.46-1.82-2.71-3.13-3.74-1.32-1.03-2.79-1.77-4.41-2.22-1.58-.45-3.21-.54-4.87-.27-1.66.26-3.21.84-4.62,1.73Z"/>
      </g>
    </g>
    <g>
      <path class="cls-1" d="m187.85,403.7c1-.17,1.99-.1,2.96.22.97.31,1.81.83,2.53,1.56.59.59,1.04,1.27,1.36,2.04.32.77.47,1.58.46,2.41,0,.66-.11,1.31-.32,1.94-.21.63-.52,1.21-.91,1.75-.64.86-1.45,1.51-2.42,1.96s-1.99.64-3.05.58c-.55-.04-1.08-.15-1.6-.33-.52-.18-1.01-.42-1.46-.72-.45-.3-.86-.65-1.22-1.05-.36-.4-.67-.85-.92-1.35-.23-.48-.41-.98-.52-1.5-.11-.52-.15-1.05-.13-1.57.03-.53.11-1.05.26-1.56s.37-1,.65-1.45c.09-.17.2-.34.33-.51h.02c.48-.65,1.07-1.18,1.76-1.58.69-.4,1.43-.68,2.21-.82Zm4.22,8.38c.27-.4.47-.84.58-1.31s.13-.94.07-1.43c-.08-.48-.22-.91-.43-1.27-.26-.47-.6-.87-1.02-1.21s-.89-.57-1.41-.7c-.51-.14-1.03-.18-1.56-.1-.53.08-1.03.26-1.48.55-.59.38-1.04.88-1.37,1.5-.33.63-.47,1.29-.43,1.99.03.55.16,1.05.41,1.52.07.12.13.24.19.36.06.12.13.24.21.36-.12-.2-.23-.4-.33-.61.21.38.48.71.8,1.01s.69.53,1.09.71c.42.18.85.28,1.31.3.46.02.9-.04,1.33-.19.42-.13.8-.32,1.15-.59.35-.26.65-.57.9-.92Z"/>
      <path class="cls-1" d="m205.99,404.7c.44.3.84.65,1.18,1.05.35.4.64.83.87,1.29.23.46.41.95.54,1.46.12.51.18,1.03.17,1.55-.03.66-.15,1.31-.37,1.94-.22.63-.53,1.21-.94,1.75-.51.66-1.13,1.2-1.86,1.61-.73.41-1.5.67-2.32.77-.83.1-1.65.04-2.45-.19-.8-.23-1.53-.59-2.2-1.08v-.02,3.22c0,.34-.12.62-.35.86s-.52.35-.87.35-.63-.12-.87-.35c-.24-.23-.35-.52-.35-.86v-8.26c0-.1,0-.21,0-.3,0-.1.02-.2.03-.3.05-.53.18-1.05.38-1.55s.46-.97.76-1.4c.31-.43.67-.82,1.08-1.16.41-.35.86-.64,1.34-.87,1-.47,2.06-.66,3.17-.58,1.11.08,2.13.44,3.05,1.06Zm.32,5.45c.06-.91-.16-1.73-.68-2.46-.26-.38-.58-.7-.95-.96s-.77-.45-1.2-.57c-.88-.25-1.74-.19-2.56.18.1-.05.21-.1.31-.15.1-.05.21-.09.31-.13-.13.05-.26.1-.38.16-.12.05-.24.11-.36.18-.48.21-.9.52-1.25.94-.46.53-.75,1.15-.89,1.84s-.09,1.37.15,2.03c.18.5.46.94.82,1.33.36.39.79.7,1.29.92.49.21,1.01.31,1.54.31s1.05-.11,1.54-.33c.21-.1.41-.22.59-.33.19-.12.37-.25.54-.41.34-.34.61-.73.82-1.16.21-.44.32-.9.35-1.38Z"/>
      <path class="cls-1" d="m220.51,403.94c.23.24.35.53.35.87s-.12.62-.35.86c-.23.23-.52.35-.86.35h-3.12v8.93c0,.34-.12.62-.36.86-.24.23-.53.35-.87.35s-.62-.12-.86-.35c-.23-.23-.35-.52-.35-.86v-8.93h-3.13c-.34,0-.62-.12-.86-.35-.23-.23-.35-.52-.35-.86s.12-.63.35-.87c.23-.24.52-.36.86-.36h8.69c.34,0,.63.12.86.36Z"/>
      <path class="cls-1" d="m223.52,402.96c-.34,0-.62-.12-.86-.36-.23-.24-.35-.53-.35-.86s.12-.62.35-.86c.23-.24.52-.36.86-.36s.63.12.87.36c.24.24.36.53.36.86s-.12.62-.36.86c-.24.24-.53.36-.87.36Zm0,1.46c.34,0,.63.12.87.36.24.24.36.53.36.87v9.26c0,.34-.12.63-.36.87-.24.24-.53.36-.87.36s-.62-.12-.86-.36c-.23-.24-.35-.53-.35-.87v-9.26c0-.34.12-.63.35-.87.23-.24.52-.36.86-.36Z"/>
      <path class="cls-1" d="m236.82,414.1c.23.24.35.53.35.87s-.12.62-.35.86c-.23.23-.52.35-.86.35h-1.44c-.86,0-1.67-.17-2.43-.5-.76-.33-1.43-.78-2-1.35-.57-.57-1.02-1.23-1.36-1.99-.33-.76-.5-1.58-.5-2.45s.17-1.67.5-2.43c.33-.76.79-1.43,1.36-1.99.57-.57,1.24-1.02,2-1.35.76-.33,1.57-.5,2.43-.5h1.44c.34,0,.63.12.86.35.23.23.35.52.35.86s-.12.63-.35.87-.52.36-.86.36h-1.44c-.53,0-1.03.1-1.49.3-.46.2-.87.48-1.22.82-.35.34-.63.75-.83,1.22-.2.47-.3.96-.3,1.48s.1,1.03.3,1.5.48.88.83,1.22c.35.35.76.62,1.22.82.46.2.96.3,1.49.3h1.44c.34,0,.63.12.86.36Z"/>
      <path class="cls-1" d="m239.92,402.96c-.34,0-.62-.12-.86-.36-.23-.24-.35-.53-.35-.86s.12-.62.35-.86c.23-.24.52-.36.86-.36s.63.12.87.36c.24.24.36.53.36.86s-.12.62-.36.86c-.24.24-.53.36-.87.36Zm0,1.46c.34,0,.63.12.87.36.24.24.36.53.36.87v9.26c0,.34-.12.63-.36.87-.24.24-.53.36-.87.36s-.62-.12-.86-.36c-.23-.24-.35-.53-.35-.87v-9.26c0-.34.12-.63.35-.87.23-.24.52-.36.86-.36Z"/>
      <path class="cls-1" d="m256.86,409.89c-.01.34-.14.62-.38.86-.24.23-.53.36-.87.37h-8.69c.05.16.12.32.22.49.07.13.13.25.2.37s.13.23.2.35c-.07-.1-.12-.21-.18-.3-.05-.1-.1-.2-.16-.3.21.38.47.72.8,1.02.32.3.69.53,1.09.7.43.18.9.29,1.43.31h.08c.34,0,.62.11.85.34.23.23.34.51.34.85s-.11.62-.34.86c-.23.23-.51.35-.85.35h-.22c-.07,0-.14,0-.21-.02-.55-.04-1.08-.15-1.6-.33-.52-.18-1.01-.42-1.46-.71-.45-.29-.86-.64-1.22-1.05s-.67-.85-.92-1.35c-.48-.98-.7-2.01-.65-3.1.05-1.09.35-2.09.93-3.02.05-.08.11-.16.17-.24s.12-.17.19-.24c.48-.65,1.07-1.18,1.76-1.59.69-.41,1.43-.69,2.21-.83,1-.16,1.99-.08,2.97.23.98.31,1.82.83,2.52,1.56.57.59,1.02,1.25,1.34,1.99.32.74.48,1.52.48,2.34v.08Zm-8.34-3.28c-.38.25-.7.55-.98.91-.27.36-.48.75-.63,1.16h7.34c-.07-.2-.16-.4-.27-.62-.25-.47-.58-.87-1.01-1.2-.42-.33-.9-.57-1.42-.71-.51-.14-1.03-.17-1.56-.09-.53.08-1.03.27-1.48.56Z"/>
      <path class="cls-1" d="m268.36,403.58c.34,0,.63.12.87.36.24.24.36.53.36.87v10.14l-.02.02v.2s-.02.03-.02.06c0,.01,0,.02,0,.03s0,.02,0,.03,0,.03-.02.04c0,.04,0,.07-.02.08,0,.01,0,.03-.02.04,0,.03-.01.05-.04.08v.02s-.02.03-.03.04c0,.01-.02.03-.03.04v.02s-.02.03-.03.04-.02.03-.05.04v.02l-.08.08-.04.04-.04.04s-.06.04-.1.08c-.03.01-.04.02-.05.03,0,0-.02.02-.05.03h-.02s-.05.04-.08.04c-.01,0-.02,0-.02.02-.03,0-.04,0-.05,0s-.02,0-.05,0l-.04.02s-.02,0-.03,0c0,0-.02,0-.05,0h-.04s-.02,0-.03,0c0,0-.02,0-.05,0h-.29s-.02,0-.03,0-.02,0-.03,0h-.06s-.03-.02-.06-.02c-.01,0-.02,0-.03,0s-.02,0-.03,0c-.01,0-.02,0-.03,0s-.02,0-.03,0c-.01,0-.02,0-.02,0,0,0,0,0-.02,0l-.08-.04-.02-.02s-.05-.01-.08-.04l-.02-.02-.08-.04s0-.02,0-.02c0,0,0,0,0-.02-.01,0-.03-.01-.06-.04l-.04-.04-.02-.02-6.89-7.75v6.93c0,.34-.12.62-.35.86-.23.23-.52.35-.86.35s-.63-.12-.87-.35c-.24-.23-.36-.52-.36-.86v-10.25l.02-.02c.03-.3.16-.56.39-.78.25-.22.54-.33.88-.31.34.01.62.15.84.41l6.89,7.73v-6.91c0-.34.12-.63.35-.87.23-.24.52-.36.86-.36Z"/>
      <path class="cls-1" d="m288.18,403.7c1-.17,1.99-.1,2.96.22.97.31,1.81.83,2.53,1.56.59.59,1.04,1.27,1.36,2.04s.47,1.58.46,2.41c0,.66-.11,1.31-.32,1.94-.21.63-.52,1.21-.91,1.75-.64.86-1.44,1.51-2.42,1.96s-1.99.64-3.05.58c-.55-.04-1.08-.15-1.6-.33-.52-.18-1.01-.42-1.45-.72-.45-.3-.86-.65-1.22-1.05s-.67-.85-.92-1.35c-.23-.48-.41-.98-.52-1.5-.11-.52-.15-1.05-.13-1.57.03-.53.11-1.05.26-1.56s.37-1,.65-1.45c.09-.17.2-.34.33-.51h.02c.48-.65,1.07-1.18,1.76-1.58.69-.4,1.43-.68,2.21-.82Zm4.22,8.38c.27-.4.47-.84.58-1.31s.13-.94.07-1.43c-.08-.48-.22-.91-.43-1.27-.26-.47-.6-.87-1.02-1.21-.42-.34-.89-.57-1.41-.7-.51-.14-1.03-.18-1.56-.1-.53.08-1.03.26-1.48.55-.59.38-1.04.88-1.37,1.5-.33.63-.47,1.29-.43,1.99.03.55.16,1.05.41,1.52.06.12.13.24.19.36s.13.24.2.36c-.12-.2-.23-.4-.33-.61.21.38.47.71.8,1.01s.69.53,1.09.71c.42.18.85.28,1.31.3.46.02.9-.04,1.33-.19.42-.13.8-.32,1.15-.59.35-.26.65-.57.9-.92Z"/>
      <path class="cls-1" d="m306.33,404.7c.44.3.84.65,1.18,1.05.35.4.64.83.87,1.29.23.46.41.95.54,1.46.12.51.18,1.03.17,1.55-.03.66-.15,1.31-.37,1.94s-.53,1.21-.94,1.75c-.51.66-1.13,1.2-1.86,1.61-.73.41-1.5.67-2.32.77-.83.1-1.65.04-2.45-.19-.8-.23-1.53-.59-2.2-1.08v-.02,3.22c0,.34-.12.62-.35.86s-.52.35-.87.35-.63-.12-.87-.35-.35-.52-.35-.86v-8.26c0-.1,0-.21,0-.3,0-.1.02-.2.03-.3.05-.53.18-1.05.38-1.55s.46-.97.76-1.4c.31-.43.67-.82,1.08-1.16.41-.35.86-.64,1.34-.87,1-.47,2.06-.66,3.17-.58,1.11.08,2.13.44,3.05,1.06Zm.32,5.45c.07-.91-.16-1.73-.68-2.46-.26-.38-.58-.7-.95-.96s-.77-.45-1.2-.57c-.88-.25-1.74-.19-2.56.18.1-.05.21-.1.31-.15.1-.05.21-.09.31-.13-.13.05-.26.1-.38.16s-.24.11-.36.18c-.48.21-.9.52-1.25.94-.46.53-.75,1.15-.89,1.84s-.09,1.37.15,2.03c.18.5.46.94.82,1.33.36.39.79.7,1.29.92.49.21,1.01.31,1.54.31s1.05-.11,1.54-.33c.21-.1.41-.22.59-.33s.37-.25.54-.41c.34-.34.61-.73.82-1.16.21-.44.32-.9.35-1.38Z"/>
      <path class="cls-1" d="m320.84,403.94c.23.24.35.53.35.87s-.12.62-.35.86c-.23.23-.52.35-.86.35h-3.12v8.93c0,.34-.12.62-.36.86-.24.23-.53.35-.87.35s-.62-.12-.86-.35c-.23-.23-.35-.52-.35-.86v-8.93h-3.12c-.34,0-.63-.12-.86-.35-.23-.23-.35-.52-.35-.86s.12-.63.35-.87c.23-.24.52-.36.86-.36h8.69c.34,0,.63.12.86.36Z"/>
      <path class="cls-1" d="m327.03,403.7c1-.17,1.99-.1,2.96.22.97.31,1.81.83,2.53,1.56.59.59,1.04,1.27,1.36,2.04s.47,1.58.46,2.41c0,.66-.11,1.31-.32,1.94-.21.63-.52,1.21-.91,1.75-.64.86-1.44,1.51-2.42,1.96s-1.99.64-3.05.58c-.55-.04-1.08-.15-1.6-.33-.52-.18-1.01-.42-1.45-.72-.45-.3-.86-.65-1.22-1.05s-.67-.85-.92-1.35c-.23-.48-.41-.98-.52-1.5-.11-.52-.15-1.05-.13-1.57.03-.53.11-1.05.26-1.56s.37-1,.65-1.45c.09-.17.2-.34.33-.51h.02c.48-.65,1.07-1.18,1.76-1.58.69-.4,1.43-.68,2.21-.82Zm4.22,8.38c.27-.4.47-.84.58-1.31s.13-.94.07-1.43c-.08-.48-.22-.91-.43-1.27-.26-.47-.6-.87-1.02-1.21-.42-.34-.89-.57-1.41-.7-.51-.14-1.03-.18-1.56-.1-.53.08-1.03.26-1.48.55-.59.38-1.04.88-1.37,1.5-.33.63-.47,1.29-.43,1.99.03.55.16,1.05.41,1.52.06.12.13.24.19.36s.13.24.2.36c-.12-.2-.23-.4-.33-.61.21.38.47.71.8,1.01s.69.53,1.09.71c.42.18.85.28,1.31.3.46.02.9-.04,1.33-.19.42-.13.8-.32,1.15-.59.35-.26.65-.57.9-.92Z"/>
      <path class="cls-1" d="m347.4,416.16c-.34,0-.62-.12-.85-.35-.23-.23-.34-.52-.34-.86v-7.23l-1.56,1.56c-.31.31-.67.55-1.06.72-.4.17-.82.25-1.26.25s-.86-.08-1.27-.25c-.4-.17-.75-.41-1.05-.72l-1.58-1.58v7.25c0,.34-.12.62-.35.86-.24.23-.52.35-.87.35s-.63-.12-.87-.35c-.24-.23-.35-.52-.35-.86v-10.14c0-.34.12-.63.35-.86.23-.23.52-.35.86-.35.25,0,.48.07.68.22v-.02l.16.14,3.48,3.5c.23.21.5.31.8.31s.55-.1.78-.31l3.59-3.61h.02c.21-.14.44-.22.68-.22.34,0,.62.12.86.35.23.23.35.52.35.86v10.14c0,.34-.12.62-.35.86-.23.23-.52.35-.86.35Z"/>
      <path class="cls-1" d="m362.99,409.89c-.01.34-.14.62-.38.86-.24.23-.53.36-.87.37h-8.69c.05.16.12.32.22.49.07.13.13.25.2.37s.13.23.2.35c-.07-.1-.12-.21-.18-.3-.05-.1-.1-.2-.16-.3.21.38.47.72.8,1.02.32.3.69.53,1.09.7.43.18.9.29,1.43.31h.08c.34,0,.62.11.85.34.23.23.34.51.34.85s-.11.62-.34.86c-.23.23-.51.35-.85.35h-.22c-.07,0-.14,0-.21-.02-.55-.04-1.08-.15-1.6-.33-.52-.18-1.01-.42-1.46-.71-.45-.29-.86-.64-1.22-1.05s-.67-.85-.92-1.35c-.48-.98-.7-2.01-.65-3.1.05-1.09.35-2.09.93-3.02.05-.08.11-.16.17-.24s.12-.17.19-.24c.48-.65,1.07-1.18,1.76-1.59.69-.41,1.43-.69,2.21-.83,1-.16,1.99-.08,2.97.23.98.31,1.82.83,2.52,1.56.57.59,1.02,1.25,1.34,1.99.32.74.48,1.52.48,2.34v.08Zm-8.34-3.28c-.38.25-.7.55-.98.91-.27.36-.48.75-.63,1.16h7.34c-.07-.2-.16-.4-.27-.62-.25-.47-.58-.87-1.01-1.2-.42-.33-.9-.57-1.42-.71-.51-.14-1.03-.17-1.56-.09-.53.08-1.03.27-1.48.56Z"/>
      <path class="cls-1" d="m374.34,403.94c.23.24.35.53.35.87s-.12.62-.35.86c-.23.23-.52.35-.86.35h-3.12v8.93c0,.34-.12.62-.36.86-.24.23-.53.35-.87.35s-.62-.12-.86-.35c-.23-.23-.35-.52-.35-.86v-8.93h-3.12c-.34,0-.63-.12-.86-.35-.23-.23-.35-.52-.35-.86s.12-.63.35-.87c.23-.24.52-.36.86-.36h8.69c.34,0,.63.12.86.36Z"/>
      <path class="cls-1" d="m382.53,403.96c.23.23.34.5.34.83s-.12.63-.36.87-.53.36-.87.36h-.1c-.51.03-.99.14-1.44.35-.45.21-.84.49-1.17.83-.33.35-.59.75-.78,1.2s-.28.94-.28,1.46v5.08c0,.34-.12.62-.36.86-.24.23-.53.35-.87.35s-.62-.12-.86-.35c-.23-.23-.35-.52-.35-.86v-5.08c0-.86.16-1.66.48-2.41.32-.75.75-1.41,1.3-1.97.55-.57,1.19-1.02,1.93-1.36.74-.34,1.54-.52,2.38-.55h.18c.32.03.6.15.83.38Z"/>
      <path class="cls-1" d="m385.7,402.96c-.34,0-.62-.12-.86-.36-.23-.24-.35-.53-.35-.86s.12-.62.35-.86c.23-.24.52-.36.86-.36s.63.12.87.36c.24.24.36.53.36.86s-.12.62-.36.86c-.24.24-.53.36-.87.36Zm0,1.46c.34,0,.63.12.87.36.24.24.36.53.36.87v9.26c0,.34-.12.63-.36.87-.24.24-.53.36-.87.36s-.62-.12-.86-.36c-.23-.24-.35-.53-.35-.87v-9.26c0-.34.12-.63.35-.87.23-.24.52-.36.86-.36Z"/>
      <path class="cls-1" d="m399.96,412.42c0,.51-.1.99-.29,1.44-.19.46-.46.85-.78,1.19s-.72.61-1.17.81c-.45.2-.93.3-1.44.3h-5.39c-.34,0-.63-.12-.87-.36-.24-.24-.36-.53-.36-.86s.12-.62.36-.86c.24-.24.53-.36.87-.36h5.35c.35,0,.65-.13.91-.38s.38-.56.38-.92-.13-.68-.38-.93c-.25-.26-.56-.38-.91-.38h-2.54c-.52,0-1.01-.1-1.46-.29-.46-.2-.85-.46-1.19-.8s-.61-.74-.8-1.19c-.2-.46-.29-.94-.29-1.46s.1-1.01.29-1.46.46-.85.8-1.19c.34-.34.73-.61,1.18-.81s.93-.3,1.45-.3h2.48c.34,0,.63.12.87.36.24.24.36.53.36.86s-.12.62-.36.86c-.24.24-.53.36-.87.36h-2.49c-.35.01-.65.15-.9.4-.25.25-.37.56-.37.93s.12.66.37.92.55.39.92.39h2.54c.52,0,1.01.1,1.46.3s.85.47,1.19.81.61.73.8,1.19.29.94.29,1.46Z"/>
      <path class="cls-1" d="m412.01,403.94c.23.24.35.53.35.87s-.12.62-.35.86c-.23.23-.52.35-.86.35h-3.12v8.93c0,.34-.12.62-.36.86-.24.23-.53.35-.87.35s-.62-.12-.86-.35c-.23-.23-.35-.52-.35-.86v-8.93h-3.12c-.34,0-.63-.12-.86-.35-.23-.23-.35-.52-.35-.86s.12-.63.35-.87c.23-.24.52-.36.86-.36h8.69c.34,0,.63.12.86.36Z"/>
      <path class="cls-1" d="m425.74,409.89c-.01.34-.14.62-.38.86-.24.23-.53.36-.87.37h-8.69c.05.16.12.32.22.49.07.13.13.25.2.37s.13.23.2.35c-.07-.1-.12-.21-.18-.3-.05-.1-.1-.2-.16-.3.21.38.47.72.8,1.02.32.3.69.53,1.09.7.43.18.9.29,1.43.31h.08c.34,0,.62.11.85.34.23.23.34.51.34.85s-.11.62-.34.86c-.23.23-.51.35-.85.35h-.22c-.07,0-.14,0-.21-.02-.55-.04-1.08-.15-1.6-.33-.52-.18-1.01-.42-1.46-.71-.45-.29-.86-.64-1.22-1.05s-.67-.85-.92-1.35c-.48-.98-.7-2.01-.65-3.1.05-1.09.35-2.09.93-3.02.05-.08.11-.16.17-.24s.12-.17.19-.24c.48-.65,1.07-1.18,1.76-1.59.69-.41,1.43-.69,2.21-.83,1-.16,1.99-.08,2.97.23.98.31,1.82.83,2.52,1.56.57.59,1.02,1.25,1.34,1.99.32.74.48,1.52.48,2.34v.08Zm-8.34-3.28c-.38.25-.7.55-.98.91-.27.36-.48.75-.63,1.16h7.34c-.07-.2-.16-.4-.27-.62-.25-.47-.58-.87-1.01-1.2-.42-.33-.9-.57-1.42-.71-.51-.14-1.03-.17-1.56-.09-.53.08-1.03.27-1.48.56Z"/>
    </g>
  </g>
</svg>