<?xml version="1.0" encoding="UTF-8"?>
<svg id="Calque_1" data-name="Calque 1" xmlns="http://www.w3.org/2000/svg" viewBox="0 0 612 612">
  <defs>
    <style>
      .cls-1, .cls-2 {
        stroke-width: 0px;
      }

      .cls-1, .cls-3 {
        fill: #7b6a58;
      }

      .cls-4 {
        letter-spacing: .24em;
      }

      .cls-5 {
        letter-spacing: .15em;
      }

      .cls-2 {
        fill: #fff;
      }

      .cls-3 {
        font-family: Cambria, Cambria;
        font-size: 49.78px;
      }

      .cls-6 {
        letter-spacing: .25em;
      }
    </style>
  </defs>
  <rect class="cls-2" width="612" height="612"/>
  <path class="cls-1" d="m325.62,367.69c-1.03.08-2.05.15-3.08.21-2.22.13-4.47.19-6.72.19-1.68,0-3.35-.04-5-.11-1.61-.06-3.2-.15-4.78-.3h-.01c-3.24.27-6.52.4-9.84.4-2.53,0-5.04-.07-7.54-.24-.75-.05-1.52-.11-2.27-.17.36-.02.73-.06,1.09-.09.99-.08,1.96-.18,2.93-.3,1.38-.15,2.77-.33,4.14-.56.8-.12,1.61-.24,2.4-.38,3.08-.52,6.1-1.16,9.08-1.92.2-.05.41-.11.61-.17.05.02.11.04.16.05,3.2.82,6.46,1.49,9.77,2.03h.01s.04,0,.05.01c-.26.05-.52.08-.78.13,2.21.37,4.45.68,6.71.9.88.11,1.78.19,2.67.26l.41.04Z"/>
  <path class="cls-1" d="m325.62,367.57c-.4.04-.8.06-1.2.08-1.15.09-2.31.15-3.47.2-1.71.07-3.42.11-5.14.11-3.31,0-6.6-.13-9.84-.39h-.01c-1.58.14-3.18.24-4.78.3-1.66.07-3.32.09-5,.09-2.25,0-4.5-.06-6.72-.19-.93-.05-1.85-.11-2.78-.18-.1-.01-.2-.01-.3-.02,1.03-.08,2.06-.18,3.08-.3,1.45-.14,2.87-.32,4.29-.53.8-.12,1.61-.24,2.4-.38,3.08-.52,6.1-1.16,9.08-1.92.2-.05.41-.11.61-.17.05.02.11.04.16.05,3.2.82,6.46,1.49,9.77,2.03h.01s.04,0,.05.01c2.26.38,4.55.69,6.86.94.98.09,1.95.19,2.94.27Z"/>
  <g>
    <path class="cls-1" d="m475.77,263.65c0,46.53-30.05,86.34-72.54,102.54-6.9,1.24-14.03,1.9-21.3,1.9-5.05,0-10.02-.32-14.9-.92,51.05-11.27,89.11-55.14,89.11-107.51,0-56.08-43.63-102.4-100.12-109.41.64-.15,1.31-.3,1.96-.43,6.59,1.02,12.97,2.57,19.14,4.61,55.77,7.63,98.65,53.62,98.65,109.22Z"/>
    <path class="cls-1" d="m443.59,265.54c0,5.76-.46,11.41-1.35,16.94-8.49,35.57-34.9,64.58-69.63,77.82-3.99,1.53-8.08,2.83-12.27,3.92-9.64,2.52-19.76,3.86-30.23,3.86-3.31,0-6.6-.13-9.84-.4,4.81-.38,9.53-1.05,14.15-1.99,5.52-1.13,10.9-2.62,16.1-4.48h.01c43.78-15.61,74.97-56.04,74.97-103.46,0-41.42-23.8-77.52-59-96.38,44.88,15.03,77.08,55.99,77.08,104.17Z"/>
    <path class="cls-1" d="m412.06,257.76c0,43.78-26.59,81.61-65.13,99.44h-.01c-9.19,4.25-19.09,7.37-29.46,9.16-.01-.01-.04-.01-.05-.01h-.01c-3.31-.53-6.57-1.21-9.77-2.03-.05-.01-.11-.02-.16-.05,10.55-2.71,20.51-6.86,29.63-12.18,33.18-19.35,55.35-54.35,55.35-94.33s-22.17-74.99-55.36-94.34c-9.26-5.39-19.35-9.58-30.08-12.3.21-.06.42-.11.63-.17-.05-.01-.09-.02-.14-.04-.22.05-.43.11-.65.17.04.01.06.01.1.02h.05c-10.54,2.74-20.49,6.89-29.59,12.18-33.19,19.35-55.36,54.38-55.36,94.35s22.17,74.98,55.35,94.32c9.24,5.4,19.36,9.58,30.08,12.31-.2.06-.41.12-.61.17-2.98.76-6.01,1.4-9.08,1.92-10.64-1.75-20.8-4.92-30.21-9.29h-.01c-38.54-17.83-65.13-55.65-65.13-99.43s26.59-81.63,65.15-99.46h.01c9.27-4.28,19.23-7.4,29.67-9.16l8.97-8.47,11.36,8.65c10.33,1.78,20.17,4.88,29.34,9.11h.01c38.55,17.83,65.15,55.66,65.15,99.45Z"/>
    <path class="cls-1" d="m136.23,263.52c0,46.53,30.05,86.34,72.54,102.54,6.9,1.24,14.03,1.9,21.3,1.9,5.05,0,10.02-.32,14.9-.92-51.05-11.27-89.11-55.14-89.11-107.51,0-56.08,43.63-102.4,100.12-109.41-.64-.15-1.31-.3-1.96-.43-6.59,1.02-12.97,2.57-19.14,4.61-55.77,7.63-98.65,53.62-98.65,109.22Z"/>
    <path class="cls-1" d="m170.88,265.42c0,5.76.46,11.41,1.35,16.94,8.49,35.57,34.9,64.58,69.63,77.82,3.99,1.53,8.08,2.83,12.27,3.92,9.64,2.52,19.76,3.86,30.23,3.86,3.31,0,6.6-.13,9.84-.4-4.81-.38-9.53-1.05-14.15-1.99-5.52-1.13-10.9-2.62-16.1-4.48h-.01c-43.78-15.61-74.97-56.04-74.97-103.46,0-41.42,23.8-77.52,59-96.38-44.88,15.03-77.08,55.99-77.08,104.17Z"/>
  </g>
  <text class="cls-3" transform="translate(163.11 424.04) scale(1.04 1)"><tspan class="cls-6" x="0" y="0">O</tspan><tspan class="cls-5" x="45.12" y="0">L</tspan><tspan class="cls-6" x="79.32" y="0">YMPIA</tspan></text>
  <text class="cls-3" transform="translate(201.09 475.88) scale(1.04 1)"><tspan class="cls-6" x="0" y="0">H</tspan><tspan class="cls-4" x="46.77" y="0">O</tspan><tspan class="cls-6" x="91.2" y="0">TEL</tspan></text>
</svg>