<?xml version="1.0" encoding="UTF-8"?>
<svg id="Calque_1" data-name="Calque 1" xmlns="http://www.w3.org/2000/svg" viewBox="0 0 612 612">
  <defs>
    <style>
      .cls-1 {
        fill: #7b6a58;
      }

      .cls-1, .cls-2 {
        stroke-width: 0px;
      }

      .cls-2, .cls-3 {
        fill: #fff;
      }

      .cls-4 {
        letter-spacing: .25em;
      }

      .cls-5 {
        letter-spacing: .15em;
      }

      .cls-6 {
        letter-spacing: .24em;
      }

      .cls-7 {
        letter-spacing: .25em;
      }

      .cls-3 {
        font-family: Cambria, Cambria;
        font-size: 49.82px;
      }
    </style>
  </defs>
  <rect class="cls-1" width="612" height="612"/>
  <g>
    <path class="cls-2" d="m298.65,303.06s-.06-.01-.1-.02c.22-.06.43-.12.66-.17.05.01.09.02.14.04-.21.06-.42.11-.63.17h-.06Z"/>
    <path class="cls-2" d="m298.65,303.06s-.06-.01-.1-.02c.22-.06.43-.12.66-.17.05.01.09.02.14.04-.21.06-.42.11-.63.17h-.06Z"/>
    <path class="cls-2" d="m299.34,302.9c-.21.06-.42.11-.63.17h-.06s-.06-.02-.1-.04c.22-.06.43-.12.66-.17.05.01.09.02.14.04Z"/>
    <path class="cls-2" d="m318.59,362.31c-1.03.08-2.05.15-3.08.21-2.23.13-4.48.19-6.73.19-1.68,0-3.35-.04-5.01-.11-1.61-.06-3.2-.15-4.79-.3h-.01c-3.24.27-6.53.4-9.84.4-2.54,0-5.05-.07-7.54-.24-.75-.05-1.52-.11-2.28-.17.36-.02.73-.06,1.09-.09.99-.08,1.97-.18,2.93-.3,1.39-.15,2.77-.33,4.14-.56.8-.12,1.61-.24,2.4-.38,3.08-.52,6.11-1.16,9.09-1.92.2-.05.41-.11.61-.17.05.02.11.04.16.05,3.2.82,6.47,1.49,9.78,2.03h.01s.04,0,.05.01c-.26.05-.52.08-.78.13,2.21.37,4.45.68,6.71.9.88.11,1.78.19,2.67.26l.41.04Z"/>
    <path class="cls-2" d="m318.59,362.19c-.4.04-.8.06-1.2.08-1.15.09-2.31.15-3.47.2-1.71.07-3.43.11-5.14.11-3.31,0-6.6-.13-9.84-.39h-.01c-1.58.14-3.18.24-4.79.3-1.66.07-3.33.09-5.01.09-2.25,0-4.5-.06-6.73-.19-.93-.05-1.85-.11-2.78-.18-.1-.01-.2-.01-.3-.02,1.03-.08,2.07-.18,3.08-.3,1.45-.14,2.87-.32,4.29-.53.8-.12,1.61-.24,2.4-.38,3.08-.52,6.11-1.16,9.09-1.92.2-.05.41-.11.61-.17.05.02.11.04.16.05,3.2.82,6.47,1.49,9.78,2.03h.01s.04,0,.05.01c2.26.38,4.55.69,6.86.94.98.09,1.95.19,2.94.27Z"/>
    <g>
      <path class="cls-2" d="m468.85,258.2c0,46.57-30.07,86.41-72.59,102.62-6.9,1.25-14.04,1.9-21.32,1.9-5.06,0-10.03-.32-14.91-.93,51.08-11.28,89.17-55.18,89.17-107.59,0-56.13-43.66-102.48-100.19-109.49.64-.15,1.31-.3,1.97-.43,6.59,1.02,12.98,2.57,19.16,4.61,55.81,7.64,98.72,53.66,98.72,109.3Z"/>
      <path class="cls-2" d="m436.64,260.09c0,5.76-.46,11.42-1.35,16.95-8.5,35.59-34.92,64.63-69.68,77.88-3.99,1.53-8.09,2.83-12.28,3.93-9.65,2.53-19.77,3.87-30.25,3.87-3.31,0-6.6-.13-9.84-.4,4.81-.38,9.53-1.06,14.16-1.99,5.53-1.13,10.91-2.62,16.11-4.48h.01c43.81-15.62,75.03-56.08,75.03-103.53,0-41.45-23.82-77.58-59.05-96.45,44.91,15.04,77.14,56.03,77.14,104.25Z"/>
      <path class="cls-2" d="m405.09,252.3c0,43.81-26.61,81.67-65.18,99.51h-.01c-9.2,4.26-19.11,7.38-29.48,9.17-.01-.01-.04-.01-.05-.01h-.01c-3.31-.53-6.58-1.21-9.78-2.03-.05-.01-.11-.02-.16-.05,10.56-2.72,20.53-6.87,29.65-12.19,33.2-19.37,55.39-54.39,55.39-94.4s-22.18-75.04-55.4-94.41c-9.26-5.4-19.37-9.58-30.1-12.31.21-.06.42-.11.63-.17-.05-.01-.09-.02-.14-.04-.22.05-.43.11-.66.17.04.01.06.01.1.02h.05c-10.55,2.74-20.5,6.89-29.62,12.19-33.22,19.37-55.4,54.42-55.4,94.42s22.18,75.03,55.39,94.39c9.25,5.41,19.38,9.58,30.1,12.32-.2.06-.41.12-.61.17-2.98.76-6.01,1.4-9.09,1.92-10.65-1.76-20.81-4.92-30.24-9.3h-.01c-38.57-17.84-65.18-55.69-65.18-99.5s26.61-81.69,65.19-99.54h.01c9.27-4.28,19.24-7.4,29.69-9.17l8.98-8.48,11.36,8.66c10.34,1.78,20.18,4.89,29.36,9.12h.01c38.58,17.84,65.19,55.7,65.19,99.52Z"/>
      <path class="cls-2" d="m129.05,258.07c0,46.57,30.07,86.41,72.59,102.62,6.9,1.25,14.04,1.9,21.32,1.9,5.06,0,10.03-.32,14.91-.93-51.08-11.28-89.17-55.18-89.17-107.59,0-56.13,43.66-102.48,100.19-109.49-.64-.15-1.31-.3-1.97-.43-6.59,1.02-12.98,2.57-19.16,4.61-55.81,7.64-98.72,53.66-98.72,109.3Z"/>
      <path class="cls-2" d="m163.73,259.97c0,5.76.46,11.42,1.35,16.95,8.5,35.59,34.92,64.63,69.68,77.88,3.99,1.53,8.09,2.83,12.28,3.93,9.65,2.53,19.77,3.87,30.25,3.87,3.31,0,6.6-.13,9.84-.4-4.81-.38-9.53-1.06-14.16-1.99-5.53-1.13-10.91-2.62-16.11-4.48h-.01c-43.81-15.62-75.03-56.08-75.03-103.53,0-41.45,23.82-77.58,59.05-96.45-44.91,15.04-77.14,56.03-77.14,104.25Z"/>
    </g>
    <text class="cls-3" transform="translate(155.96 418.71) scale(1.04 1)"><tspan class="cls-4" x="0" y="0">O</tspan><tspan class="cls-5" x="45.15" y="0">L</tspan><tspan class="cls-7" x="79.38" y="0">YMPIA</tspan></text>
    <text class="cls-3" transform="translate(193.96 470.59) scale(1.04 1)"><tspan class="cls-4" x="0" y="0">H</tspan><tspan class="cls-6" x="46.8" y="0">O</tspan><tspan class="cls-4" x="91.27" y="0">TEL</tspan></text>
  </g>
</svg>