<?xml version="1.0" encoding="UTF-8"?>
<svg id="Calque_1" data-name="Calque 1" xmlns="http://www.w3.org/2000/svg" viewBox="0 0 612 612">
  <defs>
    <style>
      .cls-1 {
        fill: #ed6f16;
      }

      .cls-1, .cls-2, .cls-3 {
        stroke-width: 0px;
      }

      .cls-2 {
        fill: #fff;
      }

      .cls-4 {
        stroke: #1d1d1b;
        stroke-miterlimit: 10;
      }

      .cls-4, .cls-3 {
        fill: #1d1d1b;
      }
    </style>
  </defs>
  <rect class="cls-2" width="612" height="612"/>
  <g>
    <path class="cls-1" d="m413.79,189.07c-82.14,47.45-164.29,94.9-246.43,142.35,65.66-33.43,131.33-66.86,196.99-100.28l19.7,42.34,55.55-32.09-25.82-52.32Zm-25.37,70.97c-5.03-10.71-10.05-21.42-15.08-32.12,12.02-6.75,24.05-13.5,36.07-20.26,5.16,10.57,10.32,21.14,15.48,31.72-12.16,6.89-24.31,13.78-36.47,20.66Z"/>
    <path class="cls-4" d="m423.15,271.07c-15.77,5.75-31.55,11.49-47.32,17.24,17.71-9.88,35.43-19.77,53.14-29.65,5.22,11.36,10.44,22.71,15.66,34.07l-70.77,38.96c-7.86-19.31-15.71-38.62-23.57-57.93-57.17,27.55-114.34,55.1-171.51,82.65l189.2-104.88c.2,1.63.45,5.32-1.22,9.39-2.2,5.34-6.24,7.79-7.5,8.49,6.32,15.41,12.65,30.83,18.97,46.24,17.29-9.44,34.58-18.88,51.87-28.33-2.32-5.42-4.65-10.83-6.97-16.25Z"/>
  </g>
  <g>
    <path class="cls-1" d="m103.79,366.82h23.92c3.68,0,7.02.44,10,1.3,2.99.87,5.54,2.09,7.67,3.67,2.13,1.58,3.76,3.48,4.91,5.72,1.14,2.24,1.72,4.75,1.72,7.53v.95c0,2.84-.59,5.4-1.76,7.69-1.18,2.29-2.83,4.22-4.95,5.8-2.13,1.58-4.69,2.8-7.67,3.67-2.99.87-6.29,1.3-9.91,1.3h-9.05v17.59h-14.86v-55.21Zm22.2,27.92c3.43,0,6.16-.78,8.19-2.33,2.03-1.55,3.05-3.61,3.05-6.19v-.87c0-2.52-.97-4.48-2.9-5.88-1.94-1.39-4.62-2.09-8.05-2.09h-8v17.35h7.72Z"/>
    <path class="cls-1" d="m171.35,366.82h19.05l22.01,55.21h-15.91l-4.1-11.52h-23.25l-4.1,11.52h-15.91l22.2-55.21Zm17.82,33.83l-7.81-21.06h-1.05l-7.91,21.06h16.77Z"/>
    <path class="cls-1" d="m218.8,366.82h25.44c7.37,0,13.15,1.53,17.34,4.58,4.19,3.05,6.29,7.28,6.29,12.7v.79c0,3.58-1.02,6.72-3.05,9.42-2.03,2.71-4.77,4.67-8.2,5.88l15.63,21.85h-17.25l-12.77-19.4h-8.58v19.4h-14.86v-55.21Zm22.87,26.5c3.62,0,6.43-.74,8.43-2.21,2-1.47,3-3.42,3-5.84v-.63c0-2.42-.99-4.28-2.95-5.6-1.97-1.31-4.77-1.97-8.38-1.97h-8.58v16.25h8.48Z"/>
    <path class="cls-1" d="m280.54,366.82h14.86v55.21h-14.86v-55.21Z"/>
    <g>
      <path class="cls-3" d="m351.94,422.93c-4.51,0-8.58-.66-12.2-1.97-3.62-1.32-6.72-3.18-9.29-5.6-2.57-2.42-4.56-5.34-5.96-8.75-1.4-3.42-2.09-7.2-2.09-11.36v-1.42c0-4.15.78-7.94,2.33-11.36,1.56-3.42,3.75-6.35,6.57-8.79,2.83-2.45,6.23-4.35,10.2-5.72,3.97-1.37,8.34-2.05,13.1-2.05h1.05c5.46,0,10.51,1.08,15.15,3.23,4.63,2.16,8.48,5.21,11.53,9.15l-11.72,6.15c-3.56-5.26-8.45-7.88-14.67-7.88h-1.05c-2.61,0-4.96.42-7.05,1.26-2.1.84-3.89,2.01-5.38,3.51-1.49,1.5-2.64,3.3-3.43,5.4-.79,2.1-1.19,4.44-1.19,7.02v1.58c0,2.58.39,4.92,1.19,7.02.79,2.1,1.95,3.89,3.48,5.36,1.52,1.47,3.37,2.62,5.53,3.43,2.16.81,4.57,1.22,7.24,1.22h1.05c1.91,0,3.7-.25,5.38-.75,1.68-.5,3.14-1.17,4.38-2.01,1.24-.84,2.22-1.82,2.95-2.92.73-1.11,1.1-2.23,1.1-3.39v-1.03h-13.72v-10.1h27.25v29.89h-10.67c-.38-.58-.75-1.46-1.09-2.64-.35-1.18-.56-2.33-.62-3.43-.76,1-1.76,1.92-3,2.76-1.24.84-2.67,1.58-4.29,2.21-1.62.63-3.37,1.12-5.24,1.46-1.87.34-3.76.51-5.67.51h-1.14Z"/>
      <path class="cls-3" d="m410.07,366.86h19.05l22.01,55.21h-15.91l-4.1-11.52h-23.25l-4.1,11.52h-15.91l22.2-55.21Zm17.82,33.83l-7.81-21.06h-1.05l-7.91,21.06h16.77Z"/>
      <path class="cls-3" d="m457.42,366.86h25.25c3.3,0,6.34.32,9.1.95,2.76.63,5.13,1.54,7.1,2.72,1.97,1.18,3.51,2.6,4.62,4.26,1.11,1.66,1.67,3.51,1.67,5.56v.95c0,2.42-.67,4.57-2,6.47-1.33,1.89-3.46,3.52-6.38,4.89,3.68,1.31,6.51,3.13,8.48,5.44,1.97,2.31,2.95,4.97,2.95,7.97v1.02c0,2.26-.54,4.33-1.62,6.19-1.08,1.87-2.62,3.44-4.62,4.73-2,1.29-4.4,2.29-7.19,3-2.8.71-5.94,1.06-9.43,1.06h-27.92v-55.21Zm24.68,22.87c2.67,0,4.81-.54,6.43-1.62,1.62-1.08,2.43-2.54,2.43-4.38v-.87c0-1.74-.78-3.12-2.33-4.14-1.56-1.03-3.67-1.54-6.33-1.54h-10.48v12.54h10.29Zm2.38,21.92c2.73,0,4.95-.54,6.67-1.62,1.72-1.08,2.57-2.54,2.57-4.38v-.95c0-1.95-.87-3.48-2.62-4.61-1.75-1.13-4.05-1.69-6.91-1.69h-12.39v13.25h12.67Z"/>
    </g>
  </g>
</svg>