<?xml version="1.0" encoding="UTF-8"?>
<svg id="Calque_1" data-name="Calque 1" xmlns="http://www.w3.org/2000/svg" viewBox="0 0 612 612">
  <defs>
    <style>
      .cls-1, .cls-2, .cls-3 {
        fill: #28285b;
      }

      .cls-1, .cls-3 {
        font-family: TimesNewRomanPSMT, 'Times New Roman';
      }

      .cls-4 {
        letter-spacing: 0em;
      }

      .cls-4, .cls-5 {
        font-size: 116.02px;
      }

      .cls-6 {
        font-size: 136.37px;
        letter-spacing: .08em;
      }

      .cls-7 {
        fill: #fff;
      }

      .cls-7, .cls-2 {
        stroke-width: 0px;
      }

      .cls-3 {
        font-size: 121.44px;
        letter-spacing: -.03em;
      }

      .cls-5 {
        letter-spacing: -.03em;
      }
    </style>
  </defs>
  <rect class="cls-7" width="612" height="612"/>
  <g>
    <text class="cls-1" transform="translate(89.77 324.31) scale(.99 1)"><tspan class="cls-6" x="0" y="0">P</tspan><tspan class="cls-4" x="87.43" y="0" xml:space="preserve">  lé</tspan><tspan class="cls-5" x="232.88" y="0">m</tspan></text>
    <g>
      <path class="cls-2" d="m424.94,295.72c0,3.16,0,6.33,0,9.49,0,.52.03.98.42,1.29.31.24.42.66.42,1.13,0,.5.03,1.01,0,1.5-.04.69.18.98.69,1.15,2.63.87,5.24,1.86,7.74,3.28,1.41.8,1.52,1,1.51,3,0,.13-.01.25,0,.38.36,2.69-.82,4.07-2.45,5.04-1.94,1.15-4,1.73-6.09,2.02-3.94.55-7.87.51-11.75-.68-1.48-.45-2.89-1.14-4.21-2.15-.92-.7-1.47-1.73-1.47-3.2,0-.53,0-1.07,0-1.6,0-1.56.28-2.16,1.36-2.7,2.72-1.35,5.44-2.71,8.29-3.48.57-.15.72-.51.7-1.22-.03-1.02-.16-2.09.68-2.77.21-.17.16-.57.16-.88,0-6.73,0-13.47,0-20.2,0-.7-.21-.98-.72-1.12-.85-.23-1.7-.54-2.54-.86-1.16-.44-1.73-1.42-1.74-3.01-.02-2.29-.05-4.58.01-6.86.03-1-.26-1.45-.92-1.79-1.26-.64-2.45-1.42-3.52-2.57-1.35-1.47-2.21-4.89-1.66-7.07.09-.38.24-.74.54-.8.53-.12.4-.49.3-.94-.29-1.26-.02-2.02.9-2.51.33-.18.33-.41.25-.8-.26-1.27-.04-2.03.8-2.64.26-.19.25-.35.18-.67-.27-1.34-.09-1.96.83-2.71.27-.22.19-.42.14-.7-.26-1.32,0-2.15.93-2.73.33-.21.18-.39.12-.65-.32-1.28-.06-2.15.88-2.74.33-.21.19-.39.12-.65-.32-1.24-.04-2.15.87-2.74.2-.13.28-.24.17-.48-.35-.77-.13-1.48.07-2.23.84-3.08,2.54-4.73,4.89-5.31,4.36-1.08,8.55-.51,12.47,2.43.72.54,1.44,1.09,2.1,1.75,2.35,2.37,3.29,5.53,2.85,9.41-.07.59-.23,1.09-.66,1.36-.31.2-.36.46-.24.91.26.92-.08,2.18-.73,2.68-.32.25-.42.49-.34.97.21,1.22-.07,2.04-.9,2.75-.24.21-.3.41-.22.78.27,1.22-.02,2.22-.83,2.84-.29.22-.33.42-.24.82.27,1.13-.02,2.15-.8,2.79-.28.22-.33.43-.25.84.25,1.18-.04,2.14-.83,2.77-.24.19-.38.38-.25.74.34.94.01,1.74-.37,2.45-.26.48-.34.92-.34,1.47,0,3.32-.02,6.64,0,9.96.01,1.46-.33,2.54-1.26,3.44-1.57,1.52-3.22,2.27-5.17,1.72-.94-.26-.95-.2-.95,1.11,0,3.07,0,6.14,0,9.21Zm-.89,11.39c-.77.26-.85-.34-.85-1.14.01-6.14,0-12.27,0-18.41,0-.41-.02-.81-.06-1.22-.03-.29-.13-.55-.39-.57-.23-.01-.32.22-.39.46-.13.42-.11.86-.11,1.3-.02,4.63-.02,9.27-.05,13.9,0,.94-.1,1.87-.15,2.81-.04,0-.08,0-.12,0-.1-5.46-.19-10.92-.29-16.38-.08,0-.16,0-.24,0,0,.34,0,.68,0,1.02,0,5.48,0,10.96,0,16.44,0,1.67.56,2.31,1.83,2.07.28-.05.55-.18.82-.28.52-.2.39-.77.4-1.25,0-6.35,0-12.7,0-19.05,0-.42,0-.84,0-1.26-.03,0-.07,0-.1,0,0,.34,0,.68,0,1.02,0,6.32,0,12.64,0,18.96,0,.56.06,1.14-.3,1.58Zm-4.81-72.52c-.88.96-1.43,1.96-1.79,3.14-.38,1.26-.35,1.32.65,1.29.31,0,.62-.03.92.03.36.07.59.41.61.9.02.46-.18.78-.5.92-.22.09-.46.1-.7.12-.52.06-1.03.1-1.55.16-.47.06-.69.51-.64,1.03.05.51.43.33.7.32.28-.01.57-.05.85-.02.41.04.74.27.77.89.03.65-.24,1.01-.7,1.07-.42.06-.85.06-1.27.09-.26.02-.52,0-.78.04-.4.06-.59.45-.59.91-.01.57.37.45.63.47.28.02.57,0,.85.02.47.04.85.29.85.99,0,.7-.36.97-.85.98-.57,0-1.13,0-1.7,0-.46-.01-.72.32-.78.88-.07.58.33.48.58.58.4.17.68.5.61,1.1-.07.57-.37.84-.81.84-.28,0-.57-.03-.85.04-.35.08-.5.48-.53.9-.04.52.29.47.54.52.37.07.75.08,1.12.18.39.11.63.45.61,1-.02.54-.28.87-.68.91-.33.03-.66-.04-.99-.07-.33-.03-.66-.08-.99-.08-.42,0-.55.45-.61.88-.08.56.29.56.55.64.39.11.8.04,1.18.25.38.21.55.58.48,1.12-.07.52-.35.71-.72.72-.19,0-.38-.01-.57-.04-.42-.05-.84-.14-1.27-.17-.47-.02-.78.32-.81.94-.03.66.4.56.71.63.33.06.66.11.98.21.43.13.76.46.67,1.11-.09.68-.47.9-.95.82-.49-.08-.98-.17-1.47-.28-.47-.11-.74.12-.79.74-.11,1.35-.09,2.7.35,3.96.77,2.19,2.15,3.44,3.83,4.14,1.87.78,3.79,1.23,5.76,1.45,2.92.33,4.99-1.23,6.11-4.85.6-1.94,1.15-3.91,1.73-5.86.15-.51.22-1.03.09-1.84-.77,2.6-1.45,4.97-2.18,7.31-.65,2.11-1.67,3.77-3.38,4.51-.44.19-.88.23-1.32.07-.26-.09-.46-.33-.53-.7-.07-.38.12-.59.33-.75.79-.61,1.24-1.6,1.65-2.64.59-1.5.58-1.51,1.75-.83.35.21.68.31,1.08-.4-.61.32-.98.06-1.37-.19-1.84-1.19-3.64-2.53-5.74-2.82-.89-.12-1.78-.32-2.66-.49-.41-.08-.75-.34-.71-.96.04-.61.35-.93.81-.97.16-.01.33-.01.49.02,2.38.44,4.79.79,6.93,2.42.44.34.69.24.82-.42.14-.69.44-.7.84-.35.24.2.5.37.76.5.32.15.62.14.9-.44-.82.4-1.34-.2-1.87-.61-1.74-1.34-3.55-2.32-5.58-2.46-.75-.05-1.5-.2-2.25-.33-.42-.07-.83-.25-.79-.95.05-.73.45-1.04.95-.97,2.51.31,5.06.41,7.3,2.24.45.37.72.33.86-.4.12-.62.4-.7.8-.38.24.2.49.38.75.53.34.2.66.2.97-.4-.92.39-1.5-.32-2.11-.79-1.7-1.31-3.45-2.28-5.47-2.23-.73.02-1.45-.17-2.18-.26-.43-.06-.84-.24-.8-.92.04-.69.43-1.03.94-1.03.42,0,.85.09,1.27.12,2.15.17,4.29.4,6.17,2.03.41.36.63.15.78-.42.33-1.17.71-2.32,1.02-3.5.21-.81.48-1.09,1.06-.52.19.19.41.33.62.44.26.14.54.2.82-.26-.82.11-1.37-.47-1.93-.94-1.8-1.54-3.73-2.38-5.89-2.17-.59.06-1.18,0-1.77,0-.48-.01-.97-.14-.95-.92.02-.73.44-1.04.99-1.05,2.63-.07,5.26-.16,7.6,1.87.23.2.48.23.56-.2.22-1.16.69-.9,1.22-.41.15.14.33.26.5.34.39.18.71.07.99-.69-.65.67-1.09.36-1.5-.03-2.29-2.17-4.82-3.09-7.63-2.54-.34.07-.71.01-1.06-.03-.3-.04-.53-.26-.58-.69-.05-.44.06-.82.36-1.03.18-.13.4-.23.6-.24,2.63-.2,5.26-.32,7.61,1.69.35.3.57.23.67-.31.16-.86.5-.85.96-.39.19.19.39.37.61.48.45.24.85.21,1.11-.47-.49.45-.94.26-1.39-.11-.48-.4-.97-.77-1.45-1.16-1.59-1.3-3.3-1.78-5.15-1.5-.63.1-1.27.07-1.91.1-.44.02-.88-.16-.95-.74-.06-.56.34-.91.72-1.14.12-.07.27-.09.41-.11,2.64-.37,5.24-.37,7.6,1.64.22.19.4.17.51-.18.39-1.26.52-2.56.13-3.84-.32-1.03-1.15-1.24-1.82-.54-.4.42-.64,1-.87,1.58-.47,1.23-.46,1.19-1.5.94-.5-.12-.58-.37-.37-.94.67-1.83,1.34-3.67,3.12-4.13-.37-.27-.66-.22-.97-.12-1.17.36-1.83,1.44-2.35,2.77-.13.32-.28.74-.64.5-.34-.24-.19-.64-.1-.99.24-.93.71-1.64,1.21-2.34-.91.54-1.48,1.49-1.92,2.62-.15.39-.29,1.04-.73.76-.49-.32-.14-.87-.01-1.31.2-.68.57-1.23.88-1.83-.18.08-.31.21-.44.35-.64.69-1.03,1.62-1.43,2.55-.12.28-.27.57-.55.43-.32-.16-.28-.54-.19-.88.07-.27.17-.52.26-.77.26-.72.73-1.24,1.06-1.89-1.09.63-1.64,1.92-2.26,3.13-.16.31-.29.73-.64.53-.36-.21-.22-.64-.13-.98.24-.9.67-1.65,1.37-2.43-.63.25-.92.66-1.22,1.04-.49.62-.72,1.46-1.07,2.21-.14.29-.29.52-.57.35-.27-.17-.27-.49-.16-.8.14-.42.3-.84.51-1.44Zm-8.73,81.53c.26.55.56.8.88,1.01,1.21.79,2.48,1.4,3.8,1.75,5.53,1.47,11.05,1.38,16.54-.41,1.12-.37,2.21-.93,3.08-2.01.52-.65.53-1.11-.11-1.82.46.84.15,1.25-.16,1.66-.41.54-.92.86-1.44,1.16-1.05.6-2.18.81-3.27,1.17-.57.19-1.11.39-1.27-.74-.03-.24-.24-.45-.39-.65-.89-1.22-1.97-2.12-3.03-3.07-.32-.29-.66-.23-1.02-.15-.96.23-1.92.19-2.87-.18-.61-.24-1.08-.7-1.14-1.59-.05-.71-.28-.8-.76-.63-1.91.7-3.81,1.45-5.65,2.4-.64.33-1.27.68-1.81,1.27-.33.36-.73.66-.52,1.38-.35-.04-.52-.35-.87-.54Zm24.77.83c-.32.16-.28.48-.27.74.06,1.29-.45,2.13-1.22,2.75-.31.25-.65.76-1,.5-.28-.21-.08-.81-.13-1.24-.04-.31.12-.79-.28-.81-.38-.02-.51.35-.5.83.01.47,0,.94-.01,1.41,0,.37-.15.6-.43.63-.34.04-.35-.32-.36-.64,0-.31-.02-.63,0-.94.02-.6-.11-.86-.62-.71-1.66.49-3.34.76-5.04.89-3.34.26-6.65.11-9.93-.77-1.16-.31-1.14-.33-1.19,1.22,0,.32.16.86-.29.86-.41,0-.41-.51-.43-.91-.02-.5,0-1-.05-1.5-.03-.32-.23-.49-.46-.45-.23.04-.17.33-.18.53-.01.38,0,.75-.01,1.13,0,.4-.14.62-.45.4-1.09-.76-2.1-1.32-2.02-3.42,0-.14.03-.31-.11-.4-.25,1.63.01,2.7.91,3.39,1,.78,2.03,1.45,3.16,1.85,5.25,1.87,10.53,1.91,15.82.35,1.53-.45,3.01-1.05,4.28-2.35.86-.88.97-2.02.8-3.34Zm-5.32-64.81c-.96.04-1.3.45-1.32,1.49-.03,1.6-.01,3.19-.01,4.79,0,7.52,0,15.03,0,22.55,0,1.84-.95,2.88-2.31,2.57-2.3-.53-4.6-1.05-6.9-1.6-1.7-.41-2.44-1.59-2.45-3.88,0-1.75,0-3.51,0-5.26,0-.33.04-.8-.33-.78-.35.01-.22.48-.22.75-.01,2.41-.02,4.82,0,7.23,0,1.54.42,2.19,1.53,2.62,1.97.77,4.01,1.13,6.02,1.67,1.06.29,2.11.65,3.21.63,1.27-.03,1.92-.76,2.1-2.42.08-.75.12-1.49.12-2.25,0-8.74,0-17.47,0-26.21,0-.67-.02-1.33.57-1.91Zm-9.85,23.89c0,.5-.02,1,0,1.5.05,1.35.61,2.18,1.59,2.51.53.18.61,0,.52-.68-.24-1.89.47-2.66,1.84-2,.4.19.77.47,1.17.67.28.14.57.05.77-.26.16-.24.16-.54.03-.79-.37-.68-.73-1.4-1.39-1.64-.95-.36-1.9-.73-2.86-1.05-1.68-.57-1.68-.55-1.68,1.74Zm12.2-41.6c.19.17.38.34.57.51,1.3,1.2,1.72,2.51,1.18,4.45-.86,3.04-1.62,6.13-2.74,9.03-.3.78-.49,1.63-.72,2.44-.05.16-.14.38.05.48.17.09.25-.11.31-.28.12-.34.21-.7.34-1.03,1.29-3.45,2.26-7.07,3.24-10.69.26-.95.09-1.93-.04-3.07,1.4,1.14,2.69,2.14,3.38,4.17-.51.02-1.05-.14-1.17.73-.11.83.02,1.56.54,2.1.53.55.88,0,1.23-.46.31.64.21,1.28.21,1.9,0,1.38-.05,1.41-1.01.9-.02-.01-.06.04-.13.08.17.15.33.29.49.42.65.52.79.43.86-.58.11-1.81-.04-3.54-.68-5.19-1.25-3.22-3.63-4.46-5.9-5.91Zm-2.29,29.26c0,1.44-.01,2.87,0,4.31.01.74.25.9.71.51.58-.48,1.01-1.06.96-2.1-.06-1.18-.01-2.37-.01-3.56,0-1.22,0-2.44-.01-3.65,0-.47-.09-.88-.47-1.04-.36-.15-.64.09-.89.39-.25.3-.28.7-.28,1.11,0,1.34,0,2.69,0,4.03Zm-1.86,14.55h0c0-.44,0-.87,0-1.31,0-1.83,0-1.81-1.37-1.54-.42.08-.55.17-.27.73.51,1,.5,1.7.05,2.38-.46.68-1.14.84-1.88.42-.37-.21-.72-.47-1.09-.65-.21-.1-.47-.17-.62.21-.21.57.26,1.94.72,2.06,1.27.32,2.54.62,3.82.93.42.1.63-.11.62-.69,0-.84,0-1.69,0-2.53Zm-4.52,2.88c.1.38.56.34.41.74-.11.31-.42.21-.65.15-.3-.07-.6-.17-.89-.28-.1-.04-.28-.17-.22-.3.4-.93-.26-.68-.5-.74-.73-.2-1.4-.52-1.97-1.19-.45-.52-.88-.24-1.31.04-.25.17-.41.46-.33.85.13.6.52.79.92.88,2.41.58,4.82,1.14,7.23,1.69.44.1.9.13,1.28-.29.08-.09.18-.23.19-.36.01-.19-.16-.21-.26-.23-1.29-.32-2.58-.63-3.9-.95Zm-2.99,27.57s-.06.02-.09.04c0,1.03,0,2.06,0,3.1,0,.64.21,1.11.65,1.31,1.1.49,2.22.54,3.33.07.39-.17.73-.5.73-1.13,0-1.13,0-2.25,0-3.38-.09.84-.07,1.69-.09,2.53-.03,1.35-.38,1.86-1.36,2.09-.52.12-.82-.03-.8-.84.02-.97,0-1.94,0-2.91,0-.31-.08-.58-.34-.6-.34-.03-.28.34-.28.6,0,1,0,2-.01,3,0,.33.03.71-.38.69-.79-.04-1.33-.71-1.35-1.76-.02-.94,0-1.87,0-2.81Zm9.4-33.56c0,.48,0,.82,0,1.17,0,.19.04.36.23.37.36.02,1.34-.95,1.36-1.41.02-.62.02-1.24,0-1.87-.01-.55-.19-.71-.59-.46-.77.47-1.23,1.14-1,2.2Zm1.63-20.39c0-1.12-.24-1.55-.84-1.5-.61.05-.83.58-.82,1.33.01,1.34.88.71,1.33.93.5.25.24-.51.33-.76Z"/>
      <path class="cls-2" d="m420.57,249.67c1.86-.05,3.67.2,5.34,1.39.17.12.33.23.49.36.41.33.53.81.31,1.36-.21.53-.62.66-.97.38-1.63-1.28-3.4-1.53-5.24-1.49-.52,0-.94-.28-.9-1.11.04-.79.5-.87.96-.88Z"/>
      <path class="cls-2" d="m418.65,265.79c.04-2.26.41-2.61,1.98-1.84,1.03.5,1.04.51.61,1.8-.25.74-.49,1.49-.81,2.18-.35.76-.83.74-1.26.05-.31-.51-.54-1.45-.52-2.2Z"/>
      <path class="cls-2" d="m419.25,270.86c-1.68-.66-2.82-2.98-2.6-5.15.02-.21.07-.42.13-.63.07-.26.22-.41.44-.36.22.05.35.27.32.54-.24,2.3.58,4.02,1.71,5.6Z"/>
      <path class="cls-2" d="m417.63,270.27c-1.58-.62-2.7-2.93-2.51-4.89.04-.45.05-1.07.52-1.05.46.03.38.62.36,1.04-.06,1.59.37,2.93,1.15,4.11.17.25.32.53.47.79Z"/>
      <path class="cls-2" d="m416.16,269.91c-1.35-.88-2.23-2.21-2.45-4.19-.03-.24-.03-.51,0-.75.06-.39.09-.91.5-.87.36.04.37.5.36.88-.03,1.79.5,3.27,1.4,4.56.07.1.12.24.18.36Z"/>
      <path class="cls-2" d="m413.19,268.79c-1.31-.59-2.49-3.03-2.38-4.75.02-.36.08-.71.42-.73.31-.02.5.23.51.62.02,1.86.52,3.46,1.46,4.86Z"/>
      <path class="cls-2" d="m414.69,269.57c-1.42-1.03-2.29-2.55-2.41-4.73-.01-.24.04-.5.08-.74.05-.26.18-.45.41-.42.22.03.33.24.35.51.05.59.05,1.19.13,1.77.19,1.39.77,2.53,1.44,3.61Z"/>
      <path class="cls-2" d="m418.24,250.09c.01.85-.47,1.65-1,1.64-.53,0-.67-.5-.69-1.06-.04-.84.46-1.66.99-1.66.4,0,.7.46.71,1.07Z"/>
      <path class="cls-2" d="m419.69,313.55c-1.13.95-2.25,1.91-3.38,2.86-.38.32-.8.58-1.12.98-.72.9-1.47.78-2.27.27-.14-.09-.36-.1-.36-.37,0-.28.21-.31.35-.39.92-.49,1.84-.95,2.76-1.44,1.31-.7,2.61-1.41,3.91-2.12.03.07.07.15.1.22Z"/>
      <path class="cls-2" d="m415.46,318.37c1.35-1.26,2.66-2.48,3.97-3.69.04.07.08.14.12.2-1.07,1.23-2.13,2.49-3.22,3.69-.22.24-.53.15-.87-.2Z"/>
    </g>
    <text class="cls-3" transform="translate(446.8 323.88) scale(.99 1)"><tspan x="0" y="0">k</tspan></text>
    <g>
      <g>
        <path class="cls-2" d="m474.6,340.16c1.29,0,2.37.22,3.38.68.48.22.92.47,1.31.78.57.44,1.01.95,1.35,1.54.22.39.33.79.44,1.2.06.24.09.47.09.71,0,.2-.14.29-.38.26-.28-.04-.56-.08-.83-.13-.13-.02-.25-.04-.38-.06-.16-.03-.24-.11-.25-.25-.03-.38-.09-.75-.27-1.1-.25-.48-.6-.9-1.06-1.27-.45-.36-.95-.64-1.52-.84-1.02-.36-2.06-.41-3.11-.12-.87.24-1.61.65-2.21,1.23-.4.39-.69.83-.87,1.32-.1.26-.13.53-.16.8-.01.13-.08.2-.23.22-.41.06-.83.13-1.24.19-.23.03-.34-.06-.34-.25,0-.36.03-.72.15-1.07.1-.3.2-.6.37-.87.24-.41.53-.8.9-1.14,1.03-.96,2.31-1.54,3.84-1.76.38-.06.77-.09,1.02-.08Z"/>
        <path class="cls-2" d="m471.68,347.8c0,.42-.02.83,0,1.25.03.53-.56.99-1.17,1.03-.58.04-1.09-.22-1.31-.58-.08-.13-.11-.26-.11-.41,0-.87,0-1.73,0-2.6,0-.54.57-.95,1.15-.98.6-.04,1.05.17,1.34.61.07.11.1.22.1.35,0,.45,0,.89,0,1.34h0Z"/>
        <path class="cls-2" d="m480.39,347.79c0,.42-.02.83,0,1.25.03.54-.56.99-1.16,1.04-.6.04-1.09-.21-1.32-.58-.08-.13-.11-.27-.11-.42,0-.85.01-1.71,0-2.56,0-.53.53-.95,1.12-1,.59-.05,1.05.14,1.35.56.09.12.12.26.12.4,0,.44,0,.87,0,1.31Z"/>
        <path class="cls-2" d="m475,347.6c0,.78,0,1.55,0,2.33,0,.18-.12.27-.31.25-.15-.02-.22-.09-.22-.24,0-.5,0-1.01,0-1.51,0-1.06,0-2.11,0-3.17,0-.16.08-.24.25-.25.16-.01.27.07.28.21,0,.19,0,.38,0,.57,0,.6,0,1.2,0,1.81Z"/>
        <path class="cls-2" d="m468.61,347.8c0,.38,0,.76,0,1.14,0,.12-.05.15-.19.15-.39.01-.66-.12-.83-.4-.04-.07-.05-.14-.05-.22,0-.45,0-.91,0-1.36,0-.31.31-.59.68-.62q.39-.03.39.29c0,.34,0,.68,0,1.01Z"/>
        <path class="cls-2" d="m481.92,347.79c0,.23,0,.46,0,.69,0,.35-.3.6-.72.61-.37,0-.31.03-.31-.25,0-.73,0-1.45,0-2.18,0-.16,0-.16.2-.16.53-.02.88.27.84.69,0,.02,0,.05,0,.07,0,.18,0,.35,0,.53Z"/>
        <path class="cls-2" d="m475.51,347.6c0-.52,0-1.04,0-1.56,0-.18.14-.27.34-.23.14.03.19.11.19.22,0,.31,0,.63,0,.94,0,.73,0,1.46,0,2.19,0,.17-.1.25-.29.24-.15,0-.24-.09-.24-.24,0-.52,0-1.05,0-1.57Z"/>
        <path class="cls-2" d="m473.98,347.6c0,.52,0,1.04,0,1.56,0,.18-.14.27-.34.23-.11-.02-.17-.08-.19-.17,0-.02,0-.03,0-.05,0-1.04,0-2.09,0-3.13,0-.16.1-.24.27-.23.17,0,.25.08.25.23,0,.52,0,1.04,0,1.56Z"/>
        <path class="cls-2" d="m476.52,347.58c0-.25,0-.49,0-.74,0-.16.1-.25.27-.25.16,0,.26.09.26.25,0,.51,0,1.02,0,1.53,0,.18-.16.27-.36.22-.12-.03-.16-.11-.16-.21,0-.26,0-.53,0-.79Z"/>
        <path class="cls-2" d="m472.97,348c0,.25,0,.5,0,.76,0,.17-.09.24-.28.24-.16,0-.25-.08-.25-.24,0-.51,0-1.02,0-1.52,0-.15.1-.24.25-.24.18,0,.28.08.28.24,0,.26,0,.51,0,.77Z"/>
      </g>
      <g>
        <path class="cls-2" d="m416.29,344.26v31.65h-8.75v-22.03l-6.1,22.03h-5.06l-6.26-21.66v21.66h-3.05v-31.65h9.21l5.36,19.11,5.34-19.11h9.3Z"/>
        <path class="cls-2" d="m437.86,367.35l3.37,1c-.35,5.4-3.5,8.09-9.44,8.09-7.7,0-11.55-3.89-11.55-11.66,0-3.77,1.02-6.86,3.07-9.28,2.05-2.41,4.67-3.62,7.86-3.62,6.68,0,10.01,4.36,10.01,13.08h-12.19c0,6.12,1.54,9.18,4.61,9.18,2.87,0,4.31-1.73,4.31-5.19,0-.46-.02-1-.05-1.6Zm-7.24-17.58h-1.97l3.25-6.12h6.58l-7.86,6.12Zm-1.65,12.57h5c0-5.44-.81-8.16-2.43-8.16-1.47,0-2.29,2.02-2.48,6.05l-.09,2.11Z"/>
        <path class="cls-2" d="m465.47,343.77v32.14h-8.36v-2.02c-1.41,1.7-3.28,2.55-5.64,2.55-5.19,0-7.79-4.03-7.79-12.1s2.75-12.45,8.25-12.45c2.17,0,3.9.97,5.18,2.9v-10.53c2.52,0,5.31-.16,8.36-.49Zm-10.84,11.53c-1.41,0-2.11,1.31-2.11,3.92l-.16,4.96.09,4.52c0,2.89.79,4.34,2.38,4.34s2.31-1.42,2.31-4.27l.11-5.7-.18-3.9c-.24-2.58-1.06-3.87-2.45-3.87Z"/>
        <path class="cls-2" d="m470.13,375.91h8.36v-23.98c-2.96.42-5.75.63-8.36.63v23.35Z"/>
        <path class="cls-2" d="m506.52,375.08c-2.05.8-4.04,1.21-5.98,1.21-2.87,0-4.64-.9-5.32-2.71-1.39,1.89-3.39,2.83-6,2.83-4.87,0-7.31-2.29-7.31-6.86,0-3.48,2.23-5.92,6.69-7.33,4.09-1.3,6.14-2.86,6.14-4.68,0-2.4-1.18-3.59-3.53-3.59-2.72,0-4.08,1.16-4.08,3.48,0,.73.21,1.69.64,2.88l-4.15-.81c-.11-.73-.16-1.41-.16-2.04,0-3.71,3.35-5.57,10.04-5.57s9.53,1.73,9.53,5.19v14.19c0,1.45.47,2.18,1.4,2.18.29,0,.72-.16,1.28-.49l.8,2.13Zm-11.85-13.22c-.52.6-1.12,1.11-1.81,1.51-1.73,1.02-2.59,2.74-2.59,5.15,0,3.09.6,4.64,1.79,4.64,1.74,0,2.61-1.53,2.61-4.59v-6.7Z"/>
      </g>
    </g>
    <g>
      <path class="cls-2" d="m201.8,267.7c4.1,5.54,6.15,13.13,6.15,22.77,0,7.71-1.22,13.15-3.68,16.31-2.46,3.17-5.59,4.75-9.38,4.75-5.08,0-9.17-2.86-12.27-8.59-3.11-5.73-4.65-12.55-4.65-20.46,0-4.9.64-8.91,1.93-12.04,1.29-3.12,2.98-5.3,5.07-6.55,2.09-1.24,4.17-1.87,6.25-1.87,4.29,0,7.83,1.9,10.6,5.69Z"/>
      <path class="cls-2" d="m235.36,264.84c-.38-.82-.83-1.55-1.67-2.04-.83-.48-1.45-.13-2.05.32-1.32,1-2.5,2.15-3.73,3.24-1.81,1.6-3.65,3.15-5.45,4.75-.83.73-1.58,1.54-2.35,2.31-.14.12-.29.28-.48.19-.15-.08-.09-.29-.09-.44.05-2.37-.04-4.74-.53-7.08-.54-2.52-1.41-4.94-2.79-7.14-.88-1.37-2.04-2.58-3.47-3.4-1.19-.69-2.43-1.26-3.91-1.25-10.44.02-20.89.02-31.35-.01-2.8,0-4.83,1.38-6.62,3.3-2.17,2.32-2.98,5.24-3.76,8.17-.45,1.65-.57,3.31-.57,5.01.02,12.21.04,24.43-.01,36.63-.01,2.66.46,5.19,1.21,7.71.48,1.64,1.13,3.2,2.07,4.59.97,1.46,2.21,2.72,3.84,3.57,1.31.7,2.66,1.04,4.15,1.04,10.47-.03,20.95,0,31.42-.04,1.54-.01,2.93-.68,4.14-1.62,3.37-2.64,4.85-6.29,5.63-10.29.44-2.25.58-4.52.54-6.81,0-.18-.12-.45.14-.52.21-.05.35.14.5.3,1.8,1.73,3.59,3.48,5.5,5.1,1.87,1.59,3.73,3.2,5.61,4.78,1.25,1.06,2.31.95,3.38-.3.37-.43.63-.92.8-1.47.05-.21.03-.45.28-.56v-47.08c-.34-.24-.26-.65-.41-.95Zm-19.97,35.82c-2.3,4.98-5.47,8.74-9.51,11.26-4.04,2.53-8.56,3.8-13.51,3.8-8.09,0-14.51-3.26-19.28-9.79-4.02-5.49-6.03-11.66-6.03-18.5,0-4.97,1.22-9.93,3.66-14.85,2.44-4.92,5.65-8.55,9.63-10.91,3.99-2.35,8.21-3.53,12.65-3.53,8.13,0,14.66,3.13,19.57,9.37,4.19,5.33,6.28,11.47,6.28,18.38,0,4.86-1.16,9.78-3.47,14.77Z"/>
    </g>
  </g>
</svg>