<?xml version="1.0" encoding="UTF-8"?>
<svg id="Calque_1" data-name="Calque 1" xmlns="http://www.w3.org/2000/svg" xmlns:xlink="http://www.w3.org/1999/xlink" viewBox="0 0 612 612">
  <defs>
    <style>
      .cls-1 {
        font-size: 130.5px;
        letter-spacing: .08em;
      }

      .cls-2, .cls-3, .cls-4 {
        fill: #fff;
      }

      .cls-2, .cls-4 {
        font-family: TimesNewRomanPSMT, 'Times New Roman';
      }

      .cls-5 {
        letter-spacing: 0em;
      }

      .cls-5, .cls-6 {
        font-size: 111.02px;
      }

      .cls-6 {
        letter-spacing: -.03em;
      }

      .cls-3, .cls-7 {
        stroke-width: 0px;
      }

      .cls-7 {
        fill: url(#Dégradé_sans_nom_2);
      }

      .cls-4 {
        font-size: 116.21px;
        letter-spacing: -.03em;
      }
    </style>
    <linearGradient id="Dégradé_sans_nom_2" data-name="Dégradé sans nom 2" x1="0" y1="306" x2="612" y2="306" gradientUnits="userSpaceOnUse">
      <stop offset="0" stop-color="#203b8f"/>
      <stop offset="1" stop-color="#28285b"/>
    </linearGradient>
  </defs>
  <rect class="cls-7" x="0" width="612" height="612"/>
  <g>
    <text class="cls-2" transform="translate(99.08 323.52) scale(.99 1)"><tspan class="cls-1" x="0" y="0">P</tspan><tspan class="cls-5" x="83.67" y="0" xml:space="preserve">  lé</tspan><tspan class="cls-6" x="222.85" y="0">m</tspan></text>
    <g>
      <path class="cls-3" d="m419.82,296.17c0,3.03,0,6.06,0,9.08,0,.5.03.94.4,1.23.29.23.4.63.4,1.08,0,.48.03.96,0,1.44-.04.66.17.94.66,1.1,2.52.84,5.02,1.78,7.41,3.14,1.35.77,1.45.96,1.45,2.87,0,.12-.01.24,0,.36.34,2.57-.79,3.9-2.34,4.82-1.85,1.1-3.83,1.65-5.83,1.93-3.77.53-7.53.49-11.25-.65-1.42-.43-2.77-1.09-4.03-2.05-.88-.67-1.41-1.66-1.41-3.06,0-.51,0-1.02,0-1.53,0-1.49.27-2.06,1.31-2.58,2.6-1.3,5.2-2.59,7.93-3.33.54-.15.69-.49.67-1.17-.03-.97-.15-2,.65-2.65.2-.17.15-.55.15-.84,0-6.44,0-12.89,0-19.33,0-.67-.2-.94-.69-1.07-.82-.22-1.62-.52-2.43-.82-1.11-.42-1.66-1.36-1.67-2.88-.02-2.19-.05-4.38.01-6.56.03-.96-.25-1.39-.88-1.71-1.2-.61-2.35-1.35-3.36-2.46-1.3-1.4-2.11-4.68-1.59-6.77.09-.36.23-.7.51-.77.5-.11.38-.47.28-.9-.28-1.2-.02-1.93.86-2.4.32-.17.32-.39.24-.76-.25-1.22-.04-1.94.77-2.52.25-.18.24-.34.18-.64-.26-1.28-.09-1.87.79-2.59.26-.21.18-.4.13-.67-.25-1.27,0-2.05.89-2.61.31-.2.18-.38.11-.62-.3-1.22-.05-2.06.84-2.62.31-.2.18-.37.12-.62-.3-1.18-.04-2.06.83-2.62.19-.12.27-.23.17-.46-.34-.74-.13-1.41.07-2.14.8-2.95,2.43-4.53,4.68-5.08,4.18-1.03,8.19-.49,11.94,2.33.69.52,1.38,1.04,2.01,1.67,2.25,2.27,3.15,5.29,2.73,9-.06.56-.22,1.04-.63,1.3-.3.19-.35.44-.23.87.25.88-.07,2.08-.7,2.56-.31.24-.4.47-.32.93.2,1.17-.07,1.96-.86,2.63-.23.2-.28.39-.21.74.26,1.16-.02,2.13-.79,2.72-.27.21-.32.4-.23.79.26,1.08-.02,2.06-.77,2.67-.27.21-.32.41-.24.8.24,1.13-.04,2.05-.79,2.65-.23.18-.37.36-.24.71.33.9.01,1.67-.35,2.34-.25.46-.32.88-.32,1.41,0,3.18-.02,6.36,0,9.53.01,1.39-.32,2.43-1.21,3.29-1.5,1.46-3.08,2.17-4.95,1.65-.9-.25-.91-.19-.91,1.06,0,2.94,0,5.88,0,8.81Zm-.85,10.9c-.74.25-.82-.32-.82-1.1.01-5.87,0-11.75,0-17.62,0-.39-.01-.78-.05-1.16-.03-.28-.12-.53-.38-.54-.22-.01-.3.21-.38.44-.13.4-.1.82-.1,1.24-.01,4.43-.02,8.87-.05,13.3,0,.9-.1,1.79-.15,2.69-.04,0-.08,0-.11,0-.09-5.22-.18-10.45-.28-15.67-.08,0-.15,0-.23,0,0,.32,0,.65,0,.97,0,5.24,0,10.49,0,15.73,0,1.6.53,2.21,1.75,1.98.27-.05.52-.18.78-.27.49-.19.38-.74.38-1.19,0-6.08,0-12.15,0-18.23,0-.4,0-.8,0-1.21-.03,0-.06,0-.1,0,0,.33,0,.65,0,.98,0,6.05,0,12.09,0,18.14,0,.53.06,1.09-.28,1.52Zm-4.61-69.39c-.84.92-1.37,1.87-1.71,3.01-.36,1.2-.33,1.27.62,1.24.29,0,.59-.03.88.03.35.07.57.39.58.86.02.44-.17.75-.48.88-.21.09-.44.09-.67.12-.49.06-.99.09-1.48.15-.45.05-.66.48-.61.99.05.49.41.31.67.3.27-.01.54-.05.81-.02.39.04.71.26.73.86.03.62-.23.96-.67,1.02-.4.06-.81.06-1.22.08-.25.01-.5,0-.74.04-.38.06-.56.43-.57.87,0,.54.35.43.61.45.27.02.54,0,.81.02.45.04.82.28.82.95,0,.67-.35.93-.81.94-.54,0-1.08,0-1.63,0-.44-.01-.68.31-.75.84-.07.56.31.46.55.56.38.16.65.48.58,1.05-.07.55-.36.8-.78.8-.27,0-.55-.03-.81.04-.34.08-.47.46-.51.86-.04.5.28.45.52.5.36.06.72.08,1.07.17.37.1.6.43.58.96-.02.52-.27.83-.65.87-.31.03-.63-.04-.94-.07-.31-.03-.63-.08-.94-.07-.4,0-.53.43-.58.84-.07.53.28.54.53.61.37.1.77.04,1.13.24.36.2.53.56.46,1.07-.06.5-.33.68-.69.69-.18,0-.36-.01-.54-.04-.4-.05-.81-.14-1.21-.16-.45-.02-.75.31-.77.9-.03.63.38.54.68.6.31.06.63.1.94.2.41.13.72.44.64,1.06-.08.66-.45.86-.91.78-.47-.08-.94-.16-1.41-.27-.45-.11-.71.12-.76.71-.11,1.3-.09,2.58.34,3.79.74,2.1,2.05,3.29,3.66,3.96,1.79.74,3.63,1.17,5.51,1.39,2.79.32,4.77-1.18,5.84-4.64.57-1.86,1.1-3.74,1.65-5.61.14-.49.21-.99.09-1.76-.74,2.49-1.39,4.75-2.08,6.99-.63,2.02-1.6,3.61-3.23,4.32-.42.18-.84.22-1.27.07-.25-.09-.44-.32-.5-.67-.07-.36.12-.57.32-.72.76-.59,1.19-1.54,1.57-2.52.56-1.44.56-1.45,1.68-.8.34.2.65.3,1.03-.38-.59.31-.94.06-1.31-.18-1.76-1.14-3.49-2.42-5.49-2.69-.85-.12-1.7-.3-2.55-.47-.39-.08-.72-.33-.68-.92.04-.58.34-.89.78-.93.16-.01.32-.01.47.02,2.28.42,4.58.76,6.63,2.32.42.32.66.22.78-.4.13-.66.42-.67.8-.33.22.2.48.35.73.48.3.15.59.13.86-.42-.78.38-1.28-.19-1.79-.58-1.66-1.28-3.4-2.22-5.34-2.36-.72-.05-1.44-.19-2.15-.32-.4-.07-.8-.24-.75-.91.05-.69.43-.99.91-.93,2.4.3,4.84.39,6.99,2.14.43.35.69.32.82-.39.11-.59.38-.67.76-.37.23.19.47.36.72.51.33.19.63.19.93-.38-.88.37-1.44-.3-2.02-.75-1.63-1.25-3.3-2.19-5.24-2.13-.69.02-1.39-.16-2.09-.25-.41-.05-.81-.23-.77-.88.04-.66.42-.98.9-.99.4,0,.81.08,1.21.12,2.06.16,4.11.39,5.91,1.94.39.34.6.14.75-.4.31-1.12.68-2.22.98-3.35.2-.77.46-1.05,1.01-.5.18.18.39.31.6.42.25.13.51.19.78-.25-.79.1-1.31-.45-1.85-.9-1.72-1.47-3.57-2.28-5.64-2.08-.56.05-1.13,0-1.69,0-.46-.01-.93-.13-.91-.88.02-.7.42-.99.95-1.01,2.52-.07,5.03-.16,7.27,1.79.22.19.46.22.54-.19.21-1.11.66-.86,1.16-.39.15.14.31.25.48.33.38.17.67.07.95-.66-.62.64-1.04.34-1.44-.03-2.19-2.08-4.61-2.96-7.3-2.43-.33.06-.68.01-1.01-.03-.29-.04-.51-.25-.56-.66-.05-.43.06-.79.35-.99.17-.12.38-.22.58-.23,2.52-.19,5.03-.3,7.28,1.62.34.29.55.22.64-.3.15-.83.47-.81.92-.37.18.18.37.35.58.46.43.23.82.2,1.06-.45-.47.43-.9.25-1.33-.1-.46-.38-.93-.74-1.39-1.11-1.52-1.24-3.16-1.7-4.93-1.44-.6.09-1.22.07-1.83.1-.42.02-.84-.16-.91-.71-.06-.54.33-.87.69-1.09.12-.07.26-.08.4-.1,2.53-.35,5.02-.35,7.27,1.57.21.18.39.16.49-.17.37-1.2.5-2.45.13-3.68-.3-.99-1.1-1.19-1.74-.51-.38.41-.61.95-.83,1.52-.45,1.17-.44,1.14-1.43.9-.48-.12-.55-.36-.35-.9.64-1.75,1.28-3.51,2.98-3.95-.35-.26-.63-.21-.93-.12-1.12.34-1.75,1.38-2.25,2.65-.12.3-.27.71-.62.47-.33-.23-.19-.61-.1-.95.23-.89.68-1.57,1.16-2.24-.87.51-1.41,1.43-1.84,2.51-.15.37-.28,1-.7.73-.47-.3-.13-.84-.01-1.25.19-.65.54-1.18.84-1.76-.17.08-.3.2-.42.33-.61.66-.99,1.55-1.37,2.44-.11.27-.26.55-.53.41-.31-.15-.27-.52-.18-.84.06-.25.16-.49.25-.74.25-.69.7-1.18,1.02-1.81-1.04.6-1.57,1.84-2.17,2.99-.15.3-.28.7-.61.5-.34-.2-.21-.61-.12-.94.23-.86.64-1.58,1.31-2.33-.6.24-.88.63-1.17,1-.47.59-.69,1.4-1.02,2.11-.13.28-.28.5-.55.33-.26-.16-.25-.47-.15-.77.14-.41.28-.8.49-1.38Zm-8.35,78.02c.25.52.54.77.84.96,1.16.76,2.37,1.34,3.63,1.67,5.3,1.41,10.58,1.32,15.83-.4,1.07-.35,2.11-.89,2.95-1.92.5-.62.51-1.06-.1-1.75.44.81.15,1.2-.15,1.59-.39.51-.88.82-1.38,1.11-1,.58-2.08.77-3.13,1.12-.55.18-1.07.37-1.21-.71-.03-.23-.23-.43-.37-.62-.86-1.17-1.89-2.03-2.9-2.94-.31-.28-.63-.22-.97-.14-.92.22-1.84.18-2.74-.18-.58-.23-1.03-.67-1.09-1.52-.05-.68-.27-.76-.72-.6-1.83.67-3.64,1.39-5.41,2.3-.61.31-1.22.65-1.73,1.21-.31.35-.7.63-.5,1.32-.34-.04-.49-.34-.83-.51Zm23.7.8c-.31.15-.27.46-.26.7.06,1.24-.43,2.04-1.17,2.63-.3.24-.62.72-.95.48-.27-.2-.08-.78-.12-1.18-.03-.29.12-.76-.26-.78-.36-.02-.49.34-.47.79.01.45,0,.9,0,1.35,0,.35-.15.57-.41.6-.33.03-.34-.3-.35-.61,0-.3-.02-.6,0-.9.02-.57-.1-.82-.59-.68-1.59.47-3.2.73-4.82.86-3.19.25-6.36.11-9.5-.73-1.11-.3-1.1-.32-1.14,1.16,0,.3.15.83-.27.83-.39,0-.4-.48-.41-.87-.02-.48,0-.96-.05-1.43-.03-.31-.22-.47-.44-.44-.22.04-.17.31-.17.51-.01.36,0,.72-.01,1.08,0,.38-.13.59-.43.39-1.04-.72-2.01-1.27-1.93-3.27,0-.14.02-.3-.1-.38-.24,1.56.01,2.58.87,3.25.95.74,1.95,1.39,3.02,1.77,5.03,1.79,10.08,1.83,15.14.33,1.46-.43,2.88-1.01,4.09-2.25.82-.84.93-1.93.76-3.19Zm-5.09-62.02c-.92.04-1.24.43-1.26,1.43-.02,1.53-.01,3.06-.01,4.58,0,7.19,0,14.38,0,21.58,0,1.77-.91,2.76-2.21,2.46-2.2-.51-4.4-1-6.6-1.53-1.63-.39-2.34-1.53-2.35-3.71,0-1.68,0-3.36,0-5.03,0-.32.03-.76-.32-.75-.34.01-.21.46-.21.72-.01,2.31-.02,4.61,0,6.92,0,1.47.4,2.1,1.47,2.51,1.89.74,3.84,1.08,5.76,1.6,1.01.28,2.02.63,3.07.6,1.22-.03,1.83-.73,2.01-2.32.08-.71.11-1.43.11-2.15,0-8.36,0-16.72,0-25.08,0-.64-.02-1.27.55-1.83Zm-9.42,22.86c0,.48-.02.96,0,1.44.05,1.29.58,2.09,1.53,2.41.5.17.58,0,.5-.65-.23-1.81.45-2.54,1.76-1.91.38.18.74.45,1.12.64.27.13.54.05.74-.25.15-.23.15-.52.03-.75-.35-.65-.7-1.34-1.33-1.57-.91-.34-1.82-.7-2.74-1.01-1.61-.54-1.61-.53-1.6,1.67Zm11.67-39.81c.18.16.36.32.54.49,1.24,1.15,1.65,2.4,1.13,4.26-.82,2.91-1.55,5.87-2.62,8.65-.29.74-.47,1.56-.69,2.34-.04.16-.13.37.05.46.16.09.24-.11.3-.27.11-.33.2-.67.32-.99,1.23-3.3,2.16-6.77,3.1-10.23.25-.91.08-1.85-.03-2.94,1.34,1.09,2.58,2.04,3.23,3.99-.49.01-1.01-.14-1.12.7-.1.79.02,1.49.52,2.01.51.53.84,0,1.18-.44.29.62.2,1.23.21,1.82,0,1.32-.04,1.35-.97.86-.02-.01-.06.04-.12.08.17.14.31.28.46.4.62.5.76.41.82-.56.11-1.73-.04-3.39-.65-4.97-1.2-3.09-3.47-4.27-5.64-5.65Zm-2.19,28c0,1.37-.01,2.75,0,4.12,0,.7.24.86.68.49.55-.46.97-1.01.91-2.01-.06-1.13-.01-2.27-.01-3.41,0-1.17,0-2.33-.01-3.5,0-.45-.09-.84-.45-.99-.35-.14-.61.08-.85.37-.24.29-.27.67-.27,1.07,0,1.29,0,2.57,0,3.86Zm-1.78,13.93h0c0-.42,0-.84,0-1.26,0-1.75,0-1.74-1.31-1.47-.4.08-.53.17-.26.7.49.95.48,1.63.05,2.28-.44.66-1.09.8-1.8.4-.35-.2-.69-.45-1.05-.62-.2-.09-.45-.16-.59.2-.2.54.25,1.86.69,1.97,1.22.31,2.43.59,3.65.89.4.1.6-.11.6-.66,0-.81,0-1.61,0-2.42Zm-4.33,2.76c.1.36.53.32.39.7-.11.29-.4.2-.62.14-.29-.07-.57-.16-.85-.27-.1-.04-.27-.17-.21-.29.39-.89-.25-.65-.48-.71-.7-.19-1.34-.5-1.88-1.14-.43-.5-.85-.23-1.25.04-.24.16-.39.44-.31.81.12.58.5.75.88.85,2.31.55,4.61,1.09,6.92,1.62.42.1.86.13,1.23-.28.08-.09.18-.22.18-.35.01-.19-.15-.2-.25-.22-1.23-.3-2.46-.6-3.74-.91Zm-2.87,26.38s-.06.02-.08.04c0,.99,0,1.98,0,2.96,0,.61.2,1.06.63,1.26,1.05.47,2.13.52,3.19.06.38-.16.7-.47.7-1.08,0-1.08,0-2.15,0-3.23-.08.81-.07,1.61-.09,2.42-.03,1.29-.36,1.78-1.3,2-.49.12-.79-.03-.77-.8.02-.93,0-1.86,0-2.79,0-.3-.08-.56-.33-.58-.32-.03-.27.33-.27.58,0,.96,0,1.92,0,2.88,0,.32.03.68-.37.66-.76-.04-1.27-.68-1.3-1.69-.02-.9,0-1.79,0-2.69Zm9-32.11c0,.46,0,.79,0,1.12,0,.19.04.35.22.36.35.02,1.28-.91,1.3-1.35.02-.59.02-1.19,0-1.79,0-.53-.18-.68-.57-.44-.74.45-1.17,1.09-.96,2.1Zm1.56-19.51c0-1.07-.23-1.49-.8-1.44-.58.05-.79.55-.79,1.28.01,1.28.84.68,1.27.89.48.24.23-.49.32-.73Z"/>
      <path class="cls-3" d="m415.64,252.09c1.78-.05,3.52.19,5.11,1.33.16.11.32.22.47.35.39.31.51.77.3,1.3-.2.51-.59.63-.93.36-1.56-1.23-3.25-1.46-5.01-1.43-.5,0-.9-.27-.86-1.06.04-.76.48-.84.92-.85Z"/>
      <path class="cls-3" d="m413.8,267.52c.04-2.17.39-2.49,1.9-1.76.99.48.99.49.58,1.72-.24.71-.47,1.43-.77,2.09-.33.72-.8.71-1.2.05-.3-.49-.51-1.39-.5-2.1Z"/>
      <path class="cls-3" d="m414.38,272.37c-1.61-.64-2.69-2.85-2.48-4.93.02-.2.07-.41.12-.6.07-.25.21-.39.42-.35.21.05.33.26.3.51-.23,2.2.55,3.85,1.64,5.36Z"/>
      <path class="cls-3" d="m412.82,271.81c-1.51-.6-2.58-2.8-2.4-4.68.04-.43.05-1.03.5-1,.44.03.36.6.35,1-.06,1.52.36,2.8,1.1,3.93.16.24.3.51.45.76Z"/>
      <path class="cls-3" d="m411.42,271.46c-1.3-.84-2.14-2.12-2.35-4.01-.03-.23-.03-.48,0-.71.06-.37.09-.87.47-.83.34.04.36.48.35.85-.03,1.72.48,3.13,1.34,4.36.07.1.12.23.18.34Z"/>
      <path class="cls-3" d="m408.57,270.39c-1.25-.56-2.38-2.9-2.28-4.55.02-.35.07-.68.4-.7.3-.02.48.22.48.6.02,1.78.5,3.31,1.4,4.65Z"/>
      <path class="cls-3" d="m410.01,271.14c-1.36-.99-2.2-2.44-2.3-4.53-.01-.23.03-.48.08-.7.05-.25.17-.43.39-.41.22.02.32.23.34.49.05.56.05,1.14.12,1.7.18,1.33.74,2.42,1.37,3.45Z"/>
      <path class="cls-3" d="m413.41,252.5c.01.81-.45,1.58-.96,1.57-.51,0-.64-.48-.66-1.01-.04-.81.44-1.59.95-1.58.38,0,.67.44.68,1.02Z"/>
      <path class="cls-3" d="m414.79,313.22c-1.08.91-2.16,1.82-3.23,2.74-.36.31-.77.55-1.07.93-.69.86-1.41.75-2.17.26-.13-.09-.34-.1-.35-.36,0-.27.2-.3.34-.37.88-.47,1.76-.91,2.64-1.38,1.25-.67,2.5-1.35,3.74-2.03.03.07.07.14.1.21Z"/>
      <path class="cls-3" d="m410.75,317.84c1.29-1.2,2.55-2.37,3.8-3.53.04.07.08.13.12.2-1.02,1.18-2.04,2.38-3.08,3.53-.21.23-.51.15-.83-.19Z"/>
    </g>
    <text class="cls-4" transform="translate(440.74 323.11) scale(.99 1)"><tspan x="0" y="0">k</tspan></text>
    <g>
      <g>
        <path class="cls-3" d="m467.34,338.68c1.23,0,2.27.21,3.24.65.46.21.88.45,1.26.75.54.42.97.91,1.29,1.47.21.37.32.76.42,1.15.06.23.09.45.08.68,0,.19-.13.28-.36.25-.27-.04-.53-.08-.8-.12-.12-.02-.24-.03-.36-.06-.16-.03-.23-.11-.24-.24-.03-.36-.08-.72-.26-1.05-.24-.46-.57-.87-1.01-1.21-.43-.34-.91-.61-1.45-.8-.97-.34-1.97-.39-2.98-.11-.84.23-1.54.62-2.11,1.18-.38.38-.66.79-.84,1.26-.09.25-.13.51-.15.77-.01.12-.08.19-.22.21-.4.06-.79.13-1.19.18-.22.03-.32-.05-.33-.24,0-.35.03-.69.14-1.02.1-.28.19-.57.35-.84.23-.39.51-.77.86-1.09.98-.91,2.21-1.47,3.67-1.68.37-.05.73-.09.97-.08Z"/>
        <path class="cls-3" d="m464.55,346c0,.4-.02.8,0,1.2.03.5-.54.95-1.12.99-.56.04-1.05-.21-1.26-.55-.07-.12-.1-.25-.1-.39,0-.83,0-1.66,0-2.49,0-.52.55-.91,1.1-.94.58-.04,1,.16,1.28.58.07.1.09.22.09.33,0,.43,0,.85,0,1.28h0Z"/>
        <path class="cls-3" d="m472.88,345.99c0,.4-.02.8,0,1.2.03.51-.54.95-1.11.99-.58.04-1.04-.2-1.27-.56-.08-.12-.1-.26-.1-.4,0-.82.01-1.63,0-2.45,0-.51.51-.91,1.07-.96.57-.05,1,.14,1.3.54.08.12.11.25.11.39,0,.42,0,.84,0,1.26Z"/>
        <path class="cls-3" d="m467.72,345.81c0,.74,0,1.48,0,2.23,0,.17-.11.26-.29.24-.15-.02-.21-.09-.21-.23,0-.48,0-.96,0-1.44,0-1.01,0-2.02,0-3.03,0-.16.08-.23.24-.24.16-.01.26.07.26.2,0,.18,0,.36,0,.54,0,.58,0,1.15,0,1.73Z"/>
        <path class="cls-3" d="m461.61,346c0,.36,0,.73,0,1.09,0,.12-.05.14-.18.15-.37.01-.63-.12-.8-.38-.04-.07-.04-.14-.04-.21,0-.43,0-.87,0-1.3,0-.3.29-.56.65-.59q.37-.03.37.28c0,.32,0,.65,0,.97Z"/>
        <path class="cls-3" d="m474.34,345.99c0,.22,0,.44,0,.66,0,.33-.29.58-.69.58-.35,0-.3.03-.3-.24,0-.69,0-1.39,0-2.08,0-.16,0-.15.19-.16.51-.02.84.26.8.66,0,.02,0,.05,0,.07,0,.17,0,.34,0,.51Z"/>
        <path class="cls-3" d="m468.21,345.81c0-.5,0-1,0-1.49,0-.17.13-.26.32-.22.13.03.18.1.18.21,0,.3,0,.6,0,.9,0,.7,0,1.4,0,2.1,0,.16-.1.24-.28.23-.14,0-.23-.09-.23-.22,0-.5,0-1,0-1.5Z"/>
        <path class="cls-3" d="m466.75,345.8c0,.5,0,1,0,1.49,0,.17-.13.26-.32.22-.1-.02-.16-.07-.18-.16,0-.02,0-.03,0-.05,0-1,0-2,0-3,0-.15.09-.23.26-.22.16,0,.24.08.24.22,0,.5,0,1,0,1.49Z"/>
        <path class="cls-3" d="m469.18,345.79c0-.24,0-.47,0-.71,0-.15.1-.24.26-.24.15,0,.25.09.25.23,0,.49,0,.98,0,1.47,0,.17-.16.26-.35.21-.12-.03-.16-.11-.16-.2,0-.25,0-.5,0-.76Z"/>
        <path class="cls-3" d="m465.78,346.19c0,.24,0,.48,0,.72,0,.16-.09.23-.27.23-.15,0-.24-.08-.24-.23,0-.49,0-.97,0-1.46,0-.14.09-.23.24-.23.17,0,.27.08.27.23,0,.24,0,.49,0,.73Z"/>
      </g>
      <g>
        <path class="cls-3" d="m411.55,342.61v30.29h-8.38v-21.08l-5.83,21.08h-4.85l-5.99-20.73v20.73h-2.92v-30.29h8.82l5.13,18.29,5.11-18.29h8.9Z"/>
        <path class="cls-3" d="m432.18,364.71l3.22.95c-.34,5.16-3.35,7.74-9.04,7.74-7.37,0-11.05-3.72-11.05-11.16,0-3.61.98-6.57,2.94-8.88,1.96-2.31,4.47-3.46,7.52-3.46,6.39,0,9.58,4.17,9.58,12.52h-11.67c0,5.86,1.47,8.79,4.41,8.79,2.75,0,4.12-1.66,4.12-4.97,0-.44-.01-.95-.04-1.53Zm-6.93-16.82h-1.89l3.11-5.86h6.29l-7.52,5.86Zm-1.58,12.03h4.78c0-5.21-.78-7.81-2.32-7.81-1.4,0-2.19,1.93-2.37,5.79l-.09,2.02Z"/>
        <path class="cls-3" d="m458.61,342.14v30.76h-8v-1.93c-1.35,1.63-3.14,2.44-5.39,2.44-4.97,0-7.46-3.86-7.46-11.58s2.63-11.92,7.89-11.92c2.08,0,3.73.92,4.96,2.77v-10.07c2.41,0,5.08-.16,8-.47Zm-10.37,11.03c-1.35,0-2.02,1.25-2.02,3.75l-.15,4.75.09,4.33c0,2.77.76,4.15,2.28,4.15s2.21-1.36,2.21-4.08l.11-5.46-.18-3.73c-.23-2.47-1.02-3.71-2.35-3.71Z"/>
        <path class="cls-3" d="m463.06,372.9h8v-22.95c-2.84.4-5.5.6-8,.6v22.35Z"/>
        <path class="cls-3" d="m497.88,372.1c-1.96.77-3.87,1.15-5.72,1.15-2.75,0-4.44-.87-5.09-2.6-1.33,1.81-3.25,2.71-5.75,2.71-4.66,0-7-2.19-7-6.57,0-3.33,2.13-5.67,6.4-7.01,3.92-1.24,5.88-2.74,5.88-4.48,0-2.29-1.13-3.44-3.38-3.44-2.6,0-3.9,1.11-3.9,3.33,0,.7.2,1.61.61,2.75l-3.97-.78c-.1-.7-.15-1.35-.15-1.95,0-3.55,3.2-5.33,9.61-5.33s9.12,1.66,9.12,4.97v13.58c0,1.39.45,2.09,1.34,2.09.28,0,.69-.16,1.23-.47l.77,2.04Zm-11.34-12.65c-.5.58-1.07,1.06-1.73,1.44-1.65.98-2.48,2.62-2.48,4.93,0,2.96.57,4.44,1.71,4.44,1.67,0,2.5-1.46,2.5-4.39v-6.41Z"/>
      </g>
    </g>
    <g>
      <path class="cls-3" d="m206.28,269.35c3.92,5.3,5.88,12.56,5.88,21.79,0,7.38-1.17,12.58-3.53,15.6-2.36,3.03-5.35,4.54-8.98,4.54-4.86,0-8.77-2.74-11.74-8.22-2.97-5.49-4.45-12.01-4.45-19.58,0-4.69.62-8.53,1.85-11.52,1.23-2.98,2.85-5.07,4.85-6.27,2-1.19,3.99-1.79,5.98-1.79,4.11,0,7.49,1.82,10.15,5.45Z"/>
      <path class="cls-3" d="m238.4,266.62c-.37-.78-.79-1.48-1.6-1.95-.79-.46-1.39-.13-1.96.3-1.26.95-2.39,2.06-3.57,3.1-1.73,1.53-3.49,3.01-5.21,4.54-.79.7-1.51,1.47-2.25,2.21-.14.12-.28.26-.46.19-.15-.08-.08-.27-.08-.42.05-2.27-.04-4.53-.51-6.77-.52-2.41-1.35-4.73-2.67-6.83-.84-1.31-1.95-2.47-3.32-3.26-1.14-.66-2.33-1.21-3.74-1.2-9.99.02-19.99.02-30,0-2.68,0-4.62,1.32-6.33,3.16-2.08,2.22-2.85,5.01-3.6,7.82-.43,1.58-.54,3.17-.54,4.79.02,11.69.04,23.38-.01,35.06-.01,2.54.44,4.97,1.16,7.38.46,1.57,1.08,3.06,1.98,4.4.93,1.39,2.12,2.6,3.67,3.42,1.25.67,2.55.99,3.97.99,10.02-.03,20.05,0,30.07-.04,1.47-.01,2.81-.65,3.96-1.55,3.22-2.52,4.64-6.02,5.39-9.84.42-2.15.55-4.33.52-6.52,0-.18-.12-.43.14-.5.2-.05.33.14.48.28,1.72,1.66,3.43,3.33,5.27,4.88,1.79,1.52,3.57,3.06,5.37,4.57,1.2,1.01,2.21.91,3.23-.28.35-.41.61-.88.76-1.4.05-.2.03-.43.27-.54v-45.06c-.32-.23-.25-.62-.4-.91Zm-19.11,34.28c-2.2,4.77-5.24,8.36-9.11,10.78-3.87,2.42-8.19,3.64-12.93,3.64-7.74,0-13.88-3.12-18.45-9.37-3.85-5.25-5.77-11.16-5.77-17.7,0-4.76,1.17-9.5,3.5-14.21,2.34-4.71,5.4-8.18,9.22-10.44,3.82-2.25,7.85-3.38,12.11-3.38,7.78,0,14.03,2.99,18.73,8.97,4.01,5.1,6.01,10.97,6.01,17.59,0,4.65-1.11,9.36-3.32,14.13Z"/>
    </g>
  </g>
</svg>