<?xml version="1.0" encoding="UTF-8"?>
<svg id="Calque_1" data-name="Calque 1" xmlns="http://www.w3.org/2000/svg" viewBox="0 0 612 612">
  <defs>
    <style>
      .cls-1 {
        fill: #7b6a58;
      }

      .cls-1, .cls-2, .cls-3 {
        stroke-width: 0px;
      }

      .cls-2 {
        fill: #fff;
      }

      .cls-4 {
        font-family: BerlinSansFBDemi-Bold, 'Berlin Sans FB Demi';
        font-size: 42.72px;
        font-weight: 700;
        letter-spacing: .01em;
      }

      .cls-4, .cls-3 {
        fill: #f2be22;
      }
    </style>
  </defs>
  <rect class="cls-2" width="612" height="612"/>
  <path class="cls-1" d="m158.1,71.31s-.05-.01-.08-.02c.18-.05.35-.1.53-.14.04.01.07.02.11.03-.17.05-.34.09-.51.14h-.05Z"/>
  <path class="cls-1" d="m158.1,71.31s-.05-.01-.08-.02c.18-.05.35-.1.53-.14.04.01.07.02.11.03-.17.05-.34.09-.51.14h-.05Z"/>
  <path class="cls-1" d="m158.66,71.18c-.17.05-.34.09-.51.14h-.05s-.05-.02-.08-.03c.18-.05.35-.1.53-.14.04.01.07.02.11.03Z"/>
  <g>
    <path class="cls-3" d="m472.65,361.1H140.08c0-91.85,74.45-166.29,166.28-166.29,4.94,0,9.84.21,14.68.66l-6.55,14.2-4.41,9.64c-1.24-.03-2.48-.04-3.72-.04-85.24,0-154.33,60.98-154.33,136.21h308.68c0-66.83-54.54-122.42-126.48-134l-1.81-24.62c79.47,12.5,140.24,81.28,140.24,164.26Z"/>
    <polygon class="cls-3" points="402.98 355.46 204.04 355.46 244.09 280.88 272.87 299.67 307.23 231.46 311.64 222.68 318.19 209.76 327.92 190.55 329.57 211.01 331.38 233.43 334.28 269.37 347.92 237.84 396.72 342.11 402.98 355.46"/>
    <text class="cls-4" transform="translate(158.56 411.26)"><tspan x="0" y="0">VALENCIENNE</tspan></text>
  </g>
</svg>