<?xml version="1.0" encoding="UTF-8"?>
<svg id="Calque_1" data-name="Calque 1" xmlns="http://www.w3.org/2000/svg" viewBox="0 0 612 612">
  <defs>
    <style>
      .cls-1 {
        fill: #ffde00;
      }

      .cls-1, .cls-2, .cls-3 {
        stroke-width: 0px;
      }

      .cls-4 {
        fill: none;
        stroke: #fff;
        stroke-miterlimit: 10;
      }

      .cls-2 {
        fill: #fff;
      }

      .cls-3 {
        fill: #1d1d1b;
      }
    </style>
  </defs>
  <rect class="cls-3" width="612" height="612"/>
  <path class="cls-2" d="m410.65,353.67v-18.88c6.11,3.4,11.25,5.1,15.4,5.1,2.42,0,4.33-.64,5.73-1.91,1.4-1.27,2.1-2.96,2.1-5.07,0-1.62-.56-3.14-1.69-4.55-1.13-1.42-3.07-3.14-5.82-5.16-6.66-4.86-11.49-9.38-14.48-13.57-2.99-4.19-4.49-8.85-4.49-13.99,0-7,2.31-12.71,6.94-17.12,4.63-4.41,10.61-6.62,17.95-6.62,5.43,0,10.82,1.11,16.17,3.34v18.15c-5.73-2.99-10.38-4.49-13.94-4.49-2.38,0-4.25.56-5.63,1.67-1.38,1.11-2.07,2.64-2.07,4.58,0,3.4,3.2,7.22,9.61,11.47,3.82,2.51,7.69,6.04,11.62,10.59,3.92,4.55,5.89,9.82,5.89,15.81,0,7-2.57,12.8-7.7,17.39-5.14,4.59-11.65,6.89-19.54,6.89-5.39,0-10.74-1.21-16.04-3.64Z"/>
  <path class="cls-4" d="m329.99,243.25v132.41h153v-132.41h-153Zm43.77,30.78v35.52l-9.25,11.47-1.02,1.26-2.5,3.1c-.42.51-.47,1.19-.15,1.76.33.57.98.92,1.69.92h11.21s0,.11,0,.16c0,.77-.02,1.52-.06,2.26,0,.21,0,.42-.03.63l-5.79,5.72-1.58,1.56-3.21,3.16-15.96,15.74c-.47.02-.94.02-1.42.02-.38,0-.76,0-1.14-.02l12.25-20.43c.32-.52.3-1.15-.04-1.67-.34-.51-.96-.82-1.63-.82h-1.63c.15-.42.27-.87.36-1.34.15-.79.23-1.64.23-2.55v-22.59l4.26-6.43c.35-.53.35-1.19,0-1.73-.36-.53-1.02-.85-1.7-.83l-2.56.08v-24.95h19.67Z"/>
  <path class="cls-1" d="m366.28,338.39c-1.01,1.66-2.12,3.48-3.28,5.39l-2.24,2.21c-.09.21-.17.41-.26.61-1.99,4.37-4.93,7.58-8.82,9.62-.67.36-1.38.67-2.14.97-.07.03-.14.05-.21.08l-9.69,9.56s0,0,0,.01c-3.53,4.9-6.03,8.41-6.2,8.63l-.19.19h-196v-132.41h226.06c-3.49,8.84-8.7,21.85-13.09,32.76h3.88v22.97l2.56-.08c.68-.02,1.34.3,1.7.83.35.54.35,1.2,0,1.73l-4.26,6.43v22.59c0,.91-.08,1.76-.23,2.55-.09.47-.21.92-.36,1.34h1.63c.67,0,1.29.31,1.63.82.34.52.36,1.15.04,1.67l-12.25,20.43c.38.02.76.02,1.14.02.48,0,.95,0,1.42-.02l15.96-15.74,3.21-3.16Z"/>
  <path class="cls-3" d="m358.35,299.73c-.36-.53-1.02-.85-1.7-.83l-2.56.08v8.91l4.26-6.43c.35-.53.35-1.19,0-1.73Zm-3.22,34.64h-1.63c-.03.12-.08.24-.12.35-.23.62-.53,1.19-.88,1.7-.2.3-.43.59-.67.86-.16.17-.32.34-.49.48-1.45,1.34-3.34,2.01-5.65,2.01s-4.2-.67-5.64-2.01c-.12-.1-.24-.21-.35-.33-.81-.85-1.4-1.87-1.76-3.06-.17-.5-.28-1.03-.35-1.59-.08-.53-.12-1.1-.12-1.69v-57.06h-19.8v50.32c0,11.94,2.1,20.41,6.31,25.43,1.57,1.88,3.58,3.41,6.01,4.59,2.87,1.39,6.34,2.29,10.41,2.68,1.32.14,2.7.22,4.15.24l12.25-20.43c.32-.52.3-1.15-.04-1.67-.34-.51-.96-.82-1.63-.82Zm3.22-34.64c-.36-.53-1.02-.85-1.7-.83l-2.56.08v8.91l4.26-6.43c.35-.53.35-1.19,0-1.73Zm6.16,21.29l-1.02,1.26-2.5,3.1c-.42.51-.47,1.19-.15,1.76.33.57.98.92,1.69.92h11.21c.02-.29.02-.57.02-.85v-17.66l-9.25,11.47Zm1.77,17.37l-3.21,3.16-15.96,15.74c.55,0,1.09-.02,1.62-.05.27,0,.54-.03.81-.05.49-.02.97-.06,1.44-.11.55-.04,1.09-.1,1.62-.17.23-.03.46-.06.68-.09.94-.13,1.83-.29,2.69-.48h.01s.03-.01.04-.01c1.29-.28,2.48-.63,3.57-1.04h0c.84-.32,1.62-.66,2.35-1.04,3.89-2.05,6.82-5.26,8.82-9.63.09-.19.17-.4.26-.61.5-1.17.92-2.43,1.29-3.79.29-1.1.53-2.25.73-3.47.26-1.55.44-3.2.56-4.95.02-.23.03-.46.04-.69l-5.79,5.72-1.58,1.56Z"/>
  <g>
    <path class="cls-2" d="m410.56,243.25l.5-.64,1.9-2.43c.4-.53.46-1.2.13-1.76s-.98-.91-1.69-.91c-19.53.06-49.14.11-50.79,0-.86-.08-1.66.37-1.96,1.09l-1.69,4.01-.27.64-19.22,45.64-4.98,11.82c-.23.53-.14,1.12.23,1.59.37.46.97.71,1.61.7l3.14-.1,15.85-.5-15.85,23.91-5.89,8.89c-.35.52-.36,1.17-.03,1.7.34.53.98.86,1.65.86h18.77l-11.57,19.29-10.19,16.99c-.15.25-.22.51-.22.78,0,.18.03.36.1.54,0,.06.04.11.07.16.02.05.04.1.08.14,0,.01,0,.01,0,.02.03.06.07.11.11.15.04.05.07.1.12.14.09.1.19.18.31.25.33.21.71.31,1.1.31.51,0,1.02-.19,1.4-.56l.31-.31.66-.65.18-.17v-.02s.03-.03.03-.03l18.13-17.88,20.45-20.16,9.38-9.25c.5-.49.63-1.2.32-1.82-.3-.61-.98-1.01-1.72-1.01h-14.8l7.53-9.34,11.92-14.78,11.94-14.8c.42-.52.48-1.2.15-1.76-.32-.57-.98-.93-1.69-.93h-16.7l6.03-7.69,25.15-32.12m-36.37,40.53c-.41.52-.45,1.2-.13,1.76.32.56.97.91,1.68.91h16.64l-18.62,23.1-9.25,11.47-1.02,1.26-2.5,3.1c-.42.51-.47,1.19-.15,1.76.33.57.98.92,1.69.92h14.21l-3.09,3.05-5.79,5.72-1.58,1.56-3.21,3.16-15.96,15.74-.25.25-.02.02-5.99,5.91,3.7-6.18,12.25-20.43c.32-.52.3-1.15-.04-1.67-.34-.51-.96-.82-1.63-.82h-18.6l1.06-1.59,16.5-24.89,4.26-6.43c.35-.53.35-1.19,0-1.73-.36-.53-1.02-.85-1.7-.83l-2.56.08-16.62.53h-.43s.43-1.01.43-1.01l23.27-55.25.98-2.32h1.01c.58.01,1.22.02,1.95.02h.29c4.97.03,13.13.02,21.32.01,4.09-.01,8.19-.01,11.9-.02,3.71-.01,7.03-.02,9.57-.03l-1.83,2.34-31.74,40.53Z"/>
    <path class="cls-1" d="m354.09,307.89v22.59c0,.91-.08,1.76-.23,2.55-.09.47-.21.92-.36,1.34h-16.97l1.06-1.59,16.5-24.89Z"/>
    <path class="cls-1" d="m347.11,357.29l-.25.25-.02.02-5.99,5.91,3.7-6.18c.38.02.76.02,1.14.02.48,0,.95,0,1.42-.02Z"/>
    <path class="cls-3" d="m360.99,325.38c-.42.51-.47,1.19-.15,1.76.33.57.98.92,1.69.92h11.21s0,.11,0,.16c0,.77-.02,1.52-.06,2.26,0,.21,0,.42-.03.63l-5.79,5.72-1.58,1.56-3.21,3.16-15.96,15.74c-.47.02-.94.02-1.42.02-.38,0-.76,0-1.14-.02l12.25-20.43c.32-.52.3-1.15-.04-1.67-.34-.51-.96-.82-1.63-.82h-1.63c.15-.42.27-.87.36-1.34.15-.79.23-1.64.23-2.55v-22.59l4.26-6.43c.35-.53.35-1.19,0-1.73-.36-.53-1.02-.85-1.7-.83l-2.56.08v-24.95h19.67v35.52l-9.25,11.47-1.02,1.26-2.5,3.1Z"/>
    <path class="cls-1" d="m376.74,328.06l-3.09,3.05c.02-.21.03-.42.03-.63.04-.74.06-1.49.06-2.26,0-.05,0-.11,0-.16h3Z"/>
    <path class="cls-1" d="m374.19,283.78c-.41.52-.45,1.2-.13,1.76.32.56.97.91,1.68.91h16.64l-18.62,23.1v-35.52h-19.67v24.95l-16.62.53h-.43s.43-1.01.43-1.01l23.27-55.25.98-2.32h1.01c.58.01,1.22.02,1.95.02h.29c4.97.03,13.13.02,21.32.01,4.09-.01,8.19-.01,11.9-.02,3.71-.01,7.03-.02,9.57-.03l-1.83,2.34-31.74,40.53Z"/>
  </g>
  <path class="cls-3" d="m173.15,273.49h54.87l-29.6,63.73h26.99v17.3h-56.46l29.35-63.67h-25.15v-17.36Z"/>
  <path class="cls-3" d="m248.57,274.62h39.02v17.24h-19.73v14.93h17.12v16.81h-17.12v14.75h19.86v17.3h-39.15v-81.03Z"/>
</svg>