<?xml version="1.0" encoding="UTF-8"?>
<svg id="Calque_1" data-name="Calque 1" xmlns="http://www.w3.org/2000/svg" xmlns:xlink="http://www.w3.org/1999/xlink" viewBox="0 0 595.28 595.28">
  <defs>
    <style>
      .cls-1 {
        fill: url(#linear-gradient-2);
      }

      .cls-2 {
        fill: url(#New_Gradient_Swatch_19);
      }

      .cls-3 {
        fill: url(#linear-gradient-3);
      }

      .cls-4 {
        fill: url(#linear-gradient);
      }

      .cls-5 {
        fill: url(#linear-gradient-4);
      }
    </style>
    <linearGradient id="New_Gradient_Swatch_19" data-name="New Gradient Swatch 19" x1="0" y1="297.64" x2="595.28" y2="297.64" gradientUnits="userSpaceOnUse">
      <stop offset="0" stop-color="#d0912e"/>
      <stop offset=".51" stop-color="#ac6c21"/>
      <stop offset="1" stop-color="#874413"/>
    </linearGradient>
    <linearGradient id="linear-gradient" x1="88.38" y1="288.78" x2="511.08" y2="288.78" gradientUnits="userSpaceOnUse">
      <stop offset=".11" stop-color="#fff"/>
      <stop offset="1" stop-color="#f4dcca"/>
    </linearGradient>
    <linearGradient id="linear-gradient-2" x1="423.86" y1="450.77" x2="497.37" y2="450.77" xlink:href="#linear-gradient"/>
    <linearGradient id="linear-gradient-3" x1="293.57" y1="259.63" x2="358.75" y2="259.63" xlink:href="#linear-gradient"/>
    <linearGradient id="linear-gradient-4" x1="238.84" y1="346.11" x2="304.01" y2="346.11" xlink:href="#linear-gradient"/>
  </defs>
  <rect class="cls-2" x="0" y="0" width="595.28" height="595.28" rx="297.64" ry="297.64"/>
  <g>
    <path class="cls-4" d="m116.03,514.74c-11.61-13.03-18.18-28.51-22.04-45.3-2.85-12.39-2.51-25.09-3.41-37.65-.99-13.78-1.26-27.6-2.06-41.39-1.39-23.87,7.51-42.96,26.55-57.23,23.64-17.72,47.4-35.29,71.2-52.8,3.05-2.24,4.13-4.2,3.19-8.26-3.7-16.09-2.7-32.28-.31-48.51,2.81-19.09.66-37.8-7.13-55.47-6.72-15.23,1.85-32.72,18.43-36,2.48-.49,3.43-1.4,4.04-4.08,2.87-12.43,14.62-21.58,27.62-21.84,2.12-.04,3.32-.49,4.51-2.48,5.52-9.21,13.67-14.31,24.58-14.38,2.04-.01,3.01-.71,4.03-2.46,9.44-16.15,27.64-20.11,43-9.3,2.01,1.42,2.73,1.47,4.26-.55,7.29-9.65,16.96-14.58,29.2-14.18,5.55.18,11.12-.45,16.6,1.28,14.43,4.54,21.82,15.11,25.1,29.13,2.59,11.04,1.6,21.92-2.86,32.3-5.34,12.41-6.01,24.84-1.48,37.58,1.24,3.48,2.8,6.46,5.77,9.02,28.75,24.82,60.09,46.24,90.35,69.07,7.15,5.39,14.64,10.36,20.47,17.32,10.73,12.82,15.66,27.69,15.42,44.26-.3,20.1-2.04,40.08-5.8,59.85-.86,4.51-4.06,7.79-7.51,7.13-4.26-.82-6.68-4.46-5.84-9.16,3.52-19.79,5.74-39.72,5.57-59.9-.15-17.4-7.09-31.37-20.82-41.68-27.73-20.82-56.08-40.8-83.32-62.28-.43-.34-.97-.52-1.97-1.05,1.64,7.87,3.42,15.19,3.81,22.77.23,4.57.56,9.1-.11,13.63-.42,2.88.39,4.9,2.6,6.91,8.71,7.9,17.51,15.75,25.78,24.1,15.16,15.31,19.1,33.46,11.93,53.76-1.14,3.22-.18,4.16,2.4,5.09,5.99,2.17,12.11,3.29,18.51,3.12,3.63-.09,6.17,1.89,7.14,5.39.87,3.14-.83,5.37-3.27,7.08-1.67,1.17-3.69.93-5.56.92-14.82-.03-28.1-4.69-39.04-14.64-19.04-17.31-37.71-35.02-56.54-52.55-4.31-4.01-9.18-6.08-15.23-4.8-6.21,1.32-10.34,5.03-12.09,10.92-1.78,5.98-.78,11.7,3.93,16.24,5.82,5.61,11.73,11.14,17.66,16.64,16.13,14.99,25.12,33.38,27.66,55.32,1.93,16.73,9.64,30.92,21.94,42.51,4.07,3.83,8.25,7.54,12.29,11.4,3.44,3.29,3.79,7.17,1.11,10.09-2.73,2.97-6.53,2.95-10.13-.17-2.41-2.08-4.73-4.27-7.47-6.76-8.37,19.37-21.76,34.59-35.19,49.83-3.36,3.81-5.45,8.72-8.6,12.75-12.5,15.95-28.84,25.49-48.91,28.6-.67.1-1.29.56-1.93.86h-18.54c-.66-.29-1.29-.73-1.97-.84-20.08-3.1-36.27-12.75-48.74-28.75-3.23-4.14-5.7-8.77-8.61-13.82-2.54,5.69-4.92,10.81-7.82,15.68-6.58,11.05-16.56,18.92-25.54,27.74h-5.3c-5.71-4.84-5.77-8.11-.23-13.3,3.43-3.22,6.98-6.32,10.28-9.66,10.65-10.78,17.33-23.74,18.98-38.75,2.32-21.07,10.32-39.21,25.53-54.03,6.21-6.05,12.63-11.89,18.95-17.83,4.34-4.07,6.61-9.06,5.54-14.98-1.18-6.54-4.91-11.2-11.49-13.2-6.42-1.95-11.7.06-16.44,4.53-17.78,16.74-35.63,33.39-53.45,50.08-12.08,11.32-26.22,17.49-42.95,17.23-5.19-.08-8.09-2.46-8.11-6.65-.02-3.96,3.21-6.64,8.19-6.63,6.22,0,12.13-1.35,17.99-3.39,2.8-.97,3.03-1.88,2.02-4.65-6.46-17.55-4.09-33.92,7.21-48.92,1.18-1.57,2.48-2.86,4.55-3.15,3.05-.41,5.53.42,7.15,3.16,1.75,2.97.92,5.62-1.04,8.14-7.31,9.42-9.34,20-6.81,31.54.99,4.52,1.35,4.64,4.52,1.68,11.84-11.02,23.67-22.05,35.49-33.1,1.24-1.16,2.6-2.08,2.1-4.39-1.32-6.12-2.18-12.34-3.4-18.49-1.24-6.23-1.33-6.21-6.22-1.86-.77.68-1.53,1.38-2.29,2.07-3.47,3.15-7.46,3.42-10.16.67-2.97-3.03-2.62-6.97.98-10.39,3.2-3.04,6.36-6.12,9.68-9.01,1.89-1.65,2.43-3.08,1.5-5.66-2.53-7.04-5.62-13.84-8.22-20.83-1.49-4.01-2.63-4.41-6.1-1.81-21.5,16.16-42.91,32.44-64.83,48.02-17.41,12.38-26,28.47-24.62,49.9,1.27,19.64,2.52,39.3,3.34,58.96.81,19.3,6.68,36.71,17.79,52.46,3.95,5.6,3.52,7.91-1.67,12.26h-5.3Zm236.99-184.84c-2.83,15.35-1.73,29.34,2.42,43.17,1.48,4.93.02,8.56-3.81,9.82-4,1.32-7.25-.95-8.9-6.12-5.8-18.16-6.74-36.47-1.57-54.93.75-2.67.32-4.51-1.88-6.42-4.77-4.14-9.58-8.32-13.8-13-8.38-9.31-10.72-20.11-5.55-31.76,5.19-11.7,14.53-17.76,27.37-17.96,9.07-.14,16.37,4.04,22.59,10.29,1.89,1.9,2.77,1.78,3.95-.72,4.45-9.36,7.18-19.2,7.81-29.49,1.07-17.44-2.9-34.05-9.66-49.99-3.91-9.2-10.85-15.2-20.99-16.87-5.05-.83-10.12-1.54-15.2-2.2-13.16-1.71-26.32-2.34-39.45.2-19.82,3.84-38.59,10.7-56.61,19.71-6.21,3.11-12.26,2.73-17.69-1.75-5.32-4.4-6.57-10.23-4.93-16.71.74-2.93.8-5.86.36-8.74-1.39-9.15-10.15-13.9-17.95-9.87-5.93,3.06-7.94,9.49-4.9,16.68,8.81,20.83,10.73,42.48,7.48,64.63-2.98,20.28-1.88,40.11,6.41,59.02,8,18.26,14.48,36.95,18.55,56.47,1.09,5.26,1.12,5.23,5.32,1.85,7.36-5.92,15.82-7.72,24.85-5.6,11.4,2.69,18.78,10.17,21.92,21.3,3.18,11.26,0,21.15-8.28,29.33-4.08,4.03-8.39,7.82-12.59,11.73-6.91,6.41-13.85,12.83-18.43,21.22-5.56,10.21-9.89,20.06-5.58,32.69,11.97,35.04,45.37,52,77.79,43.09,28.45-7.81,49.09-38.16,45.22-67.22-1.01-7.61-3.23-14.83-5.28-22.14-1.4-5.02.16-8.53,4.1-9.69,4.24-1.25,7.2.92,8.84,6.14,3.61,11.53,6.92,23.1,6.53,35.49,6.51-7.98,11.43-16.67,15.7-25.8,1.15-2.45.72-3.92-.9-5.83-3.9-4.6-7.07-9.72-9.99-15.02-6.5-11.81-8.14-24.89-10.52-37.85-1.79-9.74-6.06-18.5-12.76-27.17Zm9.72-174.56c.17-.59.46-1.03.39-1.4-2.18-11.35.28-22.06,4.57-32.47,2.62-6.35,4.09-12.85,3.39-19.68-1.46-14.36-7.18-23.3-19.79-25.38-3.87-.64-7.92-.55-11.85-.29-11.13.72-19.17,8.65-19.79,19.78-.6,10.79,2.31,20.85,7.68,30.16,3.67,6.38,5.89,13.06,4.96,20.49-.35,2.82.89,3.42,3.4,3.73,9.09,1.13,18.36,1.34,27.05,5.04Zm62.41,143.54c.08-9.18-2.68-17.44-9.1-24.01-7.07-7.24-14.62-14.02-21.95-21-1.33-1.27-2.1-1.75-2.87.7-2.01,6.43-4.33,12.77-7.83,18.57-.95,1.58-.28,2.33.77,3.3,12.16,11.29,24.35,22.54,36.39,33.95,2.36,2.24,2.71.8,3.29-1.09,1.05-3.39,1.3-6.89,1.29-10.41Zm-119.32-195.47c0-1.53.04-2.86,0-4.18-.23-6.18-4.58-11.59-10.81-13.49-5.92-1.81-12.59.22-16.19,4.92-1.11,1.45-2.26,2.76-.08,4.4,12.19,9.16,12.59,21.93,10.73,35.39-.96,6.92-4.88,12.8-6.81,19.39-1.01,3.46.29,3.43,2.84,2.77,2.68-.69,5.36-1.48,8.09-1.86,2.64-.37,3.68-1.38,3.49-4.2-.7-10.29,1.53-20,6.01-29.29,2.11-4.36,3.03-9.14,2.73-13.85Zm-58.26,34.54c0-1.3.02-2.33,0-3.36-.12-7.1-5.23-13.31-11.85-14.42-8.14-1.36-15.03,2.4-17.67,9.66-.97,2.66-1.25,4.83,1.86,6.66,5.03,2.95,7.88,7.81,9.72,13.19,2.08,6.08,2.63,12.28.66,18.52-.37,1.17-.69,2.21.33,3.24,1.25,1.26,2.37.42,3.61-.02,3.32-1.19,5.8-2.92,6.18-6.88.32-3.38,1.87-6.43,3.25-9.51,2.48-5.51,4.31-11.19,3.91-17.08Zm8.35,22.98c3.47,0,5.54-1.65,7.97-2.12,2.71-.52,4.06-1.84,4.34-4.96.5-5.52,1.98-10.93,4.49-15.93,3.32-6.6,4.35-13.58,4.02-20.86-.27-5.98-4.52-11.7-10.22-13.57-6.16-2.01-12.81-.1-16.71,4.65-1.34,1.62-1.8,2.83.17,4.34,9.2,7.02,11.66,16.68,11.14,27.73-.33,7.12-2.22,13.77-5.19,20.72Zm57.22-32.53c-2.16,5.5-2.44,10.26-2.57,15.04-.06,2.14-.57,4.67,3.09,4.15,2.77-.4,5.65-.35,5.43-4.53-.27-5.34-3.11-9.48-5.96-14.65Z"/>
    <path class="cls-1" d="m427.62,514.74c-4.97-5.53-4.98-7.42-.2-13.53,25.18-32.19,44.37-67.54,56.07-106.81.42-1.4.92-2.8,1.61-4.08,1.5-2.75,3.99-4.04,6.99-3.32,3.06.73,5.15,2.67,5.27,6.18.12,3.49-1.43,6.54-2.44,9.71-12.57,39.59-32.19,75.39-57.89,107.95-1.2,1.53-2.6,2.77-4.13,3.91h-5.3Z"/>
    <path class="cls-3" d="m347.02,242.41c-22.39.91-37.9,15.79-39.74,37.56-.11,1.32-.15,2.64-.3,3.95-.46,3.89-2.67,6.21-6.56,6.46-3.58.23-6.71-3.04-6.82-7.23-.25-8.79,1.66-17.24,5.82-24.91,10.58-19.51,27.15-29.31,49.4-29.37,1.17,0,2.36.07,3.5.31,4.5.96,6.85,3.79,6.39,7.53-.49,3.91-3.71,6.22-8.35,5.97-1.32-.07-2.63-.21-3.32-.26Z"/>
    <path class="cls-5" d="m251.06,315.38c29.2.01,52.94,23.94,52.95,53.3,0,4.84-2.69,8.16-6.67,8.23-3.76.06-6.33-2.99-6.58-7.8-1.04-20.28-12.26-34.52-31.11-39.16-3.95-.97-7.99-1.7-12.18-1.11-4.39.61-7.97-1.93-8.56-5.71-.56-3.53,2.58-7.16,6.87-7.71,1.74-.22,3.52-.04,5.29-.04Z"/>
  </g>
</svg>