<?xml version="1.0" encoding="UTF-8"?>
<svg id="Calque_1" data-name="Calque 1" xmlns="http://www.w3.org/2000/svg" xmlns:xlink="http://www.w3.org/1999/xlink" viewBox="0 0 595.28 595.28">
  <defs>
    <style>
      .cls-1 {
        fill: url(#linear-gradient-2);
      }

      .cls-2 {
        fill: url(#New_Gradient_Swatch_19);
      }

      .cls-3 {
        fill: url(#linear-gradient-3);
      }

      .cls-4 {
        fill: url(#linear-gradient);
      }

      .cls-5 {
        fill: url(#linear-gradient-4);
      }
    </style>
    <linearGradient id="New_Gradient_Swatch_19" data-name="New Gradient Swatch 19" x1="0" y1="297.64" x2="595.28" y2="297.64" gradientUnits="userSpaceOnUse">
      <stop offset="0" stop-color="#d0912e"/>
      <stop offset=".51" stop-color="#ac6c21"/>
      <stop offset="1" stop-color="#874413"/>
    </linearGradient>
    <linearGradient id="linear-gradient" x1="134.21" y1="198.79" x2="426.07" y2="198.79" gradientUnits="userSpaceOnUse">
      <stop offset=".11" stop-color="#fff"/>
      <stop offset="1" stop-color="#f4dcca"/>
    </linearGradient>
    <linearGradient id="linear-gradient-2" x1="82.24" y1="402.6" x2="438.41" y2="402.6" xlink:href="#linear-gradient"/>
    <linearGradient id="linear-gradient-3" x1="176.97" y1="384.34" x2="477.35" y2="384.34" xlink:href="#linear-gradient"/>
    <linearGradient id="linear-gradient-4" x1="241.49" y1="278.4" x2="317.83" y2="278.4" xlink:href="#linear-gradient"/>
  </defs>
  <rect class="cls-2" x="0" y="0" width="595.28" height="595.28" rx="297.64" ry="297.64"/>
  <g>
    <path class="cls-4" d="m305.11,248.35c10.69,5.74,21.79,10.07,33.46,13.23,12.72,3.45,24.8,1.71,36.78-2.87,10.02-3.83,19.07-9.82,29.3-13.15,2.11-.69,1.33-1.47.44-2.42-12.52-13.45-27.07-21.84-46.18-17.39-9.09,2.11-18.03,4.74-26.28,9.64-11.83,7.02-24.99,9.73-38.83,9.9,1.15-2.21,3.37-1.42,4.94-1.73,19.8-3.94,34.45-15.47,47.82-30.03,13.83-15.06,16.99-32.57,15.79-51.8-.14-2.21-.6-3.23-3.42-2.45-18.15,5.07-32.84,14.46-41.45,31.91-1,2.02-1.29,3.93-1.3,6.07-.06,11.98-2.31,23.36-9.32,33.41-2.67,3.82-6,6.91-10.21,9.14,11.73-11.86,13.21-26.74,12.31-42.12-.5-8.54-4.08-16.32-8.04-23.84-5.46-10.37-12.59-19.61-19.71-28.85-1.02-1.33-1.7-1.79-2.95-.15-10.4,13.58-20.99,27.07-26,43.81-4.01,13.39-2.76,26.59,2.41,39.46,1.77,4.41,4.57,8.21,7.96,11.56-7.82-4.2-12.52-11-15.51-19.05-2.83-7.6-4.44-15.52-4-23.64.34-6.2-3.15-10.56-6.39-14.94-9.16-12.38-22.01-19.09-36.61-22.92-1.35-.35-2.39-.51-2.48,1.31-.7,15.19-.99,30.53,8.33,43.54,14.58,20.34,32.42,36.41,58.56,40.1.69.1,1.21.44,1.46,1.15-15.42-.1-29.33-4.76-43.01-11.85-13.66-7.08-28.42-11.93-44.18-6.74-10.06,3.32-18.04,9.82-25.24,18.09,15.17,5.26,28.17,14.79,43.98,17.82,11.19,2.15,21.75.13,32.25-3.35,8.76-2.9,17.21-6.52,25.33-10.96-12.43,11.38-25.39,22.07-42.68,24.76-9.53,1.48-18.95-.73-27.97-4.02-5.08-1.85-10.09-3.96-14.94-6.35-11.11-5.5-22.34-10.36-35.29-8.94,4.15-13.02,18.22-24.55,41.67-34.41.06-1.26-1.13-1.29-1.82-1.72-10.53-6.65-16.66-16.33-19.84-28.19-.55-2.07-.04-2.78,1.76-3.52,9.55-3.91,19.25-5.71,29.3-2.12,2.14.76,2.92.73,2.52-1.86-1.63-10.55-1.27-21.1.29-31.63.61-4.14,1.5-4.73,5.67-3.94,10.2,1.94,19.82,5.47,29.3,10.82,0-4.03.02-7.76,0-11.48-.03-6.18,2.23-11.84,3.87-17.65.46-1.64,1.09-1.53,2.53-1.21,12.36,2.73,22.9,8.14,29.58,19.46.31.53.71,1.01,1.23,1.74,4.56-6.17,8.89-12.16,13.36-18.03,5.89-7.75,5.94-7.71,12.07,0,4.77,6.01,9.17,12.27,13.74,19.22,3.54-7.05,8.31-12.36,14.71-16.15,4.83-2.86,10.05-4.6,15.41-6.14,2.61-.75,3.36.12,4.05,2.32,2.76,8.89,4.36,17.89,2.86,27.65,5.03-2.21,9.66-4.27,14.31-6.28,5.12-2.21,10.57-3.24,15.98-4.38,2.47-.52,4.25-.47,4.78,3.11,1.52,10.28,1.82,20.55.62,30.84-.5,4.31-.49,4.61,3.36,3.32,10.04-3.35,19.54-1.15,28.93,2.59,1.89.75,1.63,1.82,1.21,3.45-3.05,11.77-9.27,21.25-19.59,27.89-.77.49-1.5,1.04-2.81,1.96,19.1,5.4,33.4,16.25,42.81,33.93-3.61.18-6.95.24-10.28.53-10.15.88-18.86,5.82-27.79,10.05-9.61,4.55-19.5,8.09-30.12,9.29-8.79.99-17.06-.82-24.98-4.63-10.47-5.04-19.54-12.04-27.79-20.13Zm47.03-27.41c1.6-.2,2.14-.17,2.6-.35,7.05-2.72,14.28-3.66,21.74-2.23,1.61.31,2.7-.33,3.85-1.42,6.48-6.18,10.69-13.68,13.47-22.11.68-2.07-.06-2.42-1.82-2.84-6.52-1.54-13.08-1.63-19.7-1.06-1.49.13-2.35.68-2.78,2.25-2.92,10.56-8.66,19.44-17.37,27.75Zm-145.58-.44c-7.73-7.98-13.51-16.98-16.41-27.69-.3-1.1-1.18-1.59-2.38-1.73-6.75-.82-13.42-.52-20.07.99-1.84.42-1.96,1.03-1.44,2.7,2.67,8.63,7.06,16.17,13.62,22.42.92.88,1.84,1.47,3.15,1.21,7.97-1.54,15.68-.28,23.54,2.11Zm106.92-42.12c4.97-6.75,10.38-12.46,16.88-17.03,1.21-.85.99-2.04.98-3.21-.1-6.5-3-12.2-5.22-18.09-.49-1.3-1.31-1.43-2.5-.88-7.21,3.31-14.24,6.93-20.52,11.86-1.25.98-1.65,1.78-.75,3.28,4.48,7.45,7.92,15.39,11.14,24.07Zm-67.45-.34c3.13-9.04,6.81-16.91,11.28-24.4.88-1.47.27-2.07-.78-2.88-6.11-4.72-12.93-8.2-19.88-11.48-1.55-.73-2.4-.55-3.01,1.11-1.82,4.94-4.1,9.76-4.85,15-.28,1.99-1.3,4.43,1.09,6.2,6,4.43,11.19,9.69,16.15,16.44Z"/>
    <path class="cls-1" d="m248.34,367.96c-5.73.92-9.89-1.5-13.77-4.07-7.95-5.26-15.6-10.98-23.53-16.28-5.47-3.66-11.36-6.55-17.99-7.88,10.16,10.74,21.08,20.51,34.91,28.18-6.59.45-11.53-1.64-16.31-3.98-10.45-5.12-19.03-12.94-28.15-19.97-9.21-7.1-19.13-12.75-30.64-15.17-2.43-.51-4.91-.76-7.57-.75,19.18,13.2,32.94,32.71,53.16,44.63-7.72-1.21-14.53-4.58-21.04-8.64-11.41-7.11-20.97-16.63-31.78-24.51-11.07-8.07-23.12-13.95-37.28-13.62-5.86.14-11.13,2.05-15.19,6.6-1.36,1.52-1.75,2.7-.02,4.32,3.49,3.26,6.84,6.67,10.14,10.11,1.15,1.2,2.41,1.51,3.93,1.3,15.1-2.05,27.9,4.16,40.39,11.34,8.1,4.65,15.18,10.63,21.8,17.19,3.1,3.07,6.41,5.91,10.82,8.45-3.57.8-6.13-.44-8.62-1.52-5.14-2.23-9.5-5.76-13.95-9.08-10.99-8.2-22.45-15.54-36.21-18.07-7.8-1.43-15.34-.81-21.38,5.3-1.8,1.82-2.31,3.26-.03,5.53,23.17,22.97,46.23,46.06,69.25,69.19,4.09,4.11,9.22,6.04,14.48,7.84,28.79,9.88,57.62,19.67,86.37,29.65,7.43,2.58,14.77,2.02,22.24.65,21.7-3.98,43.49-7.51,65.07-12.05,17.73-3.73,34.62-2.25,51.08,5.01,11.23,4.96,21.15,11.91,29.89,20.69-1.5-.91-2.99-1.83-4.5-2.72-19.57-11.47-40.79-16.52-63.35-15.59-9.62.4-18.94,3.22-28.38,5.05-19.12,3.7-38.21,7.58-57.35,11.15-5.82,1.08-11.63-.28-17.14-2.16-30.7-10.47-61.35-21.06-92.01-31.64-5.09-1.76-9.46-4.69-13.23-8.53-23.62-24.03-47.24-48.04-70.84-72.09-4.35-4.43-4.24-9.94,1.17-15.33,3.31-3.3,2.61-5.07-.47-7.61-2.65-2.18-4.84-4.91-7.36-7.25-2.78-2.58-3.24-5.48-2.08-9,2.49-7.54,11.84-14.49,20.51-15.49,8.07-.93,15.79.17,23.33,2.98,2.32.86,4.42.86,6.84.12,10.29-3.13,20.34-1.48,30.21,2.11.74.27,1.49.55,2.2.91,8.91,4.57,18.19,7.92,28.04,10.13,7.47,1.67,14.15,5.8,20.68,9.92,11.64,7.36,21.82,16.67,33.7,24.65Z"/>
    <path class="cls-3" d="m477.02,399.89c-8.86-5.7-17.65-11.49-26.58-17.07-12.46-7.78-24.58-16.13-37.57-23.07-23.28-12.43-47.49-13.72-72.54-6.46-14.98,4.34-29.71,9.46-43.89,15.84-15.41,6.94-31.26,10.11-48.07,9.81-15.25-.27-30.32,1.45-44.99,5.89-4.45,1.35-8.76,3.07-12.41,6.05-7.05,5.77-6.9,14.05.45,19.41,7.4,5.4,16.16,6.81,24.95,8.02,14.75,2.03,29.26-.37,43.8-2.26,7.31-.95,14.64-2.11,21.99-2.44,12.89-.58,25.31,3.14,37.92,5.07,7,1.07,13.9,2.83,20.84,4.31,1.22.26,2.54.39,3.55,1.8-1.76.83-3.49.6-5.13.54-13.36-.54-26.71-1.43-39.98-3.04-11-1.33-21.86-.71-32.78.87-18.06,2.62-36.17,5.32-54.48,2.91-9.45-1.24-18.81-3.11-26.67-9.09-11.1-8.45-11.29-24.14-.44-32.89,7.09-5.72,15.54-8.33,24.23-10.3,14.91-3.39,30.04-4.33,45.27-4.05,10.3.19,20.11-1.74,29.74-5.5,19.51-7.63,39.2-14.67,59.69-19.42,29.29-6.79,56.54-2.55,82.17,13.16,15.58,9.55,29.21,21.51,42.77,33.58,2.87,2.55,5.66,5.2,8.49,7.8-.11.18-.22.37-.33.55Z"/>
    <path class="cls-5" d="m315.59,260.11c3.63,8.25,2.92,13.85-2.71,19.45-9,8.94-20.49,13.39-32.34,16.9-3.14.93-6.08-1.29-9-2.37-8.46-3.15-16.66-6.85-23.5-12.91-6.89-6.11-8.34-12.3-4.36-20.67-.86,6.89,3.49,9.34,7.62,11.69,8.53,4.85,17.85,7.83,27.11,10.94.96.32,1.76.22,2.67-.07,9.17-2.99,18.32-6.05,26.81-10.71,6.22-3.42,7.55-5.55,7.7-12.24Z"/>
  </g>
</svg>