<?xml version="1.0" encoding="UTF-8"?>
<svg id="Calque_1" data-name="Calque 1" xmlns="http://www.w3.org/2000/svg" xmlns:xlink="http://www.w3.org/1999/xlink" viewBox="0 0 595.28 595.28">
  <defs>
    <style>
      .cls-1 {
        fill: url(#linear-gradient-75);
      }

      .cls-2 {
        fill: url(#linear-gradient-2);
      }

      .cls-3 {
        fill: url(#linear-gradient-51);
      }

      .cls-4 {
        fill: url(#linear-gradient-17);
      }

      .cls-5 {
        fill: url(#linear-gradient-80);
      }

      .cls-6 {
        fill: url(#linear-gradient-43);
      }

      .cls-7 {
        fill: url(#linear-gradient-15);
      }

      .cls-8 {
        fill: url(#linear-gradient-58);
      }

      .cls-9 {
        fill: url(#linear-gradient-69);
      }

      .cls-10 {
        fill: url(#linear-gradient-81);
      }

      .cls-11 {
        fill: url(#linear-gradient-18);
      }

      .cls-12 {
        fill: url(#linear-gradient-56);
      }

      .cls-13 {
        fill: url(#linear-gradient-40);
      }

      .cls-14 {
        fill: url(#linear-gradient-52);
      }

      .cls-15 {
        fill: url(#linear-gradient-28);
      }

      .cls-16 {
        fill: url(#linear-gradient-14);
      }

      .cls-17 {
        fill: url(#linear-gradient-36);
      }

      .cls-18 {
        fill: url(#linear-gradient-78);
      }

      .cls-19 {
        fill: url(#linear-gradient-20);
      }

      .cls-20 {
        fill: url(#linear-gradient-6);
      }

      .cls-21 {
        fill: url(#linear-gradient-53);
      }

      .cls-22 {
        fill: url(#linear-gradient-60);
      }

      .cls-23 {
        fill: url(#linear-gradient-35);
      }

      .cls-24 {
        fill: url(#linear-gradient-48);
      }

      .cls-25 {
        fill: url(#linear-gradient-32);
      }

      .cls-26 {
        fill: url(#linear-gradient-11);
      }

      .cls-27 {
        fill: url(#linear-gradient-50);
      }

      .cls-28 {
        fill: url(#linear-gradient-63);
      }

      .cls-29 {
        fill: url(#linear-gradient-67);
      }

      .cls-30 {
        fill: url(#linear-gradient-39);
      }

      .cls-31 {
        fill: url(#linear-gradient-10);
      }

      .cls-32 {
        fill: url(#linear-gradient-59);
      }

      .cls-33 {
        fill: url(#New_Gradient_Swatch_19);
      }

      .cls-34 {
        fill: url(#linear-gradient-49);
      }

      .cls-35 {
        fill: url(#linear-gradient-37);
      }

      .cls-36 {
        fill: url(#linear-gradient-82);
      }

      .cls-37 {
        fill: url(#linear-gradient-16);
      }

      .cls-38 {
        fill: url(#linear-gradient-31);
      }

      .cls-39 {
        fill: url(#linear-gradient-61);
      }

      .cls-40 {
        fill: url(#linear-gradient-68);
      }

      .cls-41 {
        fill: url(#linear-gradient-62);
      }

      .cls-42 {
        fill: url(#linear-gradient-41);
      }

      .cls-43 {
        fill: url(#linear-gradient-76);
      }

      .cls-44 {
        fill: url(#linear-gradient-21);
      }

      .cls-45 {
        fill: url(#linear-gradient-72);
      }

      .cls-46 {
        fill: url(#linear-gradient-25);
      }

      .cls-47 {
        fill: url(#linear-gradient-5);
      }

      .cls-48 {
        fill: url(#linear-gradient-64);
      }

      .cls-49 {
        fill: url(#linear-gradient-83);
      }

      .cls-50 {
        fill: url(#linear-gradient-54);
      }

      .cls-51 {
        fill: url(#linear-gradient-45);
      }

      .cls-52 {
        fill: url(#linear-gradient-55);
      }

      .cls-53 {
        fill: url(#linear-gradient-34);
      }

      .cls-54 {
        fill: url(#linear-gradient-65);
      }

      .cls-55 {
        fill: url(#linear-gradient-70);
      }

      .cls-56 {
        fill: url(#linear-gradient-79);
      }

      .cls-57 {
        fill: url(#linear-gradient-7);
      }

      .cls-58 {
        fill: url(#linear-gradient-66);
      }

      .cls-59 {
        fill: url(#linear-gradient-24);
      }

      .cls-60 {
        fill: url(#linear-gradient-73);
      }

      .cls-61 {
        fill: url(#linear-gradient-9);
      }

      .cls-62 {
        fill: url(#linear-gradient-22);
      }

      .cls-63 {
        fill: url(#linear-gradient-74);
      }

      .cls-64 {
        fill: url(#linear-gradient-42);
      }

      .cls-65 {
        fill: url(#linear-gradient-3);
      }

      .cls-66 {
        fill: url(#linear-gradient);
      }

      .cls-67 {
        fill: url(#linear-gradient-27);
      }

      .cls-68 {
        fill: url(#linear-gradient-33);
      }

      .cls-69 {
        fill: url(#linear-gradient-38);
      }

      .cls-70 {
        fill: url(#linear-gradient-29);
      }

      .cls-71 {
        fill: url(#linear-gradient-30);
      }

      .cls-72 {
        fill: url(#linear-gradient-23);
      }

      .cls-73 {
        fill: url(#linear-gradient-19);
      }

      .cls-74 {
        fill: url(#linear-gradient-71);
      }

      .cls-75 {
        fill: url(#linear-gradient-4);
      }

      .cls-76 {
        fill: url(#linear-gradient-77);
      }

      .cls-77 {
        fill: url(#linear-gradient-8);
      }

      .cls-78 {
        fill: url(#linear-gradient-44);
      }

      .cls-79 {
        fill: url(#linear-gradient-57);
      }

      .cls-80 {
        fill: url(#linear-gradient-47);
      }

      .cls-81 {
        fill: url(#linear-gradient-46);
      }

      .cls-82 {
        fill: url(#linear-gradient-12);
      }

      .cls-83 {
        fill: url(#linear-gradient-13);
      }

      .cls-84 {
        fill: url(#linear-gradient-26);
      }
    </style>
    <linearGradient id="New_Gradient_Swatch_19" data-name="New Gradient Swatch 19" x1="0" y1="297.64" x2="595.28" y2="297.64" gradientUnits="userSpaceOnUse">
      <stop offset="0" stop-color="#d0912e"/>
      <stop offset=".51" stop-color="#ac6c21"/>
      <stop offset="1" stop-color="#874413"/>
    </linearGradient>
    <linearGradient id="linear-gradient" x1="128.51" y1="436.18" x2="451.97" y2="436.18" gradientUnits="userSpaceOnUse">
      <stop offset=".11" stop-color="#fff"/>
      <stop offset="1" stop-color="#f4dcca"/>
    </linearGradient>
    <linearGradient id="linear-gradient-2" x1="203.84" y1="117.67" x2="376.31" y2="117.67" xlink:href="#linear-gradient"/>
    <linearGradient id="linear-gradient-3" x1="375.48" y1="338.62" x2="453.75" y2="338.62" xlink:href="#linear-gradient"/>
    <linearGradient id="linear-gradient-4" x1="129.38" y1="337.71" x2="207.46" y2="337.71" xlink:href="#linear-gradient"/>
    <linearGradient id="linear-gradient-5" x1="375.47" y1="310.36" x2="453.68" y2="310.36" xlink:href="#linear-gradient"/>
    <linearGradient id="linear-gradient-6" x1="128.99" y1="310.82" x2="207.47" y2="310.82" xlink:href="#linear-gradient"/>
    <linearGradient id="linear-gradient-7" x1="196.8" y1="213.27" x2="264.31" y2="213.27" xlink:href="#linear-gradient"/>
    <linearGradient id="linear-gradient-8" x1="318.66" y1="210.53" x2="386.13" y2="210.53" xlink:href="#linear-gradient"/>
    <linearGradient id="linear-gradient-9" x1="225.06" y1="260.63" x2="257.14" y2="260.63" xlink:href="#linear-gradient"/>
    <linearGradient id="linear-gradient-10" x1="225.06" y1="321.3" x2="235.69" y2="321.3" xlink:href="#linear-gradient"/>
    <linearGradient id="linear-gradient-11" x1="196.62" y1="178.12" x2="214.86" y2="178.12" xlink:href="#linear-gradient"/>
    <linearGradient id="linear-gradient-12" x1="225.06" y1="345" x2="235.68" y2="345" xlink:href="#linear-gradient"/>
    <linearGradient id="linear-gradient-13" x1="196.68" y1="231.95" x2="207.62" y2="231.95" xlink:href="#linear-gradient"/>
    <linearGradient id="linear-gradient-14" x1="375.47" y1="249.73" x2="386.12" y2="249.73" xlink:href="#linear-gradient"/>
    <linearGradient id="linear-gradient-15" x1="196.65" y1="288.71" x2="207.78" y2="288.71" xlink:href="#linear-gradient"/>
    <linearGradient id="linear-gradient-16" x1="225.06" y1="283.47" x2="235.7" y2="283.47" xlink:href="#linear-gradient"/>
    <linearGradient id="linear-gradient-17" x1="375.2" y1="229.22" x2="386.13" y2="229.22" xlink:href="#linear-gradient"/>
    <linearGradient id="linear-gradient-18" x1="368.85" y1="176.74" x2="384.3" y2="176.74" xlink:href="#linear-gradient"/>
    <linearGradient id="linear-gradient-19" x1="375.47" y1="269.33" x2="386.12" y2="269.33" xlink:href="#linear-gradient"/>
    <linearGradient id="linear-gradient-20" x1="128.99" y1="323.08" x2="142.23" y2="323.08" xlink:href="#linear-gradient"/>
    <linearGradient id="linear-gradient-21" x1="375.47" y1="288.48" x2="386.12" y2="288.48" xlink:href="#linear-gradient"/>
    <linearGradient id="linear-gradient-22" x1="373.53" y1="194.12" x2="386.07" y2="194.12" xlink:href="#linear-gradient"/>
    <linearGradient id="linear-gradient-23" x1="196.62" y1="196.35" x2="208.71" y2="196.35" xlink:href="#linear-gradient"/>
    <linearGradient id="linear-gradient-24" x1="225.05" y1="229.22" x2="235.73" y2="229.22" xlink:href="#linear-gradient"/>
    <linearGradient id="linear-gradient-25" x1="225.06" y1="301.24" x2="235.69" y2="301.24" xlink:href="#linear-gradient"/>
    <linearGradient id="linear-gradient-26" x1="154.58" y1="359.63" x2="164.89" y2="359.63" xlink:href="#linear-gradient"/>
    <linearGradient id="linear-gradient-27" x1="225.05" y1="244.26" x2="235.72" y2="244.26" xlink:href="#linear-gradient"/>
    <linearGradient id="linear-gradient-28" x1="225.06" y1="361.4" x2="235.68" y2="361.4" xlink:href="#linear-gradient"/>
    <linearGradient id="linear-gradient-29" x1="365.35" y1="164.02" x2="379.21" y2="164.02" xlink:href="#linear-gradient"/>
    <linearGradient id="linear-gradient-30" y1="405.62" x2="130.12" y2="405.62" xlink:href="#linear-gradient"/>
    <linearGradient id="linear-gradient-31" x1="141.95" y1="300.3" x2="143.85" y2="300.3" xlink:href="#linear-gradient"/>
    <linearGradient id="linear-gradient-32" x1="135.61" y1="398.05" x2="136.2" y2="398.05" xlink:href="#linear-gradient"/>
    <linearGradient id="linear-gradient-33" x1="163.17" y1="447.06" x2="163.85" y2="447.06" xlink:href="#linear-gradient"/>
    <linearGradient id="linear-gradient-34" x1="224.04" y1="218.32" x2="224.79" y2="218.32" xlink:href="#linear-gradient"/>
    <linearGradient id="linear-gradient-35" x1="203.08" y1="477.27" x2="203.71" y2="477.27" xlink:href="#linear-gradient"/>
    <linearGradient id="linear-gradient-36" x1="203.08" y1="482.57" x2="203.71" y2="482.57" xlink:href="#linear-gradient"/>
    <linearGradient id="linear-gradient-37" x1="195.81" y1="486.38" x2="196.66" y2="486.38" xlink:href="#linear-gradient"/>
    <linearGradient id="linear-gradient-38" x1="347.26" y1="346.83" x2="357.88" y2="346.83" xlink:href="#linear-gradient"/>
    <linearGradient id="linear-gradient-39" x1="194.85" y1="359.61" x2="207.46" y2="359.61" xlink:href="#linear-gradient"/>
    <linearGradient id="linear-gradient-40" x1="285.86" y1="362.3" x2="296.17" y2="362.3" xlink:href="#linear-gradient"/>
    <linearGradient id="linear-gradient-41" x1="358.2" y1="396.88" x2="358.9" y2="396.88" xlink:href="#linear-gradient"/>
    <linearGradient id="linear-gradient-42" x1="205.07" y1="495.49" x2="205.77" y2="495.49" xlink:href="#linear-gradient"/>
    <linearGradient id="linear-gradient-43" x1="205.07" y1="506.29" x2="205.77" y2="506.29" xlink:href="#linear-gradient"/>
    <linearGradient id="linear-gradient-44" x1="245.73" y1="235.63" x2="264.24" y2="235.63" xlink:href="#linear-gradient"/>
    <linearGradient id="linear-gradient-45" x1="251.48" y1="195" x2="266.95" y2="195" xlink:href="#linear-gradient"/>
    <linearGradient id="linear-gradient-46" x1="225.05" y1="195.02" x2="238.1" y2="195.02" xlink:href="#linear-gradient"/>
    <linearGradient id="linear-gradient-47" x1="263.98" y1="221.91" x2="265.81" y2="221.91" xlink:href="#linear-gradient"/>
    <linearGradient id="linear-gradient-48" x1="264.26" y1="215.53" x2="265.81" y2="215.53" xlink:href="#linear-gradient"/>
    <linearGradient id="linear-gradient-49" x1="318.67" y1="231.11" x2="334.94" y2="231.11" xlink:href="#linear-gradient"/>
    <linearGradient id="linear-gradient-50" x1="344.4" y1="192.76" x2="358.08" y2="192.76" xlink:href="#linear-gradient"/>
    <linearGradient id="linear-gradient-51" x1="315.32" y1="194.57" x2="329.63" y2="194.57" xlink:href="#linear-gradient"/>
    <linearGradient id="linear-gradient-52" x1="347.22" y1="225.57" x2="358.13" y2="225.57" xlink:href="#linear-gradient"/>
    <linearGradient id="linear-gradient-53" x1="317.36" y1="213.25" x2="318.69" y2="213.25" xlink:href="#linear-gradient"/>
    <linearGradient id="linear-gradient-54" x1="358.05" y1="218.27" x2="358.9" y2="218.27" xlink:href="#linear-gradient"/>
    <linearGradient id="linear-gradient-55" x1="265.89" y1="153.29" x2="312.4" y2="153.29" xlink:href="#linear-gradient"/>
    <linearGradient id="linear-gradient-56" x1="324.18" y1="255.15" x2="357.88" y2="255.15" xlink:href="#linear-gradient"/>
    <linearGradient id="linear-gradient-57" x1="285.5" y1="195.51" x2="296.52" y2="195.51" xlink:href="#linear-gradient"/>
    <linearGradient id="linear-gradient-58" x1="347.25" y1="322.21" x2="357.88" y2="322.21" xlink:href="#linear-gradient"/>
    <linearGradient id="linear-gradient-59" x1="346.1" y1="278.86" x2="357.87" y2="278.86" xlink:href="#linear-gradient"/>
    <linearGradient id="linear-gradient-60" x1="285.67" y1="241.55" x2="296.35" y2="241.55" xlink:href="#linear-gradient"/>
    <linearGradient id="linear-gradient-61" x1="306.98" y1="177.65" x2="326.13" y2="177.65" xlink:href="#linear-gradient"/>
    <linearGradient id="linear-gradient-62" x1="347.25" y1="299.88" x2="357.88" y2="299.88" xlink:href="#linear-gradient"/>
    <linearGradient id="linear-gradient-63" x1="285.81" y1="325.84" x2="296.22" y2="325.84" xlink:href="#linear-gradient"/>
    <linearGradient id="linear-gradient-64" x1="285.66" y1="272.63" x2="296.33" y2="272.63" xlink:href="#linear-gradient"/>
    <linearGradient id="linear-gradient-65" x1="285.44" y1="176.37" x2="296.58" y2="176.37" xlink:href="#linear-gradient"/>
    <linearGradient id="linear-gradient-66" x1="285.56" y1="213.73" x2="296.48" y2="213.73" xlink:href="#linear-gradient"/>
    <linearGradient id="linear-gradient-67" x1="285.81" y1="340.46" x2="296.22" y2="340.46" xlink:href="#linear-gradient"/>
    <linearGradient id="linear-gradient-68" x1="285.63" y1="225.59" x2="296.4" y2="225.59" xlink:href="#linear-gradient"/>
    <linearGradient id="linear-gradient-69" x1="285.86" y1="310.34" x2="296.17" y2="310.34" xlink:href="#linear-gradient"/>
    <linearGradient id="linear-gradient-70" x1="285.87" y1="297.59" x2="296.19" y2="297.59" xlink:href="#linear-gradient"/>
    <linearGradient id="linear-gradient-71" x1="285.84" y1="352.3" x2="296.19" y2="352.3" xlink:href="#linear-gradient"/>
    <linearGradient id="linear-gradient-72" x1="301.43" y1="164.95" x2="318.07" y2="164.95" xlink:href="#linear-gradient"/>
    <linearGradient id="linear-gradient-73" x1="285.42" y1="165.4" x2="296.61" y2="165.4" xlink:href="#linear-gradient"/>
    <linearGradient id="linear-gradient-74" x1="317.36" y1="220.55" x2="318.69" y2="220.55" xlink:href="#linear-gradient"/>
    <linearGradient id="linear-gradient-75" x1="256.69" y1="176.33" x2="276.89" y2="176.33" xlink:href="#linear-gradient"/>
    <linearGradient id="linear-gradient-76" x1="285.65" y1="284.86" x2="295.93" y2="284.86" xlink:href="#linear-gradient"/>
    <linearGradient id="linear-gradient-77" x1="284.25" y1="159.7" x2="285.18" y2="159.7" xlink:href="#linear-gradient"/>
    <linearGradient id="linear-gradient-78" x1="347.23" y1="239.7" x2="357.88" y2="239.7" xlink:href="#linear-gradient"/>
    <linearGradient id="linear-gradient-79" x1="234.16" y1="134.49" x2="345.27" y2="134.49" xlink:href="#linear-gradient"/>
    <linearGradient id="linear-gradient-80" x1="227.56" y1="175.88" x2="244.97" y2="175.88" xlink:href="#linear-gradient"/>
    <linearGradient id="linear-gradient-81" x1="338.79" y1="176.24" x2="355.14" y2="176.24" xlink:href="#linear-gradient"/>
    <linearGradient id="linear-gradient-82" x1="334.14" y1="164.52" x2="349.63" y2="164.52" xlink:href="#linear-gradient"/>
    <linearGradient id="linear-gradient-83" x1="286.02" y1="270.88" x2="296.01" y2="270.88" xlink:href="#linear-gradient"/>
  </defs>
  <rect class="cls-33" x="0" y="0" width="595.28" height="595.28" rx="297.64" ry="297.64"/>
  <g>
    <path class="cls-66" d="m203.71,482.23c0-1.54,0-3.08,0-4.62-.21-.23-.42-.45-.63-.68-9.82-.07-19.65-.44-29.45-.1-7.62.26-11.38-4.72-11.49-11.43-.09-5.95.65-11.92,1.03-17.88.23-.31.45-.62.68-.93,2.29-1.56,4.58-3.12,6.87-4.69.34.31.68.62,1.02.92v-7.12c-7.77,0-15.61,0-23.45,0-2.43,0-4.86.01-7.29,0-7.43-.05-11.62-4.4-11.79-12.01-.12-5.72-.46-11.43-.7-17.15.54-.61,1.08-1.23,1.62-1.84,1.83-2.3,3.66-4.6,5.49-6.9.11.22.22.44.33.66l.25-.82c2.63-.08,5.27-.19,7.9-.22,3.15-.04,6.31,0,10.5,0,0-10.55,0-20.76,0-30.96,2.21-.01,4.45.22,6.61-.12,1.3-.21,2.46-1.3,3.68-2,9.99.09,19.98.18,29.97.27,1.17.61,2.31,1.64,3.52,1.74,3.01.25,6.05.09,9.09.09.05,9.24.12,18.48.14,27.73,0,1.92-.19,3.86,2.75,3.12,3.48.05,6.97-.04,10.44.19,3.23.22,4.21-1.12,4.17-4.24-.1-8.63.05-17.26.1-25.89,3.54,0,7.08,0,10.62,0v29.18h50.18v-30.1c3.44,0,6.87,0,10.31,0v30.1h51.09c0-12.89,0-25.59,0-38.29,3.54,0,7.08,0,10.62,0,.11,12.77.21,25.54.32,38.3.23.24.47.48.7.72,4.56,0,9.13.01,13.69.02,3.55.13,2.69-2.56,2.71-4.47.1-12.74.13-25.47.18-38.21,3.55.3,7.09.61,10.64.91v8.72h31.29v-9.63h10.94v42.84c4.59,0,8.34-.01,12.09,0,6.5.03,11.23,4.42,11.42,10.89.17,5.76.14,11.54,0,17.31-.14,6.23-4.05,10.03-10.31,10.07-10.31.06-20.61.02-31.19.02-.49,3.77-1.88,7.05,4.17,7.69,3.07.32,5.4,3.75,5.45,7.5.08,5.77.13,11.54,0,17.31-.1,4.95-3.87,8.41-9.34,8.5-7.74.12-15.48.03-23.23.03-1.48,0-2.96,0-4.57,0-.23,3.83-1.57,7.05,4.25,7.68,3.41.37,5.67,4.11,5.58,8.31-.11,5.31.02,10.63-.02,15.94-.04,5.04-3.26,8.52-8.34,9.03-1.2.12-2.43.05-3.64.05-58.14,0-116.28,0-174.43,0-9.68,0-12.29-2.66-12.29-12.5,0-4.4-.16-8.82.1-13.2.11-1.79,1.13-3.52,1.73-5.28.28-.26.57-.52.85-.78,2.14-1.02,4.28-2.05,6.42-3.07.21-.23.42-.45.63-.68Zm2.06,12.9c-.23.24-.47.48-.7.72,0,3.36,0,6.72,0,10.08.23.24.47.48.7.72.91.06,1.81.16,2.72.16,56.6,0,113.19,0,169.79,0,1.02,0,2.04-.12,3.19-.19v-12.38h-5.58c-52.8,0-105.6-.02-158.41.04-3.9,0-7.8.56-11.7.85Zm-65.61-70.67h300.42v-16.78h-5.3c-96.41,0-192.82,0-289.23,0-.91,0-2.06-.34-2.68.08-1.22.84-2.96,2.04-3.06,3.22-.36,4.36-.14,8.76-.14,13.48Zm32.97,41h235.58v-11.89h-235.58v11.89Zm225.72-29.48h-215.56v6h215.56v-6Zm-183.87,47.01h156.39v-5.97h-156.39v5.97Zm-18.58-107.26h-31.34v20.81h31.34v-20.81Zm190.11,20.69h30.49v-20.7h-30.49v20.7Z"/>
    <path class="cls-2" d="m203.84,165.8c3.73-8.58,6.85-17.49,11.33-25.65,8.06-14.67,18.54-27.73,30.64-39.25,12.64-12.04,26.9-22.1,42.17-30.56,2.28-1.26,6.62-1.08,8.89.29,17.69,10.71,33.74,23.41,47.56,39,11.45,12.91,21.33,26.74,28.88,42.23,1.19,2.43,2,5.05,2.99,7.58-3.65.31-7.31.62-10.96.93-2.43-4.69-4.71-9.47-7.32-14.05-8.24-14.44-19.09-26.73-30.84-38.45-9.73-9.7-20.36-18.04-31.89-25.31-1.44-.91-4.24-1.22-5.63-.43-20.6,11.78-38.26,27.05-53,45.66-9.18,11.58-16.08,24.48-21.81,38.05-3.67-.01-7.35-.03-11.02-.04Z"/>
    <path class="cls-65" d="m428.34,354.59c-3.65,0-7.29,0-10.94-.01,0-3.86,0-7.72,0-11.55h-31.29v12.46c-3.55-.3-7.09-.61-10.64-.91,0-10.94,0-21.88,0-32.82,3.55.61,7.09,1.22,10.64,1.82.12,2.65.24,5.3.37,8.2h45.67q10.29,0,10.77-10.02c3.54,0,7.09,0,10.63,0-.01,3.17.51,6.47-.15,9.5-1.5,6.91-7.23,11.2-14.43,11.43-3.16.1-6.33.02-9.81.02-.29,4.18-.56,8.03-.83,11.88Z"/>
    <path class="cls-75" d="m154.58,352.75c-.24-3.13-.47-6.26-.76-10-9.56.31-19.59,1.06-24.44-10.05,4.28-.35,8.57-.69,12.85-1.04h54.6v-8.98c3.54-.3,7.09-.61,10.63-.91,0,10.33,0,20.66,0,30.99-3.55.3-7.09.61-10.64.91v-10.64h-32.2v9.73c-3.35,0-6.7,0-10.05,0Z"/>
    <path class="cls-47" d="m453.56,321.76c-3.54,0-7.09,0-10.63,0-.05-1.81-.23-3.63-.13-5.44.19-3.37-1.57-4.68-4.65-4.68-16.8.01-33.6.03-50.4.08-.4,0-.79.32-1.62.69v11.17c-3.55-.61-7.09-1.22-10.64-1.82,0-8.2,0-16.41,0-24.61,3.55.3,7.1.61,10.65.91-.15,3.17,2.14,2.63,4.03,2.63,15.9.01,31.8-.04,47.7.03,7.54.03,13.78,3.93,15.36,10.24.85,3.41.28,7.19.35,10.8Z"/>
    <path class="cls-20" d="m207.46,321.76c-3.54.3-7.09.61-10.63.91,0-3.57,0-7.15,0-11.04-17.29,0-33.79-.12-50.28.13-2.42.04-4.81,1.77-7.22,2.71l-10.34-1c1.18-7.5,6.04-11.47,12.96-13.45.63.19,1.27.38,1.9.57,16.48.04,32.96.11,49.44.04,1.18,0,2.35-1.08,3.53-1.65,3.55,0,7.1,0,10.66,0,0,7.6,0,15.19-.01,22.79Z"/>
    <path class="cls-57" d="m224.04,217.94c-4.51-.04-9.02-.25-13.51,0-1.06.06-2.04,1.7-3.05,2.62-3.56.3-7.12.61-10.68.91,0-5.47,0-10.94-.01-16.41,3.57,0,7.14,0,10.71,0,2.45,2.67,15.22,2.65,17.34-.05.17-.21.14-.57.21-.86,3.57,0,7.13,0,10.7,0,.28.81.33,2.02.9,2.37,2.62,1.6,12.32-.06,14.84-2.37,4.17,0,8.33,0,12.5,0,.09,3.34.18,6.68.28,10.01.02.91.03,1.82.05,2.72,0,1.22,0,2.44,0,3.66-.11.61-.22,1.23-.32,1.84-3.55,0-7.1,0-10.65,0-.17-1.44-.34-2.88-.51-4.3h-16.69c-.15,1.61-.28,2.95-.41,4.29-3.56-.61-7.12-1.22-10.68-1.82-.09-.62-.17-1.24-.26-1.86-.25-.25-.5-.51-.75-.76Z"/>
    <path class="cls-77" d="m386.07,202.34c.02,5.77.04,11.54.06,17.31-3.56,0-7.11,0-10.67,0-1.16-.61-2.29-1.7-3.47-1.75-4.36-.17-8.73,0-13.09.04-.27-.08-.54-.12-.82-.11-3.62.6-7.24,1.21-10.86,1.81-.16-.42-.32-1.19-.48-1.2-5.55-.06-11.1-.06-16.65,0-.16,0-.31.78-.47,1.2l-10.69-.91c-.09-1.53-.18-3.05-.26-4.58,0-.6.02-1.21.03-1.81.08-3.04.17-6.07.25-9.11,3.56,0,7.13,0,10.69,0-.17,2.56.62,3.97,3.59,3.69,2.71-.26,5.48-.28,8.18,0,4.28.44,6.37-1.02,5.75-5.52,3.56,0,7.13,0,10.69.01.24,3.26,1.69,5.23,5.24,5.48,8.28.58,9.35.21,11.26-4.61,3.91.02,7.82.03,11.74.05Z"/>
    <path class="cls-61" d="m225.06,273.44c0-7.6,0-15.2,0-22.79,3.55.3,7.1.61,10.66.91.1,1.91.2,3.82.37,6.99,3.69-4.1,6.66-7.41,9.64-10.72,3.8.35,7.61.7,11.41,1.05-3.46,4.71-6.66,9.64-10.46,14.05-3.3,3.82-7.29,7.03-10.97,10.52-3.55,0-7.1,0-10.65,0Z"/>
    <path class="cls-31" d="m225.07,333.6c0-8.2,0-16.41,0-24.61,3.54,0,7.08,0,10.62,0,0,8.2,0,16.41-.01,24.61-3.54,0-7.07,0-10.61,0Z"/>
    <path class="cls-26" d="m203.84,165.8c3.67.01,7.35.03,11.02.04-2.05,7.61-4.1,15.22-6.15,22.82-4.31-1.3-8.52-1.96-12.09,1.78,1.01-8.62,4.28-16.58,7.22-24.64Z"/>
    <path class="cls-82" d="m225.07,333.6c3.54,0,7.07,0,10.61,0,0,7.6,0,15.19,0,22.79-3.54-.3-7.08-.61-10.62-.91v-21.88Z"/>
    <path class="cls-83" d="m196.81,221.47c3.56-.3,7.12-.61,10.68-.91.05,5.58.1,11.16.14,16.74.02,3.53-1.54,5.93-5.23,6.03-3.9.11-5.71-2.27-5.71-6.03,0-5.28.08-10.56.13-15.83Z"/>
    <path class="cls-16" d="m386.12,238.8c0,7.29,0,14.58,0,21.86-3.55-.3-7.09-.6-10.64-.91,0-6.99,0-13.97,0-20.96,3.55,0,7.1,0,10.65,0Z"/>
    <path class="cls-7" d="m207.76,284.36c-.1,4.87-.19,9.74-.29,14.6-3.55,0-7.1,0-10.66,0-.04-5.29,0-10.57-.16-15.86-.12-3.8.66-5.11,5.18-4.52,4.18.55,6.16,1.52,5.93,5.77Z"/>
    <path class="cls-37" d="m225.06,273.44c3.55,0,7.1,0,10.65,0,0,6.68,0,13.37-.01,20.05-3.54,0-7.09,0-10.63,0,0-6.68,0-13.37,0-20.05Z"/>
    <path class="cls-4" d="m386.12,238.8c-3.55,0-7.1,0-10.65,0-.09-5.78-.18-11.56-.27-17.34.09-.61.17-1.21.26-1.82,3.56,0,7.11,0,10.67,0,0,6.38,0,12.77,0,19.15Z"/>
    <path class="cls-11" d="m379.21,167.55c1.69,6.12,3.39,12.24,5.08,18.36-3.59,0-7.18-.01-10.77-.02-1.56-5.77-3.12-11.54-4.68-17.3,3.45-.35,6.91-.69,10.36-1.04Z"/>
    <path class="cls-73" d="m375.48,259.76c3.55.3,7.09.6,10.64.91,0,6.08,0,12.16,0,18.24-3.55,0-7.1,0-10.65,0,0-6.38,0-12.76,0-19.14Z"/>
    <path class="cls-19" d="m128.99,313.47c3.45.33,6.9.67,10.34,1-.03,2.83.02,5.65-.1,8.48-.14,3.32-.21,6.56,3,8.7-4.28.35-8.57.69-12.85,1.04-.13-6.41-.26-12.82-.38-19.23Z"/>
    <path class="cls-44" d="m375.47,278.9c3.55,0,7.1,0,10.65,0,0,6.38,0,12.77,0,19.15-3.55-.3-7.1-.61-10.65-.91,0-6.08,0-12.16,0-18.24Z"/>
    <path class="cls-62" d="m373.53,185.9c3.59,0,7.18.01,10.77.02,3.44,5.16.37,11.03,1.78,16.42-3.91-.02-7.83-.03-11.74-.05-.27-5.46-.54-10.92-.81-16.39Z"/>
    <path class="cls-72" d="m196.62,190.44c3.57-3.74,7.78-3.08,12.09-1.78-.4,5.47-.8,10.93-1.2,16.4-3.57,0-7.14,0-10.71,0-.06-4.87-.12-9.75-.18-14.62Z"/>
    <path class="cls-59" d="m225.05,220.56c3.56.61,7.12,1.22,10.68,1.82,0,5.16,0,10.33-.01,15.49-3.56-.3-7.12-.61-10.67-.91,0-5.47,0-10.94,0-16.4Z"/>
    <path class="cls-46" d="m225.06,293.49c3.54,0,7.09,0,10.63,0,0,5.17,0,10.33,0,15.5-3.54,0-7.08,0-10.62,0,0-5.17,0-10.33,0-15.5Z"/>
    <path class="cls-84" d="m154.58,352.75c3.35,0,6.7,0,10.05,0,.09,3.86.18,7.72.26,11.57-1.22.7-2.38,1.79-3.68,2-2.15.34-4.4.11-6.61.12,0-4.57-.02-9.13-.02-13.7Z"/>
    <path class="cls-67" d="m225.05,236.96c3.56.3,7.12.61,10.67.91,0,4.56,0,9.12,0,13.68-3.55-.3-7.1-.61-10.66-.91,0-4.56,0-9.12,0-13.68Z"/>
    <path class="cls-15" d="m225.06,355.48c3.54.3,7.08.61,10.62.91,0,3.64,0,7.29,0,10.93-3.54,0-7.08,0-10.62,0,0-3.95,0-7.9,0-11.85Z"/>
    <path class="cls-70" d="m379.21,167.55c-3.45.35-6.91.69-10.36,1.04-1.17-2.74-2.34-5.48-3.5-8.22,3.65-.31,7.31-.62,10.96-.93.97,2.7,1.94,5.41,2.9,8.11Z"/>
    <path class="cls-71" d="m130.12,404.7c-.54.61-1.08,1.23-1.62,1.84.54-.61,1.08-1.23,1.62-1.84Z"/>
    <path class="cls-38" d="m143.85,300.58c-.63-.19-1.27-.38-1.9-.57.63.19,1.27.38,1.9.57Z"/>
    <path class="cls-25" d="m136.2,397.64l-.25.82c-.11-.22-.22-.44-.33-.66.18-.11.37-.16.58-.16Z"/>
    <path class="cls-68" d="m163.85,446.59c-.23.31-.45.62-.68.93.23-.31.45-.62.68-.93Z"/>
    <path class="cls-53" d="m224.04,217.94c.25.25.5.51.75.76-.25-.25-.5-.51-.75-.76Z"/>
    <path class="cls-23" d="m203.08,476.93c.21.23.42.45.63.68-.21-.23-.42-.45-.63-.68Z"/>
    <path class="cls-17" d="m203.71,482.23c-.21.23-.42.45-.63.68.21-.23.42-.45.63-.68Z"/>
    <path class="cls-35" d="m196.66,485.98c-.28.26-.57.52-.85.78.28-.26.57-.52.85-.78Z"/>
    <path class="cls-69" d="m357.88,335.43c0,7.6,0,15.19,0,22.79-3.54,0-7.08,0-10.62,0,0-7.6,0-15.19,0-22.79,3.54,0,7.08,0,10.62,0Z"/>
    <path class="cls-30" d="m194.85,364.59c.61-1.13,1.6-2.2,1.75-3.39.31-2.49.18-5.03.23-7.54,3.55-.3,7.09-.61,10.64-.91,0,4.56,0,9.11,0,13.67-3.03,0-6.08.17-9.09-.09-1.22-.1-2.35-1.13-3.52-1.74Z"/>
    <path class="cls-13" d="m285.86,366.41c0-2.74,0-5.48,0-8.21h10.31c0,2.74,0,5.48,0,8.21-3.43,0-6.87,0-10.31,0Z"/>
    <path class="cls-42" d="m358.2,396.52c.23.24.47.48.7.72-.23-.24-.47-.48-.7-.72Z"/>
    <path class="cls-64" d="m205.77,495.13c-.23.24-.47.48-.7.72.23-.24.47-.48.7-.72Z"/>
    <path class="cls-6" d="m205.07,505.93c.23.24.47.48.7.72-.23-.24-.47-.48-.7-.72Z"/>
    <path class="cls-78" d="m245.73,247.82c4.29-7.95,7.14-16.33,7.61-25.43,3.55,0,7.1,0,10.65,0,.09.29.17.59.26.88-1.07,8.89-2.14,17.79-7.1,25.6-3.8-.35-7.61-.7-11.41-1.05Z"/>
    <path class="cls-51" d="m251.48,204.15c1.74-6.1,3.47-12.21,5.21-18.31,3.42.34,6.84.67,10.26,1.01-.99,5.77-1.98,11.54-2.97,17.31-4.17,0-8.33,0-12.5,0Z"/>
    <path class="cls-81" d="m237.69,186.8c1.61,6.03-1.98,11.49-1.94,17.35-3.57,0-7.13,0-10.7,0,.84-6.09,1.68-12.18,2.51-18.27,3.37.31,6.75.61,10.12.92Z"/>
    <path class="cls-80" d="m264.24,223.28c-.09-.29-.17-.59-.26-.88.11-.61.22-1.23.32-1.84.5.4,1,.79,1.5,1.19l-1.57,1.54Z"/>
    <path class="cls-24" d="m264.26,214.17c.52.52,1.03,1.03,1.55,1.55-.5.39-1,.78-1.51,1.17-.01-.91-.03-1.82-.05-2.72Z"/>
    <path class="cls-34" d="m329.61,219.65c1.77,7.3,3.55,14.6,5.32,21.9-3.56.76-7.75-1.95-10.75,1.93-1.83-7.34-3.66-14.68-5.49-22.03,0-.6-.01-1.21-.02-1.81.08-.3.17-.6.25-.9,3.56.3,7.13.61,10.69.91Z"/>
    <path class="cls-27" d="m347.15,201.41c-.92-5.47-1.83-10.94-2.75-16.41,3.58-.3,7.16-.6,10.74-.9,1.4,5.7,3.69,11.26,2.7,17.32-3.56,0-7.13,0-10.69-.01Z"/>
    <path class="cls-3" d="m326.13,185.9c1.17,5.78,2.34,11.56,3.51,17.34-3.57,0-7.13,0-10.69,0-1.21-5.47-2.41-10.94-3.62-16.41,3.6-.31,7.2-.62,10.81-.93Z"/>
    <path class="cls-14" d="m347.23,233.31c0-4.56,0-9.11-.01-13.67,3.62-.6,7.24-1.21,10.86-1.81-.06.29-.04.58.05.87-.09,4.57-.17,9.14-.26,13.71-3.55.3-7.1.6-10.65.91Z"/>
    <path class="cls-21" d="m318.66,214.16l-1.3-.92c.44-.3.88-.6,1.32-.89,0,.6-.02,1.21-.03,1.81Z"/>
    <path class="cls-50" d="m358.13,218.7c-.09-.28-.11-.57-.05-.87.28-.01.55.02.82.11-.26.25-.51.51-.77.76Z"/>
    <path class="cls-52" d="m265.89,165.82c5.3-9.6,12.19-17.98,20.5-25.04,2.85-2.42,7.05-2.72,9.94.36,5.56,5.93,10.73,12.23,16.07,18.37-1.54.59-3.05,1.34-4.64,1.73-2.07.5-4.22.72-6.34,1.06-1.13-1.14-2.27-2.29-3.75-3.78-.42,1.07-.75,1.92-1.07,2.76-3.73,0-7.46,0-11.19,0-.08-.35-.16-.71-.25-1.06-.31-.35-.62-.7-.93-1.06-2.45,2.83-4.91,5.67-7.36,8.5-3.67-.62-7.33-1.23-11-1.85Z"/>
    <path class="cls-12" d="m324.18,243.48c3.01-3.88,7.19-1.17,10.75-1.93,3.58,4.85,7.16,9.69,10.74,14.54.52-.24,1.04-.48,1.56-.72,0-2.79,0-5.58,0-8.37,3.55-.3,7.1-.61,10.64-.91,0,6.99,0,13.99,0,20.98-1.65,0-3.34-.25-4.93.04-2.32.42-4.57,1.23-6.84,1.87-9.94-6.24-17.57-14.45-21.92-25.49Z"/>
    <path class="cls-79" d="m285.56,207.81c-.02-8.2-.04-16.4-.06-24.6,3.67,0,7.35,0,11.02,0-.02,8.2-.04,16.4-.05,24.6-3.64,0-7.28,0-10.92,0Z"/>
    <path class="cls-8" d="m357.88,335.43c-3.54,0-7.08,0-10.62,0,0-8.51,0-17.02,0-25.52,3.54-.31,7.08-.61,10.62-.92,0,8.81,0,17.62,0,26.44Z"/>
    <path class="cls-32" d="m346.1,268.97c2.28-.64,4.53-1.45,6.84-1.87,1.59-.29,3.28-.04,4.93-.04,0,7.59,0,15.19,0,22.78-3.54.3-7.08.61-10.61.91-.05-5.7-.03-11.4-.2-17.09-.04-1.57-.63-3.13-.96-4.69Z"/>
    <path class="cls-22" d="m285.7,251.57c0-6.68-.02-13.36-.03-20.04,3.56,0,7.12,0,10.68,0,0,6.68-.02,13.36-.02,20.04-3.54,0-7.08,0-10.63,0Z"/>
    <path class="cls-39" d="m326.13,185.9c-3.6.31-7.21.62-10.81.93-2.78-5.48-5.56-10.96-8.34-16.44,3.7-.64,7.4-1.28,11.09-1.92,2.68,5.81,5.37,11.62,8.05,17.43Z"/>
    <path class="cls-41" d="m347.26,290.75c3.54-.3,7.08-.61,10.61-.91,0,6.38,0,12.76,0,19.15-3.54.31-7.08.61-10.62.92,0-6.38,0-12.77,0-19.15Z"/>
    <path class="cls-28" d="m285.81,334.5c.02-5.78.03-11.55.05-17.33,3.43,0,6.87,0,10.3,0,.02,5.78.03,11.55.05,17.33-3.47,0-6.93,0-10.4,0Z"/>
    <path class="cls-48" d="m285.7,251.57c3.54,0,7.09,0,10.63,0-.05,14.04-.09,28.08-.14,42.12-.1-.66-.19-1.32-.29-1.98,0-4.56.02-9.12.03-13.68.03-3.61.16-7.23,0-10.84-.04-.95-.79-2.41-1.57-2.7-5.33-2.03-8.36.17-8.35,5.86,0,2.56.05,5.12.08,7.68-.15,2.33-.29,4.66-.44,6.99.02-11.15.03-22.3.05-33.44Z"/>
    <path class="cls-54" d="m296.52,183.21c-3.68,0-7.35,0-11.02,0-.02-4.56-.04-9.13-.06-13.69,3.71,0,7.43,0,11.14,0l-.06,13.69Z"/>
    <path class="cls-58" d="m285.56,207.81c3.64,0,7.28,0,10.92,0-.03,3.95-.05,7.9-.07,11.85-3.59,0-7.18,0-10.77,0-.02-3.95-.05-7.9-.07-11.85Z"/>
    <path class="cls-29" d="m285.81,334.5c3.47,0,6.93,0,10.4,0-.01,3.97-.02,7.94-.03,11.91-3.45,0-6.9,0-10.34,0,0-3.97-.02-7.94-.03-11.91Z"/>
    <path class="cls-40" d="m285.63,219.66c3.59,0,7.18,0,10.77,0-.02,3.96-.03,7.91-.05,11.87-3.57,0-7.13,0-10.69,0-.01-3.96-.03-7.91-.04-11.87Z"/>
    <path class="cls-9" d="m296.17,317.17c-3.43,0-6.87,0-10.3,0,0-4.56,0-9.11.01-13.67,3.43,0,6.85,0,10.28,0,0,4.56,0,9.11.01,13.67Z"/>
    <path class="cls-55" d="m296.15,303.5c-3.42,0-6.85,0-10.28,0,0-3.94,0-7.88,0-11.82,3.35,0,6.69.02,10.04.03.1.66.19,1.32.29,1.98-.01,3.27-.03,6.54-.04,9.81Z"/>
    <path class="cls-74" d="m285.84,346.41c3.45,0,6.9,0,10.34,0,0,3.93,0,7.86-.01,11.79-3.44,0-6.88,0-10.31,0,0-3.93,0-7.86-.01-11.79Z"/>
    <path class="cls-45" d="m318.07,168.47c-3.7.64-7.4,1.28-11.09,1.92-1.85-2.7-3.7-5.39-5.55-8.09,2.11-.34,4.26-.55,6.33-1.06,1.59-.39,3.1-1.14,4.64-1.73,1.89,2.98,3.78,5.97,5.67,8.95Z"/>
    <path class="cls-60" d="m296.58,169.52c-3.71,0-7.43,0-11.14,0,0-2.74-.02-5.49-.02-8.23,3.73,0,7.46,0,11.19,0-.01,2.74-.02,5.49-.03,8.23Z"/>
    <path class="cls-63" d="m318.67,219.64c0,.61.02,1.21.02,1.81-.44-.3-.89-.6-1.33-.9.44-.31.87-.61,1.31-.92Z"/>
    <path class="cls-1" d="m265.89,165.82c3.67.62,7.33,1.23,11,1.85-3.31,6.39-6.63,12.78-9.94,19.17-3.42-.33-6.84-.67-10.25-1,3.07-6.67,6.13-13.34,9.2-20.01Z"/>
    <path class="cls-43" d="m295.91,291.7c-3.35,0-6.69-.02-10.04-.03-.07-2.22-.14-4.44-.21-6.67.15-2.33.3-4.66.44-6.99,3.28,0,6.56,0,9.83,0,0,4.56-.02,9.12-.03,13.68Z"/>
    <path class="cls-76" d="m284.25,159.17c.31.35.62.71.93,1.06-.31-.35-.62-.71-.93-1.06Z"/>
    <path class="cls-18" d="m357.88,246.08c-3.55.3-7.1.61-10.64.91,0-4.56,0-9.12,0-13.68,3.55-.3,7.1-.6,10.65-.91,0,4.56,0,9.12,0,13.68Z"/>
    <path class="cls-56" d="m334.14,160.44c-8.13-12.46-17.18-24.18-28.17-34.27-3.79-3.48-7.72-6.81-11.79-9.94-1.07-.82-3.57-1.39-4.3-.77-7.8,6.59-16.23,12.73-22.81,20.42-8.19,9.58-14.8,20.51-22.09,30.86-3.6-.6-7.21-1.19-10.81-1.79,11.52-25.61,30.07-45.12,52.92-60.87,2.75-1.89,5.53-2.76,8.74-.44,20.17,14.56,36.64,32.44,48.96,54.08.29.51.33,1.15.49,1.73-3.71.33-7.42.66-11.13.99Z"/>
    <path class="cls-5" d="m234.16,164.95c3.6.6,7.21,1.19,10.81,1.79-1.86,6.28-3.69,12.57-5.64,18.82-.17.54-1.08.84-1.65,1.25-3.37-.31-6.75-.61-10.12-.92,2.2-6.98,4.39-13.96,6.59-20.93Z"/>
    <path class="cls-10" d="m355.14,184.1c-3.58.3-7.16.6-10.74.9-1.87-5.14-3.74-10.27-5.61-15.41,3.05-3.83,7.26-1.1,10.84-1.9,1.84,5.47,3.67,10.94,5.51,16.41Z"/>
    <path class="cls-36" d="m349.63,167.68c-3.58.8-7.79-1.92-10.84,1.9-1.55-3.05-3.1-6.1-4.65-9.15,3.71-.33,7.42-.66,11.13-.99,1.46,2.74,2.91,5.49,4.37,8.23Z"/>
    <path class="cls-49" d="m295.93,278.02c-3.28,0-6.56,0-9.83,0-.03-2.56-.08-5.12-.08-7.68,0-5.7,3.02-7.89,8.35-5.86.78.3,1.53,1.75,1.57,2.7.16,3.61.02,7.22,0,10.84Z"/>
  </g>
</svg>