<?xml version="1.0" encoding="UTF-8"?>
<svg id="Calque_1" data-name="Calque 1" xmlns="http://www.w3.org/2000/svg" xmlns:xlink="http://www.w3.org/1999/xlink" viewBox="0 0 595.28 595.28">
  <defs>
    <style>
      .cls-1 {
        fill: url(#linear-gradient-2);
      }

      .cls-2 {
        fill: url(#linear-gradient-6);
      }

      .cls-3 {
        fill: url(#New_Gradient_Swatch_19);
      }

      .cls-4 {
        fill: url(#linear-gradient-5);
      }

      .cls-5 {
        fill: url(#linear-gradient-3);
      }

      .cls-6 {
        fill: url(#linear-gradient);
      }

      .cls-7 {
        fill: url(#linear-gradient-4);
      }
    </style>
    <linearGradient id="New_Gradient_Swatch_19" data-name="New Gradient Swatch 19" x1="0" y1="297.64" x2="595.28" y2="297.64" gradientUnits="userSpaceOnUse">
      <stop offset="0" stop-color="#d0912e"/>
      <stop offset=".51" stop-color="#ac6c21"/>
      <stop offset="1" stop-color="#874413"/>
    </linearGradient>
    <linearGradient id="linear-gradient" x1="120.23" y1="317.67" x2="503.57" y2="317.67" gradientUnits="userSpaceOnUse">
      <stop offset=".11" stop-color="#fff"/>
      <stop offset="1" stop-color="#f4dcca"/>
    </linearGradient>
    <linearGradient id="linear-gradient-2" x1="459.83" y1="139.11" x2="527.46" y2="139.11" xlink:href="#linear-gradient"/>
    <linearGradient id="linear-gradient-3" x1="417.81" y1="150.27" x2="440.18" y2="150.27" xlink:href="#linear-gradient"/>
    <linearGradient id="linear-gradient-4" x1="67.81" y1="205.63" x2="149.49" y2="205.63" xlink:href="#linear-gradient"/>
    <linearGradient id="linear-gradient-5" x1="182.69" y1="172.71" x2="205.34" y2="172.71" xlink:href="#linear-gradient"/>
    <linearGradient id="linear-gradient-6" x1="482.98" y1="258.25" x2="504.32" y2="258.25" xlink:href="#linear-gradient"/>
  </defs>
  <rect class="cls-3" x="0" y="0" width="595.28" height="595.28"/>
  <g>
    <path class="cls-6" d="m503.57,319.84v80.09c-.75,2.72-1.75,5.41-2.2,8.18-3.04,18.42-11.52,34.19-23.75,47.99-10.08,11.38-22.25,20.06-36.35,25.83-7.61,3.12-15.38,5.88-23.72,6.35-.51.18-1.02.36-1.54.54-1.25.31-2.51.62-3.76.93h-202.11c-3.73-.75-7.49-1.4-11.2-2.26-18.58-4.34-34.75-13.2-48.49-26.41-10.17-9.78-17.7-21.48-23.05-34.43-3.8-9.19-6.8-18.89-6.95-28.87-.4-25.55-.14-51.11-.13-76.67,0-6.43,4.54-10.93,11.06-11.01,3.95-.05,7.91,0,12.41,0-.31-4.22-.59-8.1-.87-11.98.2-.19.39-.37.59-.56,1.84-4.05,3.68-8.1,5.52-12.15.65-1.02,1.3-2.04,1.95-3.06.31-.48.61-.96.92-1.44.2-.25.4-.5.59-.75,1.73-1.75,3.45-3.5,5.18-5.26.27-.19.54-.37.81-.56,4-2.29,7.84-4.93,12.04-6.73,2.45-1.05,3.47-2.13,3.79-4.76.39-3.26,1.51-6.43,2.32-9.64v-1.47c2.5-5.99,5.01-11.98,7.51-17.97.92-1.27,1.84-2.55,2.75-3.82,0-.24.05-.47.16-.68.2-.27.4-.53.59-.8.3-.48.61-.97.91-1.45.2-.26.4-.52.59-.78.49-.49.97-.98,1.46-1.48.27-.49.53-.99.8-1.48.55-1,1.1-1.99,1.65-2.99.94-.77,1.88-1.54,2.82-2.31,1.99-1.98,3.98-3.96,5.97-5.95.51-.69,1.03-1.38,1.54-2.08,9.17-6.3,18.79-11.78,29.14-15.89,1.58.93,2.42.61,2.29-1.35,1.49-.04,3.04.16,4.46-.16,3-.69,6.12-1.28,8.81-2.66,1.32-.68,1.75-3.04,2.67-4.59,10.11-17.02,24.21-29.23,43.08-35.7,1.18-.4,2.2-1.27,3.29-1.93.2,0,.4,0,.6-.02,4.98-.69,9.96-1.39,14.94-2.08.24.01.48.02.73.03,3.25-.02,6.5-.03,9.75-.05.27.19.55.39.82.58,3.78.29,7.65.14,11.32.95,14.13,3.13,26.73,9.38,37.4,19.3.2.25.4.51.6.76,3.5,4.04,7.17,7.93,10.45,12.14,6.52,8.37,9.77,18.27,12.64,28.31.08.73.16,1.47.25,2.2-.57,4.59,2.86,4.61,5.86,5.11.73.09,1.46.19,2.19.28,5,2.22,10,4.44,15,6.66l2.26,1.46,2.98,2.29c.75.5,1.5.99,2.25,1.49,1.05,1.09,2.09,2.18,3.14,3.26l.6.58c.22.2.44.4.66.6l.09.09c.2.21.4.41.6.62.55.53,1.1,1.06,1.65,1.59.73.73,1.47,1.46,2.2,2.19.77,1,1.54,2,2.31,3.01,2.33,4.23,4.66,8.46,6.99,12.68.37.77.74,1.54,1.11,2.31.83,3.3,1.53,6.64,2.54,9.89.37,1.2,1.25,2.86,2.23,3.15,9.63,2.81,16.67,8.95,22.43,16.84.21.27.41.54.62.81,1.75,4.22,3.51,8.44,5.26,12.66l.59.74c-.19,1.48-.38,2.95-.57,4.43.19.27.38.54.57.81.1,2.18.2,4.37.31,6.75,3.06,0,5.91.18,8.73-.04,5.21-.41,9.4,1.35,12.74,5.31.29.96.57,1.93.86,2.89.24.52.48,1.04.72,1.57Zm-127.85-94.3c-1.06-6.46-2.11-12.93-3.17-19.39-.19-.27-.38-.55-.57-.82-.56-1.47-1.12-2.95-1.68-4.42-.19-.27-.39-.55-.58-.82-.1-.22-.16-.44-.16-.68-.2-.27-.4-.54-.59-.82-1.3-2.24-2.59-4.47-3.89-6.71-.26-.5-.53-1.01-.79-1.51-3.73-3.73-7.46-7.46-11.19-11.19-.53-.27-1.06-.54-1.59-.8-3.47-1.89-6.88-3.94-10.43-5.65-9.74-4.7-20.38-5.42-30.69-4.45-6.51.62-13.01,4.11-18.97,7.31-11.06,5.93-19.33,14.95-23.49,26.82-2.7,7.69-7.87,10.37-15.12,10.99-.24,0-.48-.02-.72-.03-1,.36-2.01.71-3.01,1.07-1.5.25-2.99.5-4.49.75-11.51,1.72-21.06,7.51-29.15,15.35-12.69,12.29-19.53,27.41-19.52,45.35,0,5.49-2.87,9.24-8.15,11.06-.52.19-1.04.38-1.55.57-14.26,1.01-22.25,10.09-19.77,22.43h291.44v-8.71c-.51-.77-1.02-1.54-1.53-2.31-3.49-5.47-7.56-9.9-14.69-10.62-3.37-.34-6.62-1.93-9.92-2.96-.48-.48-.97-.96-1.45-1.45-.73-1.49-1.45-2.98-2.18-4.47,0-.49,0-.98,0-1.48-.25-2.25-.5-4.51-.74-6.76,0-.49,0-.98.01-1.48-.3-.52-.79-1.01-.87-1.57-1.97-12.57-9.39-21.32-19.99-27.46-3.94-2.29-8.65-3.26-13-4.84-.49,0-.98,0-1.47.01-8.44.66-14.67-2.57-16.33-8.84,0-.49,0-.98,0-1.48Zm34.3,241.19c.49,0,.97.02,1.46.03,2.98-.56,5.99-.97,8.93-1.69,19.23-4.72,34.42-15.37,46.07-31.33,7.89-10.82,11.86-23.08,14.06-36.06.08-.07.23-.17.22-.22-.05-.18-.16-.34-.25-.51v-19.22H142.78c0,5.85-.46,11.5.13,17.03.62,5.87,1.81,11.76,3.51,17.42,5.69,18.9,17.41,33.33,34.07,43.68,12.33,7.66,25.83,11.49,40.45,11.47,52.39-.07,104.77,0,157.16-.05,10.64-.01,21.29-.36,31.93-.55Zm-267.16-111.92h338.04v-22.03H142.86v22.03Z"/>
    <path class="cls-1" d="m502.71,171.89c-3.54.29-7.08.82-10.63.82-14.71,0-27.92-11.55-31.17-25.4-2.87-12.2-.04-23.33,8.7-32.04,7.66-7.63,17.2-11.08,28.62-9.3,13.97,2.18,22.53,10.11,27.65,22.66.53,1.49,1.06,2.97,1.59,4.46v12.73c-.53,1.44-1.05,2.87-1.58,4.31-2.73,4.18-4.88,8.94-8.34,12.38-3.54,3.53-8.35,5.78-12.6,8.58-.74.26-1.49.53-2.23.79Zm-20.14-33c-.05,6.29,4.74,11.5,10.67,11.39,6.48-.12,11.64-4.47,11.57-11.15-.07-6.72-4.39-11.01-11.53-11.11-6.26-.08-10.51,4.56-10.71,10.88Z"/>
    <path class="cls-5" d="m423.74,160.68c-.48-.24-.96-.47-1.44-.71-1.01-1.02-2.03-2.04-3.04-3.06-.24-.48-.47-.95-.71-1.43-.25-.5-.49-1-.74-1.5,0-2.47,0-4.95,0-7.42.24-.5.49-1,.73-1.5.24-.48.48-.95.71-1.43,1.01-1.02,2.03-2.04,3.04-3.06.48-.24.96-.47,1.44-.71.75-.24,1.5-.49,2.25-.73,1.99.18,3.97.36,5.96.54,4.28.87,6.06,4.46,8.23,7.61v6.74c-2.76,2.46-5.52,4.91-8.28,7.37-2.22,0-4.44.02-6.66.03-.5-.24-1-.49-1.5-.73Z"/>
    <path class="cls-7" d="m67.81,215.55c0-6.49,0-12.97,0-19.46,2.3-5.51,4.42-11.1,7.03-16.46.74-1.52,3.28-2.08,4.36-3.54,3.8-5.14,9.75-6.55,15.02-9.16,1.53-.76,2.97-1.71,4.48-2.51.49-.26,1.1-.43,1.66-.43,4.97,0,9.94.03,14.9.1.53,0,1.07.32,1.59.53,4.4,1.75,8.81,3.5,13.2,5.28.76.31,1.62.6,2.17,1.17,1.44,1.49,2.55,3.33,4.11,4.67,5.62,4.81,8.48,11.18,11.3,17.83,2.16,5.09,1.6,10.09,1.82,15.18.4,8.94-4.16,16.39-8.86,23.09-4.12,5.88-10.91,9.52-17.58,12.78-7.78,3.81-15.98,2.52-23.94,2.1-3.95-.21-8.04-2.79-11.56-5.07-4.48-2.9-9.34-5.94-12.4-10.12-3.39-4.62-4.95-10.59-7.3-15.97Zm21.84-9.78c-.33,10.38,8.67,18.89,17.93,18.7,11.12-.23,19.25-7.59,19.17-18.61-.08-11.22-7.14-18.29-19.09-18.53-9.84-.2-17.8,7.12-18.01,18.43Z"/>
    <path class="cls-4" d="m189.64,161.74c2.98.07,5.97.14,8.95.22,7.83,4.97,8.02,11.59,4.76,16.45-2.84,4.24-7.09,5.82-12.07,5.12-3.37-.47-7.75-5.07-8.35-8.4-.97-5.34.98-9.82,5.47-12.59.42-.26.82-.53,1.23-.8Z"/>
    <path class="cls-2" d="m482.99,263.47c0-3.48,0-6.95,0-10.43,2.72-4.22,6.54-6.76,11.59-5.89,4.58.79,8.13,3.24,9.39,8.32,1.14,4.6-.52,9.54-4.67,12.23-4.12,2.66-9.9,2.41-13.23-.69-1.14-1.06-2.06-2.35-3.08-3.53Z"/>
  </g>
</svg>