<?xml version="1.0" encoding="UTF-8"?>
<svg id="Calque_1" data-name="Calque 1" xmlns="http://www.w3.org/2000/svg" xmlns:xlink="http://www.w3.org/1999/xlink" viewBox="0 0 595.28 595.28">
  <defs>
    <style>
      .cls-1 {
        fill: url(#linear-gradient-2);
      }

      .cls-2 {
        fill: url(#New_Gradient_Swatch_19);
      }

      .cls-3 {
        fill: url(#linear-gradient-3);
      }

      .cls-4 {
        fill: url(#linear-gradient);
      }

      .cls-5 {
        fill: url(#linear-gradient-4);
      }
    </style>
    <linearGradient id="New_Gradient_Swatch_19" data-name="New Gradient Swatch 19" x1="0" y1="297.64" x2="595.28" y2="297.64" gradientUnits="userSpaceOnUse">
      <stop offset="0" stop-color="#d0912e"/>
      <stop offset=".51" stop-color="#ac6c21"/>
      <stop offset="1" stop-color="#874413"/>
    </linearGradient>
    <linearGradient id="linear-gradient" x1="270.88" y1="368.42" x2="465.89" y2="368.42" gradientUnits="userSpaceOnUse">
      <stop offset=".11" stop-color="#fff"/>
      <stop offset="1" stop-color="#f4dcca"/>
    </linearGradient>
    <linearGradient id="linear-gradient-2" x1="129.39" y1="342.8" x2="324.43" y2="342.8" xlink:href="#linear-gradient"/>
    <linearGradient id="linear-gradient-3" x1="201.69" y1="172.12" x2="251.93" y2="172.12" xlink:href="#linear-gradient"/>
    <linearGradient id="linear-gradient-4" x1="343.49" y1="224.06" x2="393.63" y2="224.06" xlink:href="#linear-gradient"/>
  </defs>
  <rect class="cls-2" x="0" y="0" width="595.28" height="595.28"/>
  <g>
    <path class="cls-4" d="m465.89,452.68c-3.32,8.49-9.66,11.28-18.54,11.24-53.1-.22-106.21-.1-159.32-.11-11.45,0-17.13-5.66-17.14-17.15,0-46.98-.01-93.96,0-140.94,0-8.85,3.88-14.5,11.26-16.32,1.56-.39,3.25-.38,4.88-.38,21.68-.02,43.36-.01,65.04-.01h3.72c1.25-4.76-1.6-10.57,3.4-14.08,4.28-3.01,9.42-1.86,14.07-1.47,9.98.83,7.17,9.07,7.94,15.55h3.51c21.03,0,42.05.24,63.07-.12,8.86-.15,14.98,2.84,18.11,11.29v152.5h0Z"/>
    <path class="cls-1" d="m214.48,239.72c0-3.45-.07-6.41.01-9.36.17-5.96,2.75-8.47,8.73-8.55,2.74-.04,5.48-.08,8.21.02,5.01.17,7.62,2.83,7.72,7.81.06,3.17,0,6.34,0,10.07h3.89c21.69,0,43.38,0,65.06,0,9.7,0,15.65,5.21,16.1,14.76.38,8.09.09,16.21.07,24.31,0,.41-.22.82-.43,1.52h-3.56c-11.17,0-22.35.25-33.51-.06-13.01-.36-24.6,9.2-24.61,24.55-.02,47.76-.02,95.53,0,143.29,0,5.46,1.4,10.58,4.95,15.41-1.16.13-1.94.3-2.72.3-39.87.01-79.74.03-119.61,0-9.36,0-15.43-6.13-15.43-15.41,0-64.42,0-128.83,0-193.25,0-9.34,6.02-15.4,15.38-15.41,21.91-.04,43.81-.01,65.72-.01h4,0Z"/>
    <path class="cls-3" d="m242.81,212.88c-3.61-9-6.91-17.3-10.27-25.56-1.07-2.63-2.52-4.88-5.86-4.89-3.33-.02-4.84,2.15-5.91,4.81-3.25,8.17-6.45,16.36-9.76,24.79-5.18-3-7.59-8.12-8.66-14.09-1.99-11.15.79-21.8,4.24-32.15,3.17-9.5,7.41-18.64,11.21-27.92,1.57-3.84,4.25-6.47,8.58-6.52,4.32-.05,6.98,2.52,8.79,6.26,6.61,13.69,12.52,27.66,15.42,42.66,1.63,8.42,2.49,17.02-1.76,25.01-1.48,2.79-3.97,5.04-6.04,7.6h0Z"/>
    <path class="cls-5" d="m352.66,263.72c-5.99-3.82-8.38-9.93-8.98-16.97-.85-10.01,1.26-19.65,4.53-28.94,3.39-9.66,7.53-19.07,11.44-28.54,1.52-3.69,4.12-6.15,8.41-6.21,4.41-.06,6.99,2.4,8.8,6.15,6.85,14.19,12.92,28.67,15.72,44.28,1.42,7.94,1.97,15.97-2.04,23.37-1.51,2.77-3.96,5.03-6.55,8.21-1.38-4.45-2.25-7.89-3.53-11.18-2.04-5.29-4.35-10.48-6.56-15.7-1.06-2.5-2.8-4.32-5.63-4.3-2.83.02-4.58,1.84-5.58,4.37-3.32,8.4-6.63,16.81-10.03,25.45h0Z"/>
  </g>
</svg>