<?xml version="1.0" encoding="UTF-8"?>
<svg id="Calque_1" data-name="Calque 1" xmlns="http://www.w3.org/2000/svg" xmlns:xlink="http://www.w3.org/1999/xlink" viewBox="0 0 595.28 433.32">
  <defs>
    <style>
      .cls-1 {
        fill: url(#linear-gradient-2);
      }

      .cls-2 {
        fill: url(#linear-gradient-3);
      }

      .cls-3 {
        fill: url(#linear-gradient);
      }
    </style>
    <linearGradient id="linear-gradient" x1="314.72" y1="100.75" x2="315.32" y2="100.75" gradientUnits="userSpaceOnUse">
      <stop offset=".11" stop-color="#fff"/>
      <stop offset="1" stop-color="#f4dcca"/>
    </linearGradient>
    <linearGradient id="linear-gradient-2" x1="504.88" y1="99.37" x2="504.89" y2="99.37" xlink:href="#linear-gradient"/>
    <linearGradient id="linear-gradient-3" x1="26.76" y1="213.64" x2="568.52" y2="213.64" xlink:href="#linear-gradient"/>
  </defs>
  <path class="cls-3" d="m314.72,100.26l.6.97c-.14-.36-.21-.8-.6-.97Z"/>
  <path class="cls-1" d="m504.88,99.36s0,0,0,.01c0,0,.01,0,.02,0,0,0-.01-.01-.01-.01h0Z"/>
  <path class="cls-2" d="m538.88,124.77c7.22-1.77,13.67-4.95,19.68-8.96,2.65-1.76,4.77-3.93,6.45-6.5,2.8-4.28,3.86-8.91,3.4-13.86-.08-.85-.28-1.69-.71-2.47-.2-.37-.95-.6-1.33-.38-.28.16-.58.33-.79.56-.64.72-1.26,1.46-1.86,2.21-.87,1.07-1.92,1.95-3.09,2.74-2.55,1.73-5.38,2.93-8.39,3.79-2.92.83-5.9,1.41-8.99,1.26-.25-.01-.51-.02-.76-.03-.36-.01-.66-.23-.53-.37.11-.11.2-.27.33-.32,3.23-1.22,6.2-2.86,9.05-4.7,1.66-1.07,3.23-2.26,4.84-3.4,1.82-1.28,3.43-2.78,4.95-4.35,1.18-1.22,2.16-2.57,3.01-4.03,1.74-3.02,2.4-6.29,2.77-9.63.03-.31.04-.62.01-.93-.21-2.24-.41-4.5-1.41-6.6-.2-.43-.42-.85-.82-1.16-.22-.17-.74-.24-.95-.07-.19.16-.4.3-.53.49-.58.86-1.2,1.7-1.69,2.6-.85,1.57-2.12,2.79-3.57,3.89-3.31,2.52-7.1,4.22-11.13,5.47-1.68.52-3.42.86-5.21.99-.07,0-.17-.06-.21-.12-.04-.06-.04-.19,0-.22.31-.26.62-.53.97-.74,1.98-1.2,3.92-2.44,5.74-3.85,1.88-1.45,3.6-3.05,5.19-4.78,1.92-2.09,3.53-4.37,5.15-6.64,1.87-2.63,3.22-5.47,4.07-8.5.55-1.96.86-3.95.86-5.99,0-1.41-.29-2.78-.49-4.17-.63-4.32-2.39-8.24-5.18-11.76-.24-.31-.59-.55-.91-.8-.19-.15-.78-.07-.94.13-.19.25-.42.5-.5.78-.22.83-.44,1.67-.54,2.51-.25,2.04-1.05,3.91-1.94,5.76-1.73,3.61-4.34,6.65-7.12,9.6-.94,1-2.08,1.8-3.36,2.42-.05.02-.16-.02-.22-.06-.06-.05-.12-.14-.11-.19.16-.43.31-.88.52-1.29,1.45-2.82,2.6-5.74,3.5-8.74.42-1.42.84-2.85,1.28-4.27,1.26-4.06,2.06-8.17,1.84-12.42-.02-.47-.02-.93-.01-1.4.05-3.09-.79-6.02-2.03-8.84-2.54-5.79-6.5-10.7-11.42-14.96-.98-.85-2.1-1.56-3.19-2.3-.34-.23-.78-.33-1.19-.09-.4.24-.49.62-.48,1.02,0,.39.03.78.11,1.16.12.61.28,1.22.44,1.82,1.12,4.08,1.84,8.21,2.01,12.42.02.62.14,1.24.23,1.85.22,1.63.21,3.25,0,4.88-.12.92-.17,1.86-.28,2.78-.1.93-.19,1.86-.35,2.77-.22,1.23-.48,2.45-.77,3.66-.73,3.04-1.77,6-3.11,8.86-1.54,3.29-3.39,6.43-5.44,9.48-1.42,2.12-2.94,4.19-4.78,6.02-2.3,2.29-4.85,4.34-7.55,6.22-4.65,3.25-9.48,6.26-14.48,9.05-6.8,3.79-13.57,7.64-20.44,11.32-7.02,3.75-14.15,7.35-21.26,10.96-4.96,2.52-9.99,4.94-14.98,7.41-.45.22-.89.45-1.33.68-2.75,1.38-5.48,2.8-8.25,4.13-4.72,2.28-9.38,4.66-13.97,7.15-5.48,2.97-10.65,6.34-15.52,10.11-.78.6-8.7,7.48-9.42,8.26-1.26,1.36-2.54,2.71-3.72,4.13-1.43,1.73-2.77,3.53-4.14,5.3-.05.06-.1.13-.14.19-.39.51-.91.5-1.18-.01-.14-.28-.33-.56-.4-.85-.35-1.46-1.38-2.46-2.6-3.34-.53-.38-1.1-.73-1.63-1.12-1.94-1.46-4.18-2.34-6.58-2.92-.82-.2-1.64-.4-2.45-.6-.06-.02-.14-.12-.14-.18,0-.06.09-.15.16-.17.4-.12.8-.25,1.21-.33,2.72-.57,5.45-1.13,8.17-1.69.33-.07.66-.14.98-.23.47-.13,1.11-.14,1.15-.73.02-.42-.48-.6-.85-.78-1.98-.92-3.72-2.13-5.3-3.56-2.58-2.33-4.47-5.05-5.89-8.08-1.42-3.02-2.26-6.19-3-9.38-.8-3.5-1.38-7.03-1.73-10.59-.2-2.01-.53-4.01-.78-6.01-.25-2-.47-4.01-.72-6.02-.16-1.31-.33-2.62-.52-3.93-.74-5.16-1.4-10.33-2.58-15.42-1.09-4.71-2.45-9.36-4.32-13.88-.9-2.18-1.88-4.33-2.98-6.43-1.69-3.23-3.73-6.27-6.14-9.1-1.25-1.47-2.56-2.89-4.04-4.18-3.52-3.07-7.37-5.71-11.78-7.62-1.07-.46-2.17-.88-3.27-1.27-2.77-.97-5.57-1.86-8.44-2.53-2.88-.66-5.79-1.15-8.77-1.22-.59-.02-1.19-.06-1.77-.15-2.36-.37-4.71-.3-7.07.06-1.84.28-3.68.54-5.47,1.02-3.73.99-6.36,2.31-11.45,4.92-2.16,1.11-4.19,2.15-6.82,3.77-2.71,1.68-4.72,3.14-6.63,4.54-2.76,2.03-4.14,3.04-5.18,3.99-2.24,2.04-11.27,14.32-12.49,18.2-.23.74-.38,1.51-.59,2.26-.45,1.59-.61,3.21-.55,4.84.13,3.58.65,7.1,1.99,10.49.31.78.57,1.58.82,2.37-.76-.03-1.53-.07-2.3-.09-.16,0-.34.02-.5.06-.34.09-.62.28-.74.58-.12.3-.1.65.15.88.35.33.73.65,1.16.87.66.34,1.39.58,2.06.89.67.31.98.86.92,1.54-.04.46-.15.92-.3,1.36-.54,1.58-1.47,2.97-2.51,4.29-.65.82-1.33,1.61-1.98,2.42-.3.37-.59.76-.82,1.18-.42.77-.27,1.51.25,2.2.35.46.82.78,1.36,1.03.83.39,1.68.74,2.5,1.14.67.33,1.33.69,1.93,1.11.71.49,1.1,1.18,1.14,2,.03.62.02,1.24.02,1.86,0,.54-.03,1.09-.02,1.63.01.65.26,1.22.74,1.7.57.58,1.22,1.1,1.71,1.72,1.04,1.34,2.23,2.54,3.53,3.65.82.7,1.41,1.55,1.81,2.5.34.8.62,1.61.86,2.44.35,1.2.62,2.42.96,3.62.21.75.43,1.51.75,2.22,1.37,2.97,4.58,4.69,8.21,4.27,2.46-.28,4.79-.98,7.03-1.94,2.91-1.26,5.77-2.61,8.41-4.32,1.45-.94,2.92-1.86,4.39-2.78.35-.22.71-.42,1.07-.61.45-.24,1.03-.17,1.43.11,1.02.73,1.74,1.69,2.4,2.69.92,1.4,1.82,2.81,2.69,4.23,1.01,1.65,1.63,3.42,1.74,5.31.21,3.5.17,6.99-.92,10.4-.31.97-.53,1.96-.57,2.98-.06,1.45-.56,1.76-2.02,1.79-.51,0-1.02,0-1.52,0-2.37.01-4.74.02-7.11.04-.76,0-1.54-.02-2.28.09-2.68.41-5.39.39-8.08.72-2.94.37-5.85.87-8.73,1.48-2.08.44-4.01,1.23-5.87,2.17-1.06.53-1.93,1.24-2.66,2.12-1.23,1.5-2.21,3.13-2.88,4.9-.34.88-.61,1.78-.93,2.66-.08.21-.2.43-.36.6-.06.07-.37.06-.43-.01-.69-.8-1.05-1.77-1.46-2.69-1.31-2.97-3.09-5.7-4.96-8.39-2.37-3.42-5.22-6.5-8.16-9.51-2.49-2.55-5.31-4.79-8.2-6.95-5.86-4.38-12.26-8.03-18.91-11.3-3.96-1.95-8.08-3.59-12.17-5.26-2.94-1.2-5.91-2.33-8.86-3.51-3.72-1.49-7.44-3-11.16-4.5-4.35-1.74-8.7-3.46-13.03-5.22-4.1-1.67-8.18-3.38-12.26-5.09-3.54-1.48-7.11-2.92-10.6-4.49-7.07-3.18-14.1-6.43-21.15-9.66-3.26-1.49-6.41-3.17-9.55-4.87-3.58-1.93-7.01-4.07-10.2-6.52-1.69-1.3-3.29-2.7-4.67-4.27-2.18-2.48-4.23-5.06-6.04-7.78-1.32-1.99-2.63-3.99-3.65-6.13-1.67-3.5-3.06-7.08-3.91-10.82-.46-2.05-.9-4.11-1-6.22-.02-.54-.12-1.08-.16-1.62-.09-1.08-.22-2.17-.24-3.25-.04-2.1-.07-4.2.33-6.28,0-2.65.49-5.26.95-7.86.07-.38.09-.77.09-1.16,0-.47-.09-.93-.57-1.22-.42-.26-1.07-.19-1.62.28-1.11.96-2.25,1.9-3.24,2.95-3.4,3.61-6.2,7.58-8.26,11.97-2.22,4.74-3.04,9.7-2.44,14.82.43,3.64,1.39,7.18,2.84,10.61.4.94.79,1.88,1.15,2.84,1.36,3.69,3.13,7.21,5.23,10.6.16.27.29.55.42.84.02.05-.02.15-.07.2-.05.05-.16.1-.21.09-.31-.11-.64-.2-.91-.37-1.83-1.14-3.43-2.52-4.98-3.96-2.53-2.34-4.54-5.01-6.2-7.92-.79-1.38-1.4-2.82-1.78-4.35-.2-.83-.47-1.66-.75-2.47-.1-.28-.33-.54-.53-.78-.29-.34-1.08-.33-1.37,0-.16.18-.32.36-.46.56-2.64,3.83-4.03,8.02-4.24,12.54-.06,1.32-.02,2.64.01,3.96.01.62.07,1.24.17,1.86.52,3.27,1.77,6.32,3.62,9.14,2.11,3.21,4.62,6.15,7.46,8.82,3.2,3.02,6.87,5.53,10.86,7.62.59.31,1.19.59,1.77.92.1.06.12.26.14.41,0,.03-.12.11-.2.12-1.55.23-3.03-.17-4.51-.46-4.02-.77-7.78-2.12-11.16-4.3-1.89-1.22-3.53-2.65-4.81-4.43-.47-.65-.96-1.28-1.48-1.89-.2-.23-.51-.4-.78-.57-.3-.18-.96-.04-1.15.23-.14.19-.3.38-.38.6-.57,1.47-.92,2.99-1.01,4.55-.14,2.2.2,4.34.78,6.46,1.15,4.26,3.39,7.95,6.93,10.91,2.19,1.83,4.61,3.41,7.11,4.87,3.44,2.01,7.03,3.74,10.85,5.05.4.14.78.29,1.16.46.14.06.26.18.38.29.04.04.05.14.04.21-.01.07-.06.18-.11.19-.32.08-.65.19-.98.21-4.29.22-8.45-.41-12.49-1.67-3.65-1.14-7.01-2.75-9.38-5.7-.25-.31-.57-.57-.87-.85-.24-.22-.5-.42-.76-.61-.75-.54-1.73-.21-1.97.67-.04.15-.1.3-.12.45-.2,1.94-.27,3.89.09,5.81.49,2.62,1.42,5.12,2.87,7.44,1.18,1.89,2.56,3.67,4.28,5.18,1.29,1.13,2.72,2.1,4.23,2.97,6.23,3.59,12.94,6.09,20.16,7.41,1.08.2,2.17.35,3.25.52.17.03.33.07.49.1.24.05.52.34.44.48-.07.13-.16.31-.29.36-3.01,1.34-6.15,2.18-9.52,2.22-1.27.02-2.54.05-3.81.02-4.25-.09-8.19-1.08-11.64-3.44-.4-.28-.84-.52-1.38-.53-.29,0-.75.26-.78.5-.03.23-.07.46-.05.69.17,1.56.69,3.03,1.37,4.47,1.34,2.83,3.33,5.2,5.73,7.34,2.41,2.16,5.18,3.72,8.34,4.75,2.96.96,6.02,1.58,9.09,2.16,1.92.36,3.87.37,5.8.65,1.35.19,2.71.27,4.05.14,2.44-.24,4.89-.32,7.32-.66,1.74-.25,3.45-.71,5.23-.67-.3.26-.56.58-.9.77-2.1,1.19-3.97,2.63-5.76,4.17-.74.64-1.59,1.15-2.49,1.59-5.27,2.56-10.81,3.42-16.68,2.34-.74-.13-1.5-.18-2.25-.23-.49-.03-.93.57-.77.99.08.22.14.46.28.64.53.7,1.05,1.41,1.64,2.06,1.58,1.75,3.47,3.2,5.57,4.37,2.69,1.5,5.56,2.56,8.72,3,2.54.35,5.04.43,7.56.05.42-.06.84-.08,1.26-.11,5.83-.43,11.24-2.07,16.3-4.71.73-.38,1.43-.81,2.28-.95-.89,2.61-2.67,4.65-4.92,6.36-2.63,2.01-5.66,3.39-8.93,4.31-.89.25-1.79.42-2.73.5-1.01.09-2.01.25-3.01.41-.42.07-.81.23-.99.64-.15.34.06.84.53,1.22.13.1.25.21.39.3,4.47,3.11,9.55,4.58,15.11,4.76,2.1-.2,4.23-.32,6.24-.96,2.64-.84,5.24-1.76,7.74-2.93,3.12-1.46,5.95-3.27,8.45-5.51.54-.49,1.12-.94,1.69-1.41.05-.04.19-.07.23-.04.11.09.29.22.27.31-.25,1.46-.6,2.92-1.41,4.21-2.55,4.02-5.98,7.11-10.88,8.65-.56.17-1.11.39-1.64.62-.22.09-.42.26-.62.41-.39.28-.42.96-.04,1.24.33.24.66.48,1.03.67,3.04,1.54,6.39,1.98,9.78,2.22.33.02.67-.05,1.01-.08.59-.05,1.18-.14,1.77-.16,1.28-.05,2.5-.36,3.71-.72,1.79-.53,3.41-1.36,4.98-2.29,2.35-1.39,4.7-2.78,6.66-4.63,1-.94,1.96-1.92,2.96-2.87.08-.08.3-.05.46-.03.06,0,.15.12.14.18-.03.46,0,.94-.14,1.37-.68,2.2-1.84,4.19-3.44,5.92-1.52,1.67-3.17,3.24-5.4,4.16-.76.32-1.46.78-2.17,1.2-.21.12-.4.29-.59.44-.57.44-.45,1.2.23,1.55.15.07.29.17.44.22,3.2,1.14,6.47,1.83,9.92,1.15.25-.05.5-.07.75-.1,2.4-.31,4.57-1.17,6.49-2.5,2.76-1.92,5.42-3.95,7.66-6.42,2.07-2.29,3.85-4.72,5.12-7.46.1-.21.19-.43.3-.64.03-.07.08-.14.15-.19.06-.05.17-.12.2-.1.11.08.27.19.27.29-.09,1.62-.2,3.24.02,4.87.15,1.15.17,2.35-.03,3.48-.73,4.13-2.69,7.66-6.41,10.23-.4.28-.81.57-1.19.87-.19.15-.33.35-.48.53-.24.28-.04.87.33.99.24.08.47.18.72.2,1.69.16,3.39.21,5.07-.02,3.43-.49,6.51-1.71,8.93-4.07,2.39-2.32,4.57-4.8,6.05-7.73.57-1.12,1.07-2.28,1.62-3.42.1-.21.24-.39.37-.59.09-.14.18-.14.22,0,.18.75.39,1.5.53,2.27.3,1.62.34,3.26.04,4.87-.47,2.58-1.54,4.91-3.65,6.77-.55.48-1.01,1.04-1.46,1.6-.3.37,0,1.02.48,1.14.08.02.16.06.24.07,4,.43,7.55-.52,10.61-2.92,1.16-.91,2.13-1.99,2.95-3.18,1.17-1.72,2.16-3.52,3.03-5.38.13-.29.23-.59.38-.86.06-.11.23-.24.36-.25.09,0,.27.18.28.29.22,2.74-.52,5.23-2.3,7.45-.45.56-.97,1.07-1.44,1.62-.26.31-.48.64-.69.97-.25.39.04,1.04.53,1.13.57.11,1.16.22,1.75.22,2.52.03,4.89-.49,6.96-1.83,1.46-.95,2.67-2.15,3.58-3.58,1.37-2.15,2.62-4.35,3.34-6.77.05-.15.09-.31.19-.43.09-.11.24-.23.37-.24.14,0,.34.09.41.2,1.74,2.62,2.19,5.33.76,8.21-.35.7-.6,1.45-.84,2.19-.17.55.28,1.13.87,1.22.25.04.51.1.75.08,2.82-.25,5.22-1.27,6.96-3.38.62-.75,1.01-1.62,1.33-2.5.66-1.85,1.07-3.76,1.37-5.68.08-.53.1-1.09.06-1.63-.17-2.02-.56-4-1.29-5.92-.1-.26-.31-.49-.5-.72-.23-.28-.7-.25-.89.05-.27.43-.32.9-.34,1.37-.03,1.26-.36,2.46-.71,3.66-.08.3-.22.59-.39.85-.06.1-.27.13-.43.17-.06.01-.16-.05-.2-.11-.52-.79-.8-1.7-1.48-2.42-1.23-1.31-2.64-2.39-4.4-3.08-1.61-.63-2.14-.71-2.7,1.13-.69,2.26-1.86,4.33-3.24,6.3-.32.45-.66.88-1.17,1.18.01-.84.03-1.69.03-2.53.01-.78-.12-1.55-.41-2.29-1.01-2.5-2.8-4.4-5.29-5.76-.46-.25-1.01-.04-1.2.48-.19.51-.34,1.04-.51,1.56-1.18,3.53-3.03,6.73-5.57,9.6-.07.08-.29.06-.43.05-.04,0-.11-.13-.1-.2.18-.99.36-1.99.57-2.98.2-.94.15-1.86-.15-2.76-.22-.67-.41-1.35-.7-1.99-.92-2.06-2.32-3.78-4.34-5.04-1.29-.81-1.81-.67-2.47.72-.07.14-.14.28-.2.43-1.38,3.39-3.5,6.37-5.94,9.17-.9,1.03-1.88,1.99-3.04,2.79-.05.04-.17.02-.24,0-.06-.03-.14-.14-.12-.18.42-1.26.92-2.5,1.26-3.78,1.29-4.82-.32-8.87-4.05-12.31-.24-.22-.53-.38-.82-.55-.42-.25-1.09-.21-1.41.11-.4.4-.77.82-1.13,1.25-.61.74-1.15,1.54-1.82,2.24-1.88,2-3.88,3.9-6.09,5.6-1.03.79-2.07,1.6-3.29,2.16-.07.03-.21.03-.24,0-.09-.11-.24-.29-.2-.36.29-.56.61-1.1.94-1.64,1.3-2.15,2.03-4.43,1.78-6.92,0-.08,0-.16-.01-.23-.26-2.61-1.14-5.01-2.83-7.13-1.25-1.57-2.17-1.81-3.37.03-1.75,2.68-3.98,5.02-6.45,7.16-2.68,2.31-5.72,4.11-9.05,5.51-.3.13-.61.25-.95.08-.19-.09-.12-.43.19-.81.61-.74,1.26-1.46,1.85-2.22.84-1.07,1.65-2.17,2.1-3.44,1.39-3.95.66-7.66-1.53-11.2-.16-.26-.43-.48-.67-.69-.44-.38-1.19-.39-1.63-.03-.13.1-.26.2-.37.32-2.06,2.19-4.5,3.99-7.01,5.71-3.77,2.57-7.89,4.51-12.41,5.72-1.21.32-2.43.64-3.71.64-.06,0-.14-.08-.17-.14-.03-.06-.03-.18.01-.22.58-.45,1.14-.93,1.75-1.33,1.33-.85,2.47-1.88,3.61-2.92.85-.78,1.5-1.68,2.05-2.65.96-1.68,1.33-3.5,1.65-5.35.33-1.89-.03-3.7-.51-5.52-.04-.15-.14-.28-.2-.43-.25-.52-1.02-.77-1.49-.43-.66.48-1.29,1-1.89,1.54-.61.54-1.19,1.11-1.95,1.48-2.99,1.47-6.07,2.74-9.34,3.59-3.1.81-6.26,1.28-9.46,1.64-2.31.26-4.55.06-6.79-.35-.05,0-.12-.1-.13-.16-.01-.07.01-.18.06-.2.53-.23,1.06-.48,1.61-.64,1.78-.52,3.46-1.26,5.09-2.08.74-.37,1.45-.81,2.08-1.32,2.85-2.28,4.53-5.18,5.33-8.54.18-.76.27-1.54.06-2.31-.11-.39-.4-.69-.83-.81-.32-.09-.66-.15-1-.14-1.01.03-2.04.04-3.04.18-1.43.19-2.86.25-4.3.26-2.71.01-5.4-.08-8.1-.35-3.21-.32-6.37-.78-9.47-1.56-2.45-.61-4.87-1.32-7.11-2.46-.29-.15-.53-.36-.79-.56-.04-.03-.03-.15,0-.21.02-.06.09-.14.15-.16,1.09-.23,2.18-.05,3.27.04,2.8.25,5.56-.17,8.33-.48.25-.03.49-.12.74-.18,2.43-.55,4.52-1.71,6.55-3,2.35-1.49,4.12-3.44,5.53-5.69.25-.39.36-.86.48-1.31.11-.43-.26-.96-.74-1.09-.32-.09-.65-.17-.98-.22-5.29-.72-10.45-1.88-15.51-3.47-4.11-1.29-7.97-3.06-11.71-5.03-2.26-1.2-4.42-2.57-6.04-4.52,1.15.23,2.31.42,3.44.69,2.3.54,4.63.91,6.95,1.33,2.74.5,5.4.18,8.03-.44,2.62-.62,5.18-1.44,7.49-2.8.21-.13.44-.22.67-.32.46-.2,2.49-1.6,2.7-1.82.22-.23.47-.45.68-.69.63-.72-20.09-9.32-24.92-12.52-2.48-1.65-4.62-3.63-6.66-5.71-.11-.11-.19-.26-.25-.4-.02-.05,0-.15.04-.2.04-.05.15-.1.21-.09.32.08.65.17.96.28,2.5.95,5.05,1.78,7.62,2.55,1.95.58,3.96.81,5.98.98.75.06,1.52-.02,2.27-.1.84-.08,1.68-.21,2.51-.35,3.45-.57,6.71-1.6,9.64-3.39.42-.25.78-.59,1.13-.92.25-.23.2-.88-.07-1.09-.25-.2-.51-.42-.8-.55-.85-.34-1.71-.68-2.58-.96-2.4-.77-4.74-1.67-6.96-2.81-5.34-2.74-10.37-5.85-14.53-10.03-.17-.17-.35-.34-.53-.5-2.07-1.86-3.76-3.98-5.17-6.3-.36-.59-.61-1.24-.91-1.87.39.27.82.51,1.15.84,1.24,1.19,2.73,2.08,4.24,2.93,2.64,1.48,5.55,2.29,8.57,2.69,1.92.26,3.88.22,5.81.01,1.03-.11,1.48-.89.97-1.67-.3-.47-.65-.91-.96-1.37-1.09-1.57-2.21-3.12-3.27-4.71-3.86-5.83-6.38-12.13-7.71-18.83-.12-.59-.13-1.19-.19-1.78.31.62.62,1.23.92,1.85.88,1.85,1.66,3.75,2.66,5.54,2.08,3.74,4.51,7.3,7.34,10.6.99,1.16,2.02,2.3,3.13,3.37.87.84,1.9,1.55,2.83,2.33,2.82,2.37,5.91,4.42,9.13,6.28,5.45,3.15,11.16,5.88,17.03,8.31,6.02,2.48,12.08,4.88,18.2,7.16,9.88,3.68,19.81,7.26,29.73,10.84,9.29,3.35,18.61,6.66,27.92,9.98,4.18,1.49,8.29,3.16,12.31,4.97,2.88,1.3,5.69,2.76,8.43,4.29,5.72,3.21,11.13,6.81,15.78,11.28.53.51,1.07,1,1.61,1.48,3.24,2.88,6,6.11,8.42,9.59,2.42,3.48,4.41,7.16,5.97,11.04.76,1.88.97,3.77.61,5.72-.24,1.31-.34,2.62-.39,3.94-.03.7-.13,1.39-.2,2.09-.09,1.01-.21,2.01-.25,3.02-.06,1.55-.05,3.11-.08,4.66-.02.77-.03,1.56-.15,2.32-.19,1.23-.25,2.47-.26,3.72-.01,1.55-.02,3.11-.05,4.66-.03,2.02.06,4.03.44,6.03.47,2.49.41,2.5-.85,4.87-1.38,2.59-2.46,5.28-3.39,8.03-.86,2.57-.98,5.19-.78,7.84.03.46.13.93.26,1.37.86,2.94,2.59,5.39,5.07,7.38,2.52,2.01,5.36,3.53,8.57,4.41.57.16,1.14.32,1.68.53,1.24.49,2.48,1,3.7,1.54,1.24.55,1.89,1.47,2.06,2.74.23,1.7.51,3.39.83,5.07,1.04,5.45,2.93,10.69,4.94,15.89,1.13,2.93,2.24,5.86,3.36,8.8.7,1.84,1.27,3.71,1.69,5.61.35,1.6.62,3.21.87,4.82.17,1.15.25,2.32.37,3.48.16,1.48.17,2.93-.34,4.38-.44,1.26-.4,2.26-.46,2.52-.21.96-1.33,6.18.15,10.62.99,2.95,3.32,5.27,8,9.9.19.19,1.57,1.55,3.43,3.44.17.17.33.35.51.52,3.32,3.1,6.61,6.23,9.76,9.49,1.12,1.16,2.26,2.31,3.4,3.46.51.52,1.03,1.03,1.56,1.53,2.19,2.05,4.39,4.1,6.58,6.15,1.66,1.55,3.35,3.08,4.88,4.75,1.14,1.24,2.47,2.35,3.69,3.54.81.79,1.57,1.63,2.37,2.43.91.92,1.82,1.84,2.76,2.74.99.95,1.92,1.94,2.64,3.08-.68-.14-1.2-.51-1.68-.94-.98-.86-1.96-1.72-2.92-2.6-4.2-3.84-8.41-7.67-12.59-11.52-12.99-11.93-25.96-23.87-38.95-35.8-4.79-4.4-9.6-8.78-14.4-13.16-1.56-1.42-3.08-2.89-4.81-4.15-.59-.43-1.11-.96-1.65-1.45-4.85-4.45-9.7-8.9-14.54-13.36-.36-.33-.74-.65-1.06-1-2.96-3.21-6.24-6.14-9.58-9-5.83-4.98-11.37-10.22-17.06-15.33-2.97-2.66-5.85-5.4-8.77-8.11-1.02-.94-2.1-1.8-3.3-2.54-1.52-.94-3.16-1.42-5.01-1.42-3.39,0-6.77.18-10.13.55-.96.11-1.79.46-2.53,1-1.78,1.33-3.41,2.79-4.73,4.53-1.55,2.05-2.84,4.24-4.18,6.39-3.78,6.08-7.25,12.31-10.67,18.55-1.94,3.54-3.95,7.05-5.91,10.58-.5.9-.92,1.83-1.41,2.74-.83,1.53-1.65,3.07-2.52,4.58-1.35,2.34-2.72,4.66-4.29,6.88-1.98,2.8-3.91,5.64-6.01,8.37-3.96,5.14-8.02,10.21-12.06,15.3-3.54,4.46-7.3,8.77-11.1,13.04-1.44,1.62-2.97,3.19-4.48,4.76-2.3,2.39-4.61,4.76-6.92,7.14-.28.29-.57.57-.87.85-3.28,3.04-6.54,6.09-9.84,9.11-1.8,1.64-3.59,3.3-5.59,4.75-.46.34-.88.73-1.3,1.11-3.08,2.78-6.44,5.27-9.74,7.83-2.4,1.85-4.85,3.65-7.04,5.7-1.43,1.34-3.07,2.44-4.64,3.62-3.81,2.85-7.41,5.9-10.65,9.31-2.68,2.81-5.29,5.66-7.71,8.66-1.41,1.75-2.7,3.58-4.04,5.37-1.06,1.41-2.13,2.81-3.18,4.22-3.3,4.42-7.63,7.88-12.3,11.02-.7.47-6.99,3.33-7.67,4.34-.22.32-.09.74.28.9,4.8,2.12,9.87,3.42,15.17,3.99,2.36.26,4.74.22,7.1.02,1.26-.11,2.51-.36,3.74-.66,2.06-.5,3.97-1.33,5.6-2.64.45-.36.93-.68,1.38-1.03.91-.71,1.89-1.3,3.02-1.69.62-.22,1.24-.52,1.78-.89,1.39-.94,2.95-1.51,4.58-1.96,1.05-.29,2.1-.61,3.16-.87,3.03-.75,6.06-1.45,9.08-2.21.98-.24,1.98-.48,2.88-.89,1.21-.55,2.42-1.1,3.69-1.55.39-.14.77-.33,1.13-.53,1.78-1.01,2.79-2.48,2.93-4.39.06-.85,0-1.71-.14-2.55-.23-1.3-.6-2.58-1.17-3.81-.63-1.36-1.29-2.7-1.95-4.05-.42-.85-.91-1.67-1.32-2.52-.46-.92-.79-1.88-.94-2.89-.29-1.98.21-3.66,1.84-5.08,2.1-1.81,4.24-3.58,6.56-5.13,2.53-1.7,5.25-3.14,8.1-4.36,1.99-.85,4.01-1.67,6.03-2.46,3.9-1.37,9.2-3.43,15.22-6.44,6.78-3.39,11.52-6.5,15.93-9.4,5.22-3.43,8.61-6,14.95-10.8,0,0,7.28-5.44,12.46-10.32,1.68-1.58,2.95-2.81,4.64-4.63,3.3-3.57,6.2-7.38,8.48-11.58,1.48-2.71,2.97-5.41,4.44-8.13.72-1.32,1.45-2.64,2.09-4,2.04-4.35,4.02-8.73,6.03-13.09,1.25-2.72,2.49-5.45,4-8.06.28-.48.55-.96.88-1.41.59-.81,1.85-.94,2.68-.29.25.2.51.42.71.66,1.08,1.29,2.19,2.57,3.2,3.91,2.83,3.78,5.32,7.76,7.69,11.8,1.92,3.28,3.68,6.65,5.5,9.99.45.83.83,1.7,1.23,2.56.97,2.15,1.87,4.34,2.92,6.46,2.03,4.11,3.87,8.29,5.47,12.55,2.09,5.59,4.08,11.2,6.11,16.81.21.59.4,1.19.58,1.79.78,2.54,1.56,5.09,2.33,7.63.32,1.05,5.62,24.03,6.33,25.09.17.26.3.55.44.83.08.17-.21.49-.43.47-.33-.03-.67-.04-1-.12-2.3-.53-4.62-.94-6.97-1.27-2.93-.41-5.86-.8-8.77-1.33-3.99-.73-8-1.29-12.07-1.41-.34,0-.68-.02-1.01-.09-1.67-.3-3.36-.32-5.06-.38-.59-.02-1.19-.03-1.77-.13-1.51-.25-3.03-.27-4.55-.27-2.37,0-4.74,0-7.11,0-.76,0-1.53-.02-2.28.09-2.93.41-5.9.38-8.85.74-2.69.32-5.36.66-8,1.23-5.04,1.1-9.91,2.66-14.75,4.32-1.19.41-2.33.92-3.41,1.54-1.44.82-2.91,1.59-4.44,2.25-.91.39-1.75.94-2.56,1.51-2.89,2.03-5.76,4.08-8.62,6.15-1.93,1.39-3.88,2.76-5.58,4.41-1.32,1.28-2.22,2.74-2.58,4.46-.16.76-.27,1.53-.37,2.3-.11.85-.2,1.7-.28,2.55-.08.85-.18,1.7-.21,2.56-.04,1.71-.02,3.42-.07,5.13-.06,2.03.23,4.03.65,6.02.44,2.09,1.28,4.05,2.82,5.66,3.75,3.91,8.38,6.48,14,7.49,1.67.3,3.36.34,5.04.57,1.6.22,3.2.3,4.81.3,2.45,0,4.91,0,7.37-.01.84,0,1.7-.02,2.54-.11,2.44-.25,4.88-.47,7.3-.83,2.42-.35,4.85-.74,7.21-1.32,2.71-.67,5.44-1.15,8.21-1.5,2.77-.34,5.53-.71,8.29-1.08,3.18-.43,6.36-.88,9.54-1.29,1.68-.22,3.36-.38,5.04-.55,2.52-.26,5.04-.5,7.57-.77,2.27-.24,4.54-.47,6.8-.76,3.77-.48,7.51-1.2,11.34-1.19.42,0,.84-.07,1.27-.1,1.27-.09,2.53-.25,3.8-.24,4.07.03,8.1-.64,12.16-.61.25,0,.51-.04.76-.08,1.42-.24,2.86-.27,4.3-.27,3.89-.02,7.79-.02,11.68-.06,1.18,0,2.37-.1,3.55-.17,1.27-.07,2.53-.2,3.8-.21,4.49-.03,8.97-.01,13.46-.01,1.78,0,3.55,0,5.32.27.66.1,1.35.09,2.03.1,1.36.03,2.71.03,4.07.05,2.28.03,4.57,0,6.84.35.66.1,1.35.08,2.03.1,2.03.05,4.06.03,6.08.37.66.11,1.35.07,2.02.11,3.12.18,6.23.55,9.37.59.08,0,.17.01.25.03,1.59.29,3.19.3,4.8.33.68.01,1.36,0,2.03.11,1.68.26,3.37.32,5.06.38.67.02,1.35.11,2.02.21,1.01.16,2.01.17,3.03.04.67-.09,1.37-.18,2.02-.09,2.19.32,4.39.25,6.59.3,1.52.03,3.04.09,4.56.25,2.19.24,4.41.25,6.59.02,2.02-.21,4.05-.3,6.08-.29,2.47.01,4.9-.26,7.32-.68,1.09-.19,2.18-.31,3.28-.31,1.44,0,2.88-.03,4.32.02,1.01.04,2.02.16,3.02.31,1.25.19,2.5.41,3.74.68,3.3.72,6.55,1.58,9.45,3.28.64.37,1.34.67,2.04.93,1,.37,2.05-.09,2.51-1.03.25-.51.33-1.05.19-1.59-.12-.45-.29-.9-.48-1.32-.83-1.8-1.9-3.48-3.32-4.94-1.19-1.23-2.16-2.58-3.13-3.95-2.04-2.88-4.37-5.54-7.04-7.94-.85-.76-1.67-1.54-2.53-2.3-2.04-1.77-4.26-3.31-6.74-4.53-.44-.22-.87-.47-1.3-.72-.26-.15-.35-.62-.16-.84.21-.24.42-.49.65-.71.59-.56,1.2-1.1,1.8-1.65,1.42-1.28,2.36-2.82,2.97-4.56.13-.37.23-.75.38-1.11.06-.14.17-.29.31-.34.12-.05.41-.04.44.03.18.34.35.7.43,1.08.44,2.07,1.19,4.05,2.25,5.92,1.5,2.65,3.71,4.61,6.67,5.84,3.42,1.43,6.96,2.41,10.78,2.29,2.99-.09,5.9.43,8.75,1.24,1.54.44,3.05.93,4.56,1.44,1.67.58,3.39,1,5.14,1.27,1.85.28,3.71.29,5.53-.22.97-.27,1.6-.85,1.91-1.72.16-.44.24-.9.38-1.35.13-.43.76-.64,1.26-.47.57.2,1.06.5,1.41.95.25.32.45.66.67.99,1.24,1.78,2.66,3.41,4.39,4.81.25.2.56.33.86.47.25.12.75-.15.78-.42.03-.23.09-.47.05-.69-.19-1.1-.66-2.08-1.46-2.92-.5-.52-.99-1.05-1.23-1.75-.19-.54.24-1.13.86-1.17.52-.03,1.02.05,1.48.25,1.22.53,2.45,1.06,3.65,1.64,1.74.84,3.61,1.34,5.53,1.67.41.07.84.07,1.26.04.35-.03.66-.2.8-.53.13-.29-.01-.7-.28-.9-.49-.37-.98-.78-1.54-1.02-2.63-1.11-5.08-2.48-7.55-3.84-1.67-.92-3.36-1.81-5.2-2.42-.24-.08-.47-.19-.67-.33-.12-.08-.2-.23-.28-.35-.08-.14.25-.34.57-.31.75.09,1.52.13,2.25.3,1.4.32,2.74.8,4.05,1.36,1.69.72,3.4,1.4,5.23,1.78.66.14,1.33.28,2.01.16.93-.16,1.85-.09,2.78.03.42.05.85.05,1.27,0,.22-.03.56-.15.62-.31.25-.6.91-.67,1.36-1,.28-.21.28-.65-.04-.79-.69-.31-1.4-.56-1.89-1.14-.23-.27-.25-.51-.04-.83.3-.47.22-.79-.13-.97-.67-.34-1.33-.68-2.01-.99-4.43-1.99-8.61-4.32-12.39-7.25-2.31-1.8-4.96-2.95-8.01-3.25-2.53-.25-5-.77-7.46-1.37-3.28-.81-6.65-1.13-10.02-1.42-.41-.04-.84.02-1.25.11-.43.09-.83.11-1.23-.1-2.28-1.19-4.57-2.37-6.85-3.57-1.3-.68-2.16-1.72-2.72-2.98-.19-.43-.35-.88-.52-1.31-1.34-3.45-2.29-7-3-10.59-.47-2.37-.83-4.76-1.4-7.11-1.61-6.6-3.29-13.18-4.95-19.76-.25-.98-.49-1.97-.76-2.95-1.13-4.22-2.23-8.46-3.42-12.67-1.87-6.62-3.83-13.21-5.72-19.83-1.35-4.74-2.62-9.49-3.94-14.24-1.46-5.27-2.96-10.53-4.37-15.82-.62-2.34-.99-4.72-.96-7.15.06-3.57.07-7.15.12-10.72,0-.62.05-1.25.16-1.86.22-1.23.26-2.47.28-3.72.02-1.55.03-3.11.07-4.66.02-.77.04-1.56.16-2.32.2-1.24.25-2.48.25-3.72.02-3.03.04-6.06.09-9.09.01-.93.11-1.86.18-2.79.07-1.01.2-2.01.23-3.02.06-1.79.05-3.57.09-5.36.02-.78,0-1.56.13-2.32.29-1.62.3-3.25.32-4.88.02-1.87.03-3.73.07-5.59.02-.78.02-1.56.15-2.32.22-1.31.26-2.63.26-3.95.03-7.07.07-14.14.1-21.21,0-1.4.07-2.79.25-4.19.23-1.78.24-3.57,0-5.35-.2-1.47-.24-2.94-.27-4.42-.05-2.64.08-5.29-.44-7.91-.08-.38-.09-.77-.08-1.16.02-1.01-.43-2.05,0-3,.45-1,1.08-1.94,1.75-2.83,2.61-3.45,5.42-6.75,8.66-9.74,1.85-1.71,3.76-3.35,5.75-4.93,2.7-2.14,5.54-4.08,8.46-5.95,5.28-3.4,10.9-6.28,16.65-8.93,5.29-2.44,10.67-4.74,15.96-7.18,16.51-7.58,33.15-14.91,49.44-22.88,3.29-1.61,6.54-3.27,9.77-4.98,4.84-2.57,9.52-5.36,13.99-8.45,1.97-1.36,3.76-2.9,5.66-4.31,2.53-1.88,4.65-4.1,6.56-6.47,3.99-4.97,7.13-10.37,9.28-16.25.78-2.14,1.51-4.29,2.07-6.48.01-.05.12-.08.18-.12.04.07.13.14.12.2-.14,1.08-.28,2.15-.43,3.23-.23,1.69-.35,3.41-.73,5.08-.52,2.28-1.14,4.55-1.89,6.77-1.41,4.17-3.36,8.13-5.76,11.9-.47.73-.86,1.51-1.25,2.28-.21.41.15,1.01.62,1.12.24.06.49.14.74.14,1.02-.01,2.04.01,3.04-.1,3.23-.37,6.27-1.33,9.09-2.8,2.14-1.12,4.1-2.47,5.63-4.28.35-.42.78-.77,1.18-1.16-.03.61-.2,1.2-.48,1.75-.95,1.91-1.98,3.78-3.31,5.5-1.48,1.9-3.14,3.66-4.82,5.41-.78.81-1.71,1.5-2.59,2.23-.44.37-.91.7-1.35,1.06-3.69,3.01-7.74,5.53-12.19,7.51-1.14.51-2.29,1.02-3.41,1.56-.36.18-.66.47-.97.73-.25.23-.24.84,0,1.09.23.22.46.47.75.61.58.31,1.19.59,1.81.83,1.87.72,3.76,1.41,5.78,1.72.06,0,.16.1.16.15,0,.14,1.79.22,2.42.2.93-.04,1.86-.03,2.79-.03,2.65,0,5.21-.49,7.67-1.38,2.21-.8,4.34-1.75,6.46-2.73.9-.42,1.77-.9,2.78-1.06-.58,1.12-1.29,2.19-2.22,3.08-1.56,1.53-3.14,3.06-4.87,4.42-2.69,2.13-5.59,4.01-8.65,5.71-4.51,2.51-14.82,6.39-15.32,7.76-.08.21,6.35,3.95,9.79,4.7,1.07.23,2.15.42,3.23.63,2.02.39,4.03.34,6.06.01,2.43-.39,4.77-1.07,7.11-1.74,1.45-.42,2.88-.91,4.32-1.37.19-.06.34,0,.38.18.02.07,0,.17-.05.22-1.32,1.42-2.73,2.75-4.35,3.9-5.2,3.7-10.96,6.47-17.11,8.54-3.18,1.07-6.4,2.04-9.71,2.72-.49.1-.98.23-1.47.37-.93.26-1.21.82-.79,1.61.19.35.39.69.62,1.01,1.29,1.77,2.87,3.27,4.83,4.4,1,.58,2.06,1.07,3.1,1.59,2.44,1.21,5.07,1.68,7.82,1.72,3.15.05,6.24-.39,9.34-.74.15-.02.31.06.47.1-.06.14-.08.32-.19.4-1.61,1.15-3.39,2.05-5.26,2.79-3.44,1.36-7,2.32-10.67,2.98-2.49.45-5,.77-7.53,1.03-2.53.26-5.06.33-7.6.33-.42,0-.85,0-1.27.02-.25,0-.51.04-.75.08-.81.11-1.3.74-1.19,1.52.01.08.02.15.04.23.75,4.72,4.78,9.73,10.17,11.31,1.13.33,2.26.65,3.4.94.73.19,1.48.33,2.22.51.11.03.27.23.24.3-.04.12-.19.26-.33.3-1.56.38-3.13.68-4.75.69-2.12,0-4.23,0-6.35-.03-.51,0-1.02-.03-1.52-.1-4.2-.56-8.31-1.44-12.25-2.95-1.27-.49-2.45-1.03-3.43-1.94-.47-.43-1.04-.79-1.61-1.12-.76-.45-1.57-.17-1.82.59-.53,1.59-.64,3.2-.31,4.84.28,1.38.68,2.73,1.24,4.03.85,1.99,2.13,3.7,4,5.01,1.41.99,2.84,1.96,4.4,2.75.29.15.57.33.84.51.05.03.1.17.07.19-.09.1-.22.26-.33.25-.76,0-1.53.02-2.28-.09-2.43-.36-4.8-.94-7.11-1.72-5.05-1.73-9.59-4.24-13.62-7.53-.5-.41-1.05-.78-1.6-1.14-.59-.38-1.35-.22-1.75.38-.27.4-.51.81-.7,1.23-.9,1.97-1.29,4-1.18,6.14.14,2.74,1.05,5.18,3.06,7.23.51.52,1.05,1.02,1.57,1.52.41.39.82.78,1.21,1.2.09.1.1.29.1.43,0,.15-.4.3-.65.23-.8-.24-1.62-.43-2.4-.73-2.35-.91-4.56-2.07-6.63-3.42-2.91-1.91-5.44-4.19-7.63-6.79-.46-.55-.98-1.07-1.49-1.58-.24-.25-.92-.25-1.18-.01-.24.21-.52.42-.67.68-.56.96-1.2,1.89-1.59,2.91-1.56,4.02-1.43,7.93,1.2,11.6.56.78,1.15,1.54,1.72,2.31.12.16.07.31-.11.39-.06.03-.18.02-.25-.01-1.02-.56-2.05-1.09-3.04-1.68-3.62-2.19-6.94-4.7-9.6-7.89-.35-.43-.82-.78-1.24-1.15-.21-.18-.72-.19-.96-.04-.27.18-.56.35-.8.57-1.25,1.1-2.08,2.44-2.74,3.89-1.5,3.31-1.7,6.62-.06,9.94.35.71.71,1.41,1.04,2.13.09.19.07.43.05.65-.02.14-.41.09-.66-.12-2.15-1.76-4.23-3.58-5.99-5.69-1.34-1.61-2.53-3.3-3.49-5.13-.26-.49-.56-.96-.86-1.42-.28-.43-.88-.5-1.32-.15-.51.41-1.02.82-1.49,1.27-3.17,3.05-4.29,6.6-3.1,10.72.13.45.29.89.41,1.35.03.13-.07.28-.1.43-.16-.04-.37-.03-.46-.12-2.56-2.53-4.59-5.37-6.04-8.56-.33-.71-.68-1.42-1.05-2.12-.18-.35-.78-.47-1.1-.26-2.52,1.65-4.08,3.89-4.83,6.63-.21.77-.25,1.53-.11,2.31.14.76.23,1.52.34,2.28-.24-.21-.51-.4-.72-.63-1.72-1.94-3.2-4.01-4.22-6.34-.19-.43-.42-.85-.65-1.26-.24-.43-.8-.58-1.32-.37-.31.12-.62.24-.92.39-2.45,1.24-4.4,2.9-5.17,5.48-.05.15-.11.31-.22.42-.1.09-.26.13-.41.16-.05,0-.16-.07-.19-.12-.64-1.11-.97-2.31-1.32-3.51-.22-.75-.43-1.5-.67-2.24-.04-.11-.23-.2-.37-.27-.17-.09-.53.07-.64.27-.11.21-.25.41-.31.63-1.42,4.88-.75,9.59,1.69,14.04,1.68,3.05,4.66,4.39,8.28,4.58.4.02.83-.12,1.23-.23.34-.09.65-.64.55-.96-.11-.37-.23-.75-.4-1.1-.32-.63-.68-1.25-1.03-1.87-.48-.85-.74-1.8-.75-2.75,0-.52,0-1.04,0-1.56,0-1.2.38-2.3,1.06-3.31.07-.11.27-.2.41-.2.14,0,.29.12.39.22.11.11.17.27.23.41.97,2.7,2.72,4.99,4.59,7.21.41.49.86.97,1.38,1.35,2.87,2.13,6.17,2.78,9.78,2.26.16-.02.32-.09.48-.14.72-.22,1.05-.96.61-1.5-.46-.55-.94-1.1-1.5-1.57-1.29-1.08-2.16-2.39-2.77-3.86-.51-1.23-.95-2.5-.86-3.85,0-.11.17-.22.28-.3.03-.02.18.03.21.08.34.54.66,1.08.98,1.62,1.41,2.32,3.01,4.51,5.13,6.34.55.48,1.12.96,1.77,1.33,2.99,1.7,6.26,2.28,9.74,1.87.25-.03.48-.13.72-.21.49-.17.7-.77.44-1.16-.49-.75-1.22-1.29-1.92-1.85-1.98-1.59-3.17-3.63-3.91-5.89-.41-1.26-.78-2.56-.68-3.89.08-1.08.33-2.15.51-3.22,0-.05.11-.1.18-.11.07,0,.19.01.22.06.26.39.55.78.76,1.2,1.01,1.99,2.29,3.81,3.83,5.48,1.15,1.24,2.39,2.42,3.65,3.56,2.45,2.2,5.45,3.41,8.82,3.76,1.51.16,3.04.06,4.57.03.76,0,1.51-.18,2.2-.51.48-.22.63-.87.22-1.17-.53-.39-1.06-.79-1.64-1.1-1.56-.84-2.82-1.94-3.93-3.25-2.42-2.85-3.86-5.99-3.78-9.66.03-1.48.01-2.95-.35-4.41-.04-.14.01-.3.05-.45.01-.05.1-.11.16-.13.07-.01.19,0,.23.04.22.23.46.46.62.73,1.08,1.87,2.51,3.5,3.95,5.14.91,1.03,1.92,1.96,3.03,2.81,1.95,1.49,4,2.87,6.14,4.14,2.48,1.47,5.16,2.31,8.13,2.3.85,0,1.69-.01,2.54-.01,2.52,0,4.82-.74,7.05-1.75.3-.14.56-.35.82-.54.38-.28.35-.97-.04-1.24-.34-.23-.68-.47-1.05-.64-.98-.46-1.98-.89-2.97-1.32-.92-.4-1.77-.91-2.59-1.46-2.46-1.64-4.19-3.83-5.62-6.23-.44-.74-.69-1.58-1.01-2.38-.06-.14-.04-.31-.03-.46,0-.07.07-.15.13-.19.06-.04.18-.08.23-.05.34.22.69.43,1,.68.88.73,1.7,1.53,2.61,2.21,2.86,2.11,6.05,3.71,9.39,5.07,2.19.88,4.47,1.44,6.9,1.3.34-.02.68,0,1.02,0,4.03.08,7.66-1.07,11.07-2.95.35-.2.65-.49.95-.76.36-.32.23-.96-.2-1.22-.73-.43-1.55-.61-2.37-.79-1.16-.26-2.29-.56-3.35-1.08-2.33-1.15-4.47-2.54-6.27-4.32-1.81-1.79-3.11-3.87-3.72-6.27-.02-.06.03-.18.07-.2.14-.05.34-.12.44-.07.57.33,1.13.68,1.67,1.06,4.23,2.95,8.88,5.12,14.03,6.36.49.12.98.25,1.47.38,1.71.49,3.48.66,5.25.85.67.07,1.36.06,2.03,0,3.21-.34,6.33-1,9.27-2.29,2.16-.95,4.08-2.21,5.81-3.7.25-.21.46-.46.67-.7.34-.38.14-1-.35-1.15-1.14-.35-2.32-.43-3.51-.44-1.19,0-2.38,0-3.54-.28-3.39-.81-6.57-2.04-9.37-4.02-2.05-1.45-3.65-3.22-4.86-5.31-.03-.05,0-.16.04-.21.04-.05.15-.12.2-.11.4.12.8.25,1.18.41,1.08.45,2.13.97,3.23,1.36,4.62,1.64,9.4,2.57,14.38,2.56,1.19,0,2.37,0,3.55-.01,3.96-.07,7.7-.91,11.16-2.74,3.82-2.03,6.89-4.74,9.11-8.25.17-.26.27-.57.37-.86.16-.43-.35-1-.84-.92-.83.14-1.65.32-2.47.51-3.05.72-6.11,1.25-9.28.65-.49-.09-1.02-.06-1.52-.13-2.88-.41-5.63-1.2-8.03-2.73-2.43-1.55-4.84-3.14-7.43-4.47-.11-.06-.13-.26-.19-.39.16-.04.33-.14.48-.11,1.5.29,3.03.25,4.54.4,2.54.26,5.05.14,7.59,0,2.21-.11,4.38-.39,6.54-.74,3.69-.6,7.2-1.75,10.67-3,1.81-.65,3.55-1.46,5.16-2.5,4.36-2.83,7.36-6.6,9.08-11.23.58-1.55.96-3.14.89-4.79-.01-.35-.55-.68-.93-.6-.52.11-.93.37-1.31.69-2.38,2-5.3,3.03-8.33,3.8-.97.25-1.99.46-2.99.49-2.04.06-4.67.56-7.62,0-2.48-.47-5.38-1.59-5.26-2.28.08-.5,1.72-.48,2.84-.76ZM86.06,51.28s.12.08.13.13c.03.13.05.27.07.4-.13-.16-.31-.3-.2-.53Zm204.83,227.01c-.14,2.24-.62,4.47-.96,6.7-.16,1.01-.49,1.98-1.03,2.86-.67,1.1-1.62.4-1.42-.43.96-4.13,1.34-8.27.75-12.5-.43-3.09-.97-6.15-1.94-9.14-.89-2.75-1.93-5.47-2.95-8.19-1.07-2.87-2.17-5.72-3.26-8.58-.25-.66-.41-1.37-.76-1.97-.75-1.26-.98-2.64-1.22-4.01-.47-2.69-.91-5.37-1.38-8.06-.08-.46-.2-.91-.29-1.37-.2-1.17-.94-1.99-2.02-2.54-.81-.42-1.66-.78-2.52-1.09-1.5-.54-3-1.06-4.53-1.54-2.78-.88-5.13-2.37-7.24-4.2-1.3-1.12-2.45-2.34-3.29-3.82-1.62-2.86-2.11-5.85-1.5-9.03.67-3.47,1.92-6.76,3.54-9.94,1.58-3.1,3.38-6.09,5.41-8.97.83-1.17,1.61-2.37,2.44-3.55.12-.18.38-.28.58-.4.05-.03.17.01.23.05.06.04.13.12.14.18.01.15.03.33-.03.46-.17.35-.38.69-.6,1.03-.49.74-.9,1.49-.97,2.38-.05.72-.44,1.32-.8,1.94-.96,1.64-1.93,3.28-2.84,4.95-1.33,2.46-2.13,5.07-2.47,7.79-.02.15-.02.31-.06.46-.59,2.1-.19,4.18.26,6.24.5,2.26,1.73,4.2,3.35,5.94.22.24.47.45.69.68,1.56,1.67,3.57,2.55,5.91,2.93,1.59.26,3.17.46,4.79.44.85,0,1.7,0,2.54.05.5.03,1.01.12,1.48.28.78.25,1.26.78,1.38,1.54.07.46.11.93.1,1.39-.03,2.1.05,4.21-.18,6.29-.24,2.26-.13,4.48.04,6.73.25,3.3,1.07,6.44,2.67,9.41.97,1.81,1.99,3.6,2.97,5.41.67,1.25,1.35,2.51,1.97,3.79,1.39,2.86,2.1,5.89,2.67,8.97.65,3.48.56,6.97.34,10.46Zm135.34,118.19c.88.2,1.51.68,1.99,1.37-.9-.17-1.5-.7-1.99-1.37Zm11.59,5.61c-.03.07-.1.13-.16.16-.07.04-.16.07-.24.07-.17,0-.34,0-.5-.04-2.07-.67-4.13-1.36-6.06-2.31-1.05-.51-2.01-1.13-2.62-2.1.24.06.49.1.71.19,2.71,1.08,5.41,2.15,8.11,3.25.29.12.52.36.77.56.04.03.02.16-.02.22Zm-20.66-22.08c2.29.83,4.63,1.5,7.02,2,.49.1.99.22,1.47.37,3.61,1.12,7.3,1.99,10.99,2.84,1.48.34,2.95.69,4.43,1.02,2.01.44,3.85,1.19,5.47,2.36,2.67,1.93,5.6,3.49,8.56,4.99,1.11.56,2.28,1.02,3.42,1.52,1.07.46,2.14.92,3.21,1.39.05.02.09.15.07.21-.02.06-.12.12-.2.13-.87.13-1.68-.07-2.46-.41-3.45-1.5-6.79-3.16-9.89-5.21-.41-.27-.81-.56-1.22-.84-1.78-1.24-3.74-2.06-5.93-2.54-3.62-.79-7.21-1.7-10.81-2.57-.82-.2-1.62-.44-2.43-.66-1.38-.37-2.76-.76-4.14-1.09-2.71-.64-5.34-1.49-7.96-2.39-1.11-.38-2.16-.87-2.75-1.9,1.11.06,2.12.43,3.13.79Zm-110.13-254.14l-.05-.17.15.05-.1.13Zm.08-22.98c-1.02.82-2.02,1.65-3.03,2.48-1.83,1.5-3.64,3.02-5.48,4.51-.44.36-.94.66-1.42.98-.82.55-1.65,1.09-2.48,1.63-2.49,1.62-5.03,3.16-7.68,4.54-2.14,1.12-4.42,1.96-6.77,2.64-1.13.32-2.28.58-3.47.65-2.79.16-6.23-1.05-7.45-4.53-.41-1.18-.71-2.4-1.04-3.6-.22-.83-.36-1.68-.61-2.5-.56-1.91-1.53-3.61-3.14-4.97-.68-.58-1.35-1.19-1.91-1.87-.82-.99-1.64-1.98-2.61-2.85-.65-.58-.91-1.29-.77-2.12.05-.31.13-.61.17-.92.37-2.68-.38-4.01-3.02-5.3-.75-.36-1.52-.69-2.27-1.05-.68-.33-1.29-.75-1.71-1.35-.29-.42-.39-.87-.22-1.33.13-.36.31-.73.54-1.05.52-.71,1.08-1.39,1.64-2.08,1.07-1.31,2.02-2.69,2.72-4.2.31-.67.55-1.36.76-2.07.09-.14.16-.3.19-.47.14-.62.08-1.24-.09-1.84-.47-1.65-.87-3.32-1.48-4.92-1.61-4.24-2.19-8.58-1.74-13.04.38-3.76,1.59-7.28,3.75-10.5.09-.13.18-.27.27-.4-1.06,3.18-1.33,6.48-.48,9.37.3,1.03.92,2.95,1.93,4.79.99,1.8,1.96,3.61,2.96,5.41,1.12,2.03,1.84,4.17,2.2,6.41.08.53.16,1.09.09,1.62-.24,1.77-.47,3.55-1.3,5.2-.21.42-.41.85-.55,1.3-.69,2.09-1.1,4.18-.69,6.41.42,2.23.98,4.41,1.85,6.52,1.13,2.76,2.33,5.5,3.81,8.12.7,1.24,1.35,2.5,2.05,3.74.9,1.59,1.66,3.22,2.24,4.94.22.67.48,1.33.79,1.97.75,1.55,2.09,2.39,3.93,2.55.59.05,1.19.07,1.77,0,2.27-.24,4.51-.61,6.67-1.36,2.63-.91,5-2.25,7.38-3.6,4.03-2.29,7.8-4.93,11.54-7.59,1.8-1.28,3.62-2.56,4.95-4.31.34-.45.88-.69,1.46-.82-1.05,1.88-2.51,3.47-4.23,4.86Zm5.83-6.85c-1.73-4.25-4-8.22-7.19-11.71-.81-.89-1.71-1.73-2.65-2.5-3.88-3.19-8.16-5.79-13.17-7.27-.08-.02-.16-.05-.24-.08-4.99-1.24-9.32-3.65-13.43-6.42-2.89-1.95-5.21-4.41-7.17-7.17-2.45-3.45-3.86-7.22-4.52-11.28-.28-1.7-.43-3.39-.37-5.1.06-1.8.4-3.55,1.03-5.25.04-.1.26-.22.38-.2.12.02.26.19.29.31.04.22.04.46,0,.69-.71,4.79.08,9.44,1.65,14.01.88,2.55,2.44,4.78,4.26,6.84,1.34,1.53,3.06,2.68,4.84,3.74,1.49.89,3,1.75,4.58,2.49,2.64,1.24,5.31,2.41,8,3.54,4.55,1.91,8.91,4.13,12.98,6.82,5.17,3.42,9.21,7.74,12.15,12.93,3.14,5.56,5.25,11.45,6.41,17.6.44,2.36.82,4.76.76,7.17-.02.78-.01,1.55.03,2.33.22,4.88-.79,9.58-2.37,14.2-.58,1.7-1.08,3.44-1.87,5.07-.67,1.4-1.23,2.87-2.37,4.05.08-.91.11-1.83.28-2.73.5-2.76,1.09-5.5,1.57-8.26.44-2.53.81-5.07.71-7.65-.05-1.32,0-2.64-.04-3.96-.03-1.01-.15-2.01-.24-3.01-.05-.54-.15-1.08-.17-1.62-.18-3.9-.91-7.71-1.97-11.48-.06-.23-.11-.46-.19-.68,0,0-1.55-4.22-1.73-4.77-.07-.22-.13-.45-.22-.67Zm15.1,129.56c-1.86.07-3.69-.38-5.43-1.02-1.26-.47-2.48-1.01-3.55-1.79-1.65-1.21-3.27-2.45-4.9-3.69-.42-.32-.54-.87-.35-1.27.23-.46.63-.76,1.16-.79.67-.04,1.36-.05,2.01.06,2.36.4,4.71.37,7.06-.01,1.33-.21,2.67-.38,4.01-.55,1.2-.15,2.27-.59,3.25-1.23,2.07-1.37,3.88-3,5.42-4.86.77-.93,1.34-1.97,1.76-3.08.67-1.77,1.18-3.56,1.41-5.42.21-1.7.55-3.38.44-5.1-.07-3.34-.51-6.65-1.31-9.91-.31-1.29-.7-2.56-1.03-3.84-.11-.45-.16-.91-.22-1.37,0-.05.09-.13.15-.15.07-.02.2-.01.23.03.21.24.43.48.58.76,1.11,2.01,2.27,4,3.29,6.04,1.38,2.76,2.4,5.64,2.88,8.65.3,1.92.6,3.84.84,5.76.1.77.12,1.55.05,2.32-.26,2.71-.63,5.4-1.63,7.98-.63,1.62-1.46,3.13-2.54,4.54-1.67,2.17-3.6,4.1-5.98,5.64-2.29,1.48-4.86,2.19-7.6,2.3Zm58.77,168.89c-.17.09-1.37-1.49-2.32-3.18-1.53-2.71-1.45-3.94-3.14-5.84-.66-.75-1.18-1.31-2.09-1.62-1.86-.63-3.77.33-4.48.69-.64.32-1.38.79-2.99,2.48-1.7,1.78-2.52,2.97-3.18,3.77-.29.3-.78.81-1.46,1.37,0,0-2.63,2.18-6.45,3.42-21.42,6.95-43.15,2.79-43.15,2.79-8.19-1.57-14.33-3.84-20.55-6.13-3.29-1.21-9.89-4.01-23.1-9.59-3.23-1.36-8.79-3.73-16.56-6.03-2.25-.67-4.12-1.16-5.37-1.48,1.87-.04,4.61.04,7.83.65,1.98.38,3.51.83,5.7,1.54,7.19,2.33,11.12,3.94,11.12,3.94,2.47,1.01,4.34,1.83,5.91,2.55,5.38,2.48,8.54,3.97,10.72,4.99,2.75,1.29,9.62,4.51,18.15,6.58,6.98,1.7,12.5,2,17.09,2.23,4.3.21,11.63.54,20.92-1.03,8.79-1.48,13.19-2.22,16.16-5.06,2.58-2.46,3.79-5.56,8.39-8.01,2.35-1.25,4.01-1.49,5.4-1.06,1.4.43,2.26,1.47,3.01,2.39.97,1.19,1.18,1.96,2.33,4.66,1.48,3.47,2.28,4.89,2.12,4.96Zm2.04-45.1c1.38,4,2.55,8.06,3.53,12.16.51,2.12.84,4.28.8,6.47-.05,2.56.02,5.13-.05,7.69-.1,3.43-.7,6.8-1.67,10.11-.33,1.13-.76,2.23-1.44,3.22-.12.18-.35.34-.56.43-.08.04-.32-.07-.39-.17-.08-.11-.11-.3-.07-.44.54-2.36.59-4.78,1.01-7.16.11-.61.13-1.24.14-1.86.04-1.55.03-3.11.08-4.66.16-5.09-.67-10.08-1.88-15.01-1.64-6.69-4-13.16-7.16-19.39-.61-1.2-1.12-2.44-1.79-3.61-1.45-2.55-2.96-5.07-4.46-7.59-2.4-4.02-4.75-8.07-6.6-12.34-1.06-2.46-1.94-4.97-2.71-7.52-1.44-4.8-2.51-9.67-3.29-14.6-.3-1.92-.72-3.83-.7-5.79-.68-3.78-.46-7.6-.5-11.4-.03-2.87.03-5.75.06-8.63.01-1.55.18-3.1.32-4.65.3-3.25.9-6.47.71-9.75-.09-1.64.13-3.25.49-4.86.33-1.44.59-2.9.87-4.35.34-1.76.78-3.5,1.46-5.18.29-.73.44-1.5.68-2.24.04-.13.18-.24.27-.35.07.12.16.24.22.36.03.07.01.15.04.53-.08.48-.16,1.25-.35,2-.39,1.52-.59,3.05-.81,4.59-.44,3.02-.38,6.05-.4,9.07-.02,2.41,0,4.82.02,7.23,0,1.55.03,3.1.3,4.65.13.76.12,1.55.13,2.33.03,1.79.05,3.57.06,5.36.01,1.48.02,2.95.32,4.41.08.38.1.77.12,1.16.19,3.97.98,7.87,1.83,11.75,1.2,5.49,2.92,10.87,4.87,16.16,1.68,4.56,3.45,9.11,5.41,13.57,1.39,3.17,2.66,6.37,3.95,9.58,2.49,6.2,4.97,12.4,7.15,18.69ZM539.72,36.32l-.04-.14.12.04-.08.1Z"/>
</svg>