<?xml version="1.0" encoding="UTF-8"?>
<svg id="Calque_2" data-name="Calque 2" xmlns="http://www.w3.org/2000/svg" viewBox="0 0 2436 1540">
  <defs>
    <style>
      .cls-1 {
        fill: none;
        stroke: #d4adfc;
        stroke-miterlimit: 10;
        stroke-width: 5px;
      }

      .cls-2 {
        fill: #d4adfc;
      }
    </style>
  </defs>
  <path class="cls-1" d="m1007.58,1014.93h0c-22.65,4.9-45.85-6.17-51.83-24.73l-200.11-620.91c-5.98-18.56,7.53-37.58,30.17-42.48h0c22.65-4.9,45.85,6.17,51.83,24.73l200.11,620.91c5.98,18.56-7.53,37.58-30.17,42.48Z"/>
  <path class="cls-1" d="m1191.53,928.21h0c-21.66,2.2-43.12-8.24-47.94-23.31l-161.15-504.23c-4.82-15.07,8.84-29.07,30.49-31.27h0c21.66-2.2,43.12,8.24,47.94,23.31l161.15,504.23c4.82,15.07-8.84,29.07-30.49,31.27Z"/>
  <path class="cls-1" d="m1655.87,543.31l-205.85,304.71-50.17,74.27-187.41,277.42c-8.67,12.82-31.02,18.26-49.93,12.13-18.93-6.13-27.24-21.48-18.57-34.31l228.92-338.86c-25.61-83.91-51.23-167.82-76.84-251.73-3.98-7.59-1.7-15.98,5.97-21.85,7.95-6.09,20.71-8.72,32.67-6.17,10.94,2.33,19.31,8.59,21.87,16.32,22.17,63.05,44.33,126.11,66.5,189.16l164.34-243.27c6.54-9.68,20.87-15.15,35.65-14.62,4.8.17,9.65.99,14.28,2.49,18.93,6.13,27.23,21.49,18.57,34.31Z"/>
  <path class="cls-2" d="m1678.35,537.32l-205.85,304.71-50.17,74.27-187.41,277.42c-8.67,12.82-31.02,18.26-49.93,12.13-18.93-6.13-27.24-21.48-18.57-34.31l228.92-338.86c-25.61-83.91-51.23-167.82-76.84-251.73-3.98-7.59-1.7-15.98,5.97-21.85,7.95-6.09,20.71-8.72,32.67-6.17,10.94,2.33,19.31,8.59,21.87,16.32,22.17,63.05,44.33,126.11,66.5,189.16l164.34-243.27c6.54-9.68,20.87-15.15,35.65-14.62,4.8.17,9.65.99,14.28,2.49,18.93,6.13,27.23,21.49,18.57,34.31Z"/>
</svg>